<?xml version="1.0" encoding="UTF-8" standalone="no"?>
<svg id="svg2" xmlns:rdf="http://www.w3.org/1999/02/22-rdf-syntax-ns#" xmlns="http://www.w3.org/2000/svg" height="54.626mm" width="127.51mm" version="1.1" xmlns:cc="http://creativecommons.org/ns#" xmlns:dc="http://purl.org/dc/elements/1.1/" viewBox="0 0 451.82239 193.55565">
<g id="layer1" transform="translate(3649.7 711.21)">
<g id="g4138">
<path id="path1992" d="m-3348.4-582.17h64.57l-0.054 64.489-64.435 0.0275-0.081-64.516m21.64 21.559-0.081 21.371 21.371 0.08 0.081-21.371-21.371-0.08zm-258.2-21.56h64.57l-0.054 64.489-64.435 0.0275-0.081-64.516m21.64 21.559-0.081 21.371 21.371 0.08 0.081-21.371zm236.37-129.03 21.532 0.0538 0.026 21.478-21.344-0.16137-0.2151-21.371zm-279.41 0.0269h21.478l-0.1883 21.344-21.398 0.18825zm21.505-21.505 257.96 0.0263-0.054 21.452-85.86 0.08 0.028 42.822 107.31-0.0263 0.081-21.344 21.452 0.0275 0.215 21.371 42.796 0.1075 0.215 21.398 42.823 0.1075-0.054 64.409-64.355-0.0263-0.215-21.317-21.317-0.13437-0.1612-21.398-64.274 0.1075-0.1345 21.29-21.344 0.16138-0.1881 21.317h-128.92l-0.215-21.344-21.317-0.1345-0.1613-21.398-64.274 0.1075-0.1344 21.29-21.344 0.16138-0.1881 21.344-21.371-0.0538-0.215-21.344-21.317-0.21513 0.054-64.301 21.317-0.215 0.215-21.317 21.344 0.0263 0.1612 21.344 64.301-0.1075-0.026-42.742-42.849-0.0275 0.026-21.505m64.516 21.505-0.026 42.876 85.887 0.0275 0.026-42.876z" fill="#0080c0"/>
<path id="path2010" d="m-3348.4-517.66 64.435-0.0275-0.054 21.505-64.382-0.08v-21.398zm-236.56 0 64.435-0.0275-0.054 21.505-64.382-0.08v-21.398zm258.12-42.957 21.371 0.08-0.081 21.371-21.371-0.08 0.081-21.371zm-236.56 0 21.371 0.08-0.081 21.371-21.371-0.08zm279.49-21.559 21.317 0.13438 0.215 21.317-0.1075 43.038h-21.478l0.054-64.489zm-85.914 0.16138 21.344-0.16138 0.081 64.516-21.505-0.0538-0.1075-42.984 0.1881-21.317zm-150.65-0.16138 21.317 0.13438 0.215 21.344-0.1075 43.011h-21.478l0.054-64.489zm-85.914 0.16138 21.344-0.16138 0.081 64.516-21.505-0.0538-0.1075-42.957 0.1881-21.344zm258.04-21.452 64.274-0.1075 0.1612 21.398h-64.57zm-236.56 0 64.274-0.1075 0.1613 21.398h-64.57z"/>
</g>
</g>
</svg>
