<?xml version="1.0"?>
<svg xmlns:rdf="http://www.w3.org/1999/02/22-rdf-syntax-ns#" xmlns="http://www.w3.org/2000/svg" xmlns:cc="http://creativecommons.org/ns#" xmlns:xlink="http://www.w3.org/1999/xlink" xmlns:dc="http://purl.org/dc/elements/1.1/" xmlns:svg="http://www.w3.org/2000/svg" id="svg2" viewBox="0 0 610 610" version="1.1">
  <g id="layer4" transform="translate(5 -397.36)">
    <path id="path4656" d="m486.83 733.14 29.64 98.164-69.234-8.0314-23.413 99.833-55.942-41.572-70.192 74.751-27.661-63.974-98.164 29.64 8.0315-69.234l-99.846-23.42 41.576-55.94-74.755-70.19 63.975-27.66-29.641-98.17 69.234 8.0314 23.413-99.833 55.942 41.572 70.192-74.751 27.661 63.974 98.164-29.64-8.0315 69.234 99.833 23.413-41.572 55.942 74.751 70.192-63.974 27.661z" fill="#4a0"/>
    <rect id="rect5840" stroke-linejoin="round" ry="1.5381" height="600" width="600" stroke="#4a0" y="402.36" x="0" stroke-width="10" fill="none"/>
  </g>
  <g id="layer1">
    <path id="path5587" d="m302.54 157.59c-83.415 0-151.02 67.603-151.02 151.02 0 83.415 67.603 151.02 151.02 151.02 83.415 0 151.02-67.603 151.02-151.02 0-9.719-0.93279-19.155-2.6944-28.356l24.378-4.3624-26.945-32.462-27.329-32.077-14.499 39.519-14.242 39.647 28.356-4.8757c1.4401 7.4202 2.1812 15.118 2.1812 22.967 0 66.408-53.816 120.22-120.22 120.22-66.408 0-120.22-53.816-120.22-120.22 0-66.408 53.816-120.22 120.22-120.22 38.96 0 73.618 18.499 95.589 47.217l11.92-32.85c-27.38-27.85-65.36-45.17-107.52-45.17z" fill="#250"/>
  </g>
  <metadata>
    <rdf:RDF>
      <cc:Work>
        <dc:format>image/svg+xml</dc:format>
        <dc:type rdf:resource="http://purl.org/dc/dcmitype/StillImage"/>
        <cc:license rdf:resource="http://creativecommons.org/licenses/publicdomain/"/>
        <dc:publisher>
          <cc:Agent rdf:about="http://openclipart.org/">
            <dc:title>Openclipart</dc:title>
          </cc:Agent>
        </dc:publisher>
        <dc:title>Eco green energy icon</dc:title>
        <dc:date>2013-08-22T20:39:43</dc:date>
        <dc:description/>
        <dc:source>http://openclipart.org/detail/182125/eco-green-energy-by-dominiquechappard-182125</dc:source>
        <dc:creator>
          <cc:Agent>
            <dc:title>dominiquechappard</dc:title>
          </cc:Agent>
        </dc:creator>
        <dc:subject>
          <rdf:Bag>
            <rdf:li>ecology</rdf:li>
            <rdf:li>energy</rdf:li>
            <rdf:li>recycling</rdf:li>
            <rdf:li>sustainable development</rdf:li>
          </rdf:Bag>
        </dc:subject>
      </cc:Work>
      <cc:License rdf:about="http://creativecommons.org/licenses/publicdomain/">
        <cc:permits rdf:resource="http://creativecommons.org/ns#Reproduction"/>
        <cc:permits rdf:resource="http://creativecommons.org/ns#Distribution"/>
        <cc:permits rdf:resource="http://creativecommons.org/ns#DerivativeWorks"/>
      </cc:License>
    </rdf:RDF>
  </metadata>
</svg>
