<?xml version="1.0" encoding="UTF-8" standalone="no"?>
<!-- Created with Inkscape (http://www.inkscape.org/) -->
<svg xmlns:inkscape="http://www.inkscape.org/namespaces/inkscape" xmlns:rdf="http://www.w3.org/1999/02/22-rdf-syntax-ns#" xmlns="http://www.w3.org/2000/svg" xmlns:xlink="http://www.w3.org/1999/xlink" xmlns:ns1="http://sozi.baierouge.fr" xmlns:cc="http://creativecommons.org/ns#" xmlns:sodipodi="http://sodipodi.sourceforge.net/DTD/sodipodi-0.dtd" xmlns:dc="http://purl.org/dc/elements/1.1/" id="svg2" xml:space="preserve" viewBox="0 0 23.603 33.159" version="1.1" inkscape:version="0.91 r13725">
  <defs id="defs6">
    <radialGradient id="radialGradient30" gradientUnits="userSpaceOnUse" cy="217.36" cx="1165.9" gradientTransform="matrix(.19728 -.6088 .6088 .19728 -356.8 683.52)" r="18.449">
      <stop id="stop32" style="stop-color:#713f19" offset="0"/>
      <stop id="stop34" style="stop-color:#211306" offset="1"/>
    </radialGradient>
    <radialGradient id="radialGradient48" gradientUnits="userSpaceOnUse" cy="1190.2" cx="159.4" gradientTransform="matrix(.64 0 0 2.9554 -92.124 -3510.1)" r="5.4625">
      <stop id="stop50" style="stop-color:#a36331" offset="0"/>
      <stop id="stop52" style="stop-color:#261507" offset="1"/>
    </radialGradient>
    <radialGradient id="radialGradient88" gradientUnits="userSpaceOnUse" cy="556.25" cx="1055.2" gradientTransform="matrix(.36728 -.52408 .52408 .36728 -675.19 360.69)" r="22.957">
      <stop id="stop90" style="stop-color:#713f19" offset="0"/>
      <stop id="stop92" style="stop-color:#211306" offset="1"/>
    </radialGradient>
    <radialGradient id="radialGradient118" gradientUnits="userSpaceOnUse" cy="657.21" cx="988.57" gradientTransform="matrix(.41984 -.48304 .48304 .41984 -727 217.41)" r="12.67">
      <stop id="stop120" style="stop-color:#a36331" offset="0"/>
      <stop id="stop122" style="stop-color:#261507" offset="1"/>
    </radialGradient>
    <radialGradient id="radialGradient136" gradientUnits="userSpaceOnUse" cy="767.27" cx="914.32" gradientTransform="matrix(.47504 -.4288 .4288 .47504 -750.18 40.278)" r="9.5142">
      <stop id="stop138" style="stop-color:#a36331" offset="0"/>
      <stop id="stop140" style="stop-color:#261507" offset="1"/>
    </radialGradient>
    <radialGradient id="radialGradient154" gradientUnits="userSpaceOnUse" cy="-138.68" cx="1194.8" gradientTransform="matrix(.01072 -.63992 1.4214 .02392 193.74 774.11)" r="10.226">
      <stop id="stop156" style="stop-color:#a36331" offset="0"/>
      <stop id="stop158" style="stop-color:#261507" offset="1"/>
    </radialGradient>
    <radialGradient id="radialGradient172" gradientUnits="userSpaceOnUse" cy="1194.8" cx="144.9" gradientTransform="matrix(.64 0 0 .64 -92.124 -759.96)" r=".78750">
      <stop id="stop174" style="stop-color:#a36331" offset="0"/>
      <stop id="stop176" style="stop-color:#261507" offset="1"/>
    </radialGradient>
    <radialGradient id="radialGradient190" gradientUnits="userSpaceOnUse" cy="776.17" cx="887.89" gradientTransform="matrix(.48216 -.4208 .4208 .48216 -745.37 20.788)" r="4.5625">
      <stop id="stop192" style="stop-color:#a36331" offset="0"/>
      <stop id="stop194" style="stop-color:#261507" offset="1"/>
    </radialGradient>
    <radialGradient id="radialGradient208" gradientUnits="userSpaceOnUse" cy="709.26" cx="932.71" gradientTransform="matrix(.45256 -.45256 .45256 .45256 -734.07 127.36)" r="4.5078">
      <stop id="stop210" style="stop-color:#a36331" offset="0"/>
      <stop id="stop212" style="stop-color:#261507" offset="1"/>
    </radialGradient>
    <radialGradient id="radialGradient226" gradientUnits="userSpaceOnUse" cy="832.77" cx="857.55" gradientTransform="matrix(.5004 -.39904 .39904 .5004 -756.68 -64.109)" r="12.23">
      <stop id="stop228" style="stop-color:#a36331" offset="0"/>
      <stop id="stop230" style="stop-color:#261507" offset="1"/>
    </radialGradient>
    <radialGradient id="radialGradient244" gradientUnits="userSpaceOnUse" cy="513.4" cx="1066.2" gradientTransform="matrix(.35376 -.53328 .53328 .35376 -639.72 406.03)" r="12.21">
      <stop id="stop246" style="stop-color:#a36331" offset="0"/>
      <stop id="stop248" style="stop-color:#261507" offset="1"/>
    </radialGradient>
    <radialGradient id="radialGradient262" gradientUnits="userSpaceOnUse" cy="824.62" cx="867.82" gradientTransform="matrix(.50056 -.39872 .39872 .50056 -749.76 -56.277)" r="9.349">
      <stop id="stop264" style="stop-color:#713f19" offset="0"/>
      <stop id="stop266" style="stop-color:#211306" offset="1"/>
    </radialGradient>
    <radialGradient id="radialGradient280" gradientUnits="userSpaceOnUse" cy="825.46" cx="870.25" gradientTransform="matrix(.50016 -.39928 .39928 .50016 -751.32 -56.413)" r="9.5969">
      <stop id="stop282" style="stop-color:#a36331" offset="0"/>
      <stop id="stop284" style="stop-color:#261507" offset="1"/>
    </radialGradient>
  </defs>
  <g id="g10" transform="matrix(1.25 0 0 -1.25 0 33.159)">
    <g id="g12">
      <path id="path14" style="fill-rule:evenodd;fill:#1d1407" d="m11.684 4 0.093-0.77c-0.019-0.172-0.062-0.406-0.125-0.703-0.109-0.019-0.172 0-0.195 0.063-0.019 0.109-0.062 0.172-0.125 0.191-0.129 0.067-0.332 0.055-0.609-0.031-0.11-0.043-0.235-0.149-0.383-0.32-0.129-0.125-0.258-0.211-0.383-0.254-0.043 0-0.152 0.011-0.32 0.031-0.153 0.019-0.258 0.012-0.321-0.031-0.062-0.024-0.128-0.098-0.191-0.223-0.023-0.066-0.066-0.16-0.129-0.289-0.043-0.129-0.074-0.215-0.098-0.258-0.039-0.019-0.136-0.051-0.285-0.094-0.492-0.191-0.746-0.363-0.769-0.511l-1.406 1.597c0.062 0.407 0.32 0.782 0.765 1.121 0.258 0.172 0.672 0.395 1.25 0.672 0.426 0.192 1.055 0.524 1.887 0.992 0.105 0.043 0.258 0.118 0.449 0.223 0.149 0.086 0.297 0.109 0.449 0.067l0.446-1.473z" inkscape:connector-curvature="0"/>
      <path id="path16" style="fill-rule:evenodd;fill:#8a5429" d="m11.777 4.961c0.024-0.153 0.024-0.363 0-0.641 0-0.129 0.012-0.469 0.035-1.027-0.023-0.488-0.128-0.711-0.32-0.672 0.082 0.215 0.106 0.492 0.063 0.832-0.215-0.168-0.481-0.285-0.801-0.352-0.383-0.043-0.606 0.079-0.672 0.352l0.191 2.02c0.11 0 0.313 0.007 0.61 0.031 0.277 0.019 0.469 0.011 0.578-0.031 0.191-0.086 0.297-0.258 0.316-0.512z" inkscape:connector-curvature="0"/>
      <path id="path18" style="fill-rule:evenodd;fill:#1d1407" d="m13.188 6.879c0.124-0.063 0.339-0.129 0.64-0.192 0.297-0.086 0.574-0.234 0.832-0.449 0.192-0.148 0.285-0.254 0.285-0.32 0-0.063-0.093-0.156-0.285-0.285-0.43-0.344-1.035-0.535-1.824-0.578-0.191-0.02-0.352-0.032-0.481-0.032-0.234-0.019-0.394-0.011-0.48 0.032s-0.172 0.117-0.258 0.226c-0.062 0.149-0.117 0.254-0.16 0.317l-0.414 1.921c0.383 0.02 0.875-0.078 1.473-0.289 0.148-0.062 0.371-0.179 0.672-0.351z" inkscape:connector-curvature="0"/>
      <g id="g20">
        <g id="g22">
          <g id="g28">
            <path id="path36" style="fill-rule:evenodd;fill:url(#radialGradient30)" d="m10.34 13.887 0.062-0.223c0.106-0.344 0.321-0.727 0.641-1.152 0.043-0.043 0.062-0.098 0.062-0.161 0.043-0.043 0.153-0.117 0.321-0.222 0.578-0.321 0.937-0.512 1.09-0.578 0.168-0.043 0.308-0.106 0.414-0.192l0.351-0.129c0.153 0 0.653-0.082 1.504-0.254v-0.48l0.098-0.129 0.129-0.031c0.019 0 0.117 0.012 0.285 0.031 0.129 0.023 0.183-0.012 0.16-0.094-0.062-0.172-0.172-0.312-0.32-0.418-0.082-0.086-0.235-0.183-0.446-0.289 0.168-0.125 0.254-0.246 0.254-0.351l-0.574-0.094-0.035-0.066c0.043-0.297-0.168-0.426-0.641-0.383 0.043-0.278-0.007-0.449-0.16-0.512-0.125 0.105-0.242 0.098-0.347-0.031-0.11-0.172-0.227-0.246-0.356-0.227-0.125-0.039-0.199 0.012-0.223 0.16-0.043 0.153-0.117 0.215-0.222 0.196-0.172-0.11-0.301-0.184-0.383-0.227-0.172-0.082-0.277-0.074-0.32 0.031 0.019 0.172 0.011 0.45-0.032 0.832-0.152-0.039-0.269-0.093-0.351-0.16l0.16-4.828-0.672-0.516v0.29c0.02 2.347-0.055 3.574-0.227 3.679-0.253-0.297-0.457-0.308-0.605-0.031l-0.129 0.129c-0.215-0.129-0.394-0.203-0.547-0.227v-0.828c-0.039 0.149-0.125 0.199-0.254 0.156-0.043-0.062 0-0.179 0.129-0.351 0.149-0.192 0.203-0.359 0.16-0.512-0.066 0.086-0.152 0.141-0.257 0.16-0.106 0-0.192-0.05-0.254-0.16 0.082-0.043 0.117-0.148 0.093-0.32-0.043-0.149-0.105-0.211-0.191-0.192-0.019 0.024-0.062 0.11-0.129 0.258-0.043 0.129-0.117 0.18-0.223 0.16-0.043-0.066-0.062-0.191-0.062-0.382 0-0.215-0.035-0.344-0.098-0.387-0.172 0.129-0.351 0.183-0.543 0.16 0.02-0.34-0.097-0.543-0.355-0.605 0.172 0.339 0.141 0.605-0.094 0.796-0.043-0.253-0.129-0.402-0.258-0.449 0.024 0.301-0.179 0.449-0.605 0.449-0.043-0.043-0.067-0.136-0.067-0.285 0-0.086-0.062-0.14-0.191-0.16 0.063 0.192 0.098 0.352 0.098 0.481 0.043 0.254-0.024 0.382-0.192 0.382-0.043-0.086-0.195-0.234-0.449-0.449-0.195-0.148-0.312-0.32-0.351-0.512-0.129 0.192-0.204 0.29-0.227 0.29-0.063 0.043-0.191 0.031-0.383-0.036-0.019 0.11-0.012 0.215 0.031 0.321 0.043 0.086 0.036 0.16-0.031 0.226-0.105 0-0.148-0.043-0.129-0.129 0.043-0.086 0-0.129-0.125-0.129-0.215 0.067-0.418 0.215-0.609 0.45-0.192 0.257-0.344 0.449-0.449 0.574-0.02 0.152 0.043 0.234 0.191 0.258 0.191 0.043 0.301 0.074 0.32 0.093v0.036c-0.32 0.062-0.586 0.148-0.8 0.254-0.192 0.085-0.235 0.14-0.129 0.16l0.226 0.031c-0.086 0.109-0.14 0.258-0.16 0.449l-0.066 0.258 0.32-0.129h0.195l-0.035-0.031 0.449-0.196 2.528 0.098c-0.106 0.02-0.192 0.043-0.254 0.063-0.129 0.066-0.117 0.097 0.031 0.097h1.055l0.734 0.192c0.727 0.215 1.141 0.351 1.25 0.418 0.254 0.211 0.395 0.328 0.414 0.351 0.215 0.211 0.356 0.383 0.418 0.512 0.043 0.082 0.074 0.309 0.098 0.672 0.019 0.363 0 0.512-0.067 0.449-0.019-0.043-0.105-0.141-0.254-0.289-0.128-0.172-0.234-0.266-0.32-0.289-0.105-0.043-0.289-0.074-0.543-0.094v0.863c-0.215 0.043-0.344 0.063-0.387 0.063-0.082 0.023-0.148 0.066-0.191 0.129-0.019 0.172-0.019 0.297 0 0.383-0.062 0-0.148 0.031-0.254 0.097-0.148 0.063-0.215 0.16-0.191 0.285l0.031 0.29c-0.383-0.297-0.578-0.34-0.578-0.129v0.351c0.152 0.047 0.215 0.117 0.195 0.227-0.023 0.043-0.129 0.125-0.32 0.254-0.172 0.129-0.258 0.222-0.258 0.289v0.222l0.258 0.192 0.383-0.094c0.019 0 0.148-0.023 0.383-0.066 0.105-0.02 0.234 0.011 0.382 0.097l0.868 0.481c0.062 0.062 0.265 0.148 0.605 0.254 0.301 0.086 0.48 0.129 0.547 0.129z" inkscape:connector-curvature="0"/>
          </g>
        </g>
      </g>
      <g id="g38">
        <g id="g40">
          <g id="g46">
            <path id="path54" style="fill-rule:evenodd;fill:url(#radialGradient48)" d="m9.922 18.91c0.066 1.219 0.148 2.004 0.254 2.367l0.129 0.16 0.191-1.183c0-0.043 0.086-0.531 0.258-1.473 0.062-0.383 0.18-0.82 0.351-1.312 0.106-0.383 0.161-1.309 0.161-2.782 0-0.382 0.019-1.218 0.062-2.496 0-0.492 0.055-1.097 0.16-1.824 0.106-0.727 0.16-1.141 0.16-1.25 0-0.363 0.075-0.777 0.223-1.246l-0.16-0.703 0.098-3.074c-0.383-0.215-0.747-0.469-1.086-0.766l-0.227 0.031c-0.191 0-0.414-0.043-0.672-0.129l0.031 2.078c-0.062 2.219-0.093 3.981-0.093 5.282 0.105 2.859 0.16 4.566 0.16 5.121v3.199z" inkscape:connector-curvature="0"/>
          </g>
        </g>
      </g>
      <path id="path56" style="fill-rule:evenodd;fill:#1d1407" d="m10.242 6.269c-0.105-0.062-0.234-0.074-0.383-0.031l-0.062 1.442 0.957 0.703 0.066-0.641c0-0.254-0.054-0.519-0.16-0.801-0.023-0.082-0.074-0.211-0.16-0.383-0.066-0.148-0.152-0.246-0.258-0.289z" inkscape:connector-curvature="0"/>
      <path id="path58" style="fill-rule:evenodd;fill:#1d1407" d="m11.297 7.262-0.031 0.16v0.035l0.16-0.098-0.129-0.097z" inkscape:connector-curvature="0"/>
      <path id="path60" style="fill-rule:evenodd;fill:#1d1407" d="m11.715 7.101v-0.988l-0.192 0.125c-0.171 0.172-0.289 0.344-0.351 0.512-0.043 0.238-0.012 0.461 0.094 0.672l0.031-0.16 0.129 0.097 0.289-0.258z" inkscape:connector-curvature="0"/>
      <path id="path62" style="fill-rule:evenodd;fill:#1d1407" d="m10.883 12.031-0.031-0.543 0.16-2.687-0.129-0.036c-0.192 0.067-0.289 0.364-0.289 0.899-0.149-0.191-0.235-0.172-0.254 0.062 0 0.301-0.024 0.469-0.067 0.512l-0.16 0.031c-0.043 0.215-0.093 0.364-0.156 0.45-0.066 0.066-0.129 0.086-0.195 0.066l0.035 1.629h0.031c0.383-0.063 0.734-0.191 1.055-0.383z" inkscape:connector-curvature="0"/>
      <path id="path64" style="fill-rule:evenodd;fill:#1d1407" d="m10.852 11.488 0.031 0.543 0.449-0.32c0.043-0.746 0.148-1.61 0.32-2.59 0-0.277 0.039-0.586 0.125-0.93h-0.031c-0.043-0.019-0.129 0.012-0.254 0.098l-0.035 0.285c-0.062 0.066-0.125 0.098-0.191 0.098l-0.094 0.258-0.16-0.129-0.16 2.687z" inkscape:connector-curvature="0"/>
      <path id="path66" style="fill-rule:evenodd;fill:#1d1407" d="m11.457 8.574 0.035-0.285c-0.086 0.082-0.16 0.211-0.226 0.383 0.066 0 0.129-0.032 0.191-0.098z" inkscape:connector-curvature="0"/>
      <path id="path68" style="fill-rule:evenodd;fill:#1d1407" d="m11.266 15.969-0.129-0.129v0.765l0.097 0.098 0.032-0.734z" inkscape:connector-curvature="0"/>
      <path id="path70" style="fill-rule:evenodd;fill:#1d1407" d="m9.988 15.551 1.149 1.054v-0.765l-0.321-0.258c-0.125-0.082-0.265-0.137-0.414-0.16-0.214-0.02-0.351 0.023-0.414 0.129z" inkscape:connector-curvature="0"/>
      <path id="path72" style="fill-rule:evenodd;fill:#2b1d0b" d="m7.137 17.246-0.223-0.031c0.086 0.105 0.152 0.179 0.191 0.222v0.032c0.086 0.152 0.215 0.214 0.387 0.195 0.106-0.024 0.149-0.055 0.125-0.098l-0.125-0.062h0.383c0.383-0.067 0.672-0.098 0.863-0.098l1.219 0.098c0.574 0.234 1 0.488 1.277 0.765 0.172 0.172 0.352 0.227 0.543 0.161 0.11-0.02 0.239-0.063 0.387-0.129 0.082 0 0.211 0.047 0.383 0.129h1.344c0.043 0.023 0.066 0.085 0.066 0.191 0.02-0.082 0.082-0.137 0.188-0.16 0.128-0.02 0.203-0.051 0.226-0.094-0.086-0.129-0.183-0.375-0.289-0.738-0.086-0.297-0.191-0.489-0.32-0.574 0.129-0.067 0.246-0.075 0.351-0.032l1.024 0.285h0.289l-0.321-0.285c-0.152-0.156-0.253-0.273-0.304-0.355h0.465c0.023 0 0.066 0.023 0.129 0.066 0.085 0.043 0.148 0.012 0.191-0.097 0.129 0.128 0.223 0.109 0.289-0.063 0.043-0.172 0.02-0.309-0.066-0.418l-0.063-0.062-0.223 0.031h-0.257l0.32-0.094c0.191-0.066 0.289-0.117 0.289-0.16 0-0.109-0.043-0.203-0.129-0.289-0.086-0.192-0.141-0.297-0.16-0.32-0.086-0.106-0.191-0.086-0.32 0.066v-0.195c0.023-0.043 0.066-0.082 0.129-0.125 0.043-0.043 0.05-0.11 0.031-0.196l-0.129 0.036h-0.063c-0.019-0.024-0.031-0.11-0.031-0.258 0-0.106-0.031-0.168-0.098-0.192-0.082-0.019-0.16 0.032-0.222 0.16-0.063 0.129-0.149 0.192-0.254 0.192 0.254-0.297 0.309-0.488 0.16-0.574-0.086-0.043-0.16-0.036-0.227 0.031-0.042 0.062-0.062 0.074-0.062 0.031 0-0.062 0.055-0.246 0.16-0.543 0.063-0.254 0-0.308-0.191-0.16-0.172 0.129-0.301 0.277-0.383 0.449-0.047 0.086-0.078 0.117-0.098 0.098l-0.097-0.067-0.094-0.382c-0.043 0-0.129 0.062-0.258 0.191l-0.031-0.16v-0.094c0.043-0.066 0.097-0.152 0.16-0.258 0.043-0.086 0.031-0.16-0.031-0.222-0.192 0.062-0.301 0.16-0.321 0.285l-0.097 0.066c-0.063-0.023-0.117-0.086-0.157-0.191-0.042-0.129-0.085-0.203-0.128-0.227l-0.192 0.321h0.031c-0.066 0.086-0.117 0.14-0.16 0.16-0.066-0.02-0.117-0.031-0.16-0.031 0-0.106-0.012-0.321-0.031-0.641h-0.063c-0.047 0-0.086 0.098-0.129 0.289-0.042 0.191-0.105 0.289-0.191 0.289-0.109 0.043-0.16 0.031-0.16-0.035 0-0.063-0.031-0.094-0.098-0.094-0.125 0.277-0.179 0.531-0.16 0.766-0.125 0.043-0.18-0.012-0.16-0.16 0.023-0.168-0.008-0.254-0.094-0.254 0 0.129-0.023 0.191-0.066 0.191 0.043-0.172-0.008-0.289-0.16-0.351h-0.254c-0.086 0.167-0.106 0.363-0.063 0.574-0.109 0.023-0.16-0.051-0.16-0.223-0.152 0.066-0.203 0.234-0.16 0.512-0.066 0.023-0.117-0.012-0.16-0.098-0.043-0.082-0.074-0.125-0.098-0.125h-0.094l-0.16 0.481c0 0.019-0.074 0.211-0.222 0.574 0.234-0.149 0.359-0.266 0.382-0.352 0.149 0 0.235 0.067 0.254 0.192 0.344-0.407 0.586-0.641 0.739-0.703 0.085 0.043 0.105 0.128 0.062 0.257-0.043 0.149-0.062 0.235-0.062 0.254 0.105 0.02 0.203 0 0.285-0.062 0.066-0.043 0.14-0.098 0.226-0.16l0.16 0.222c0.317 0.129 0.372 0.309 0.161 0.543l-0.707 0.739c-0.235-0.067-0.352-0.086-0.352-0.067v-0.512c-0.004 0.11-0.215 0.161-0.641 0.161v-0.254c-0.125 0.019-0.211 0.074-0.254 0.16-0.043-0.043-0.054-0.129-0.031-0.258l-0.097 0.129-0.032-0.031-0.16-0.036-0.031-0.125c-0.063 0-0.149-0.042-0.258-0.128-0.062-0.086-0.156-0.106-0.285-0.067v0.289l-0.191-0.031c-0.11-0.066-0.204-0.086-0.29-0.066l-0.062 0.066h-0.035l-0.16 0.32-0.512-0.031c-0.191 0-0.277 0.051-0.254 0.156 0.086 0.11 0.137 0.196 0.16 0.258h-0.387c-0.125 0-0.125 0.16 0 0.481-0.105 0.32-0.21 0.535-0.32 0.64h0.098l-0.039 0.094z" inkscape:connector-curvature="0"/>
      <path id="path74" style="fill-rule:evenodd;fill:#2b1d0b" d="m10.082 18.336c-0.215-0.043-0.352-0.129-0.418-0.258 0.066-0.086 0.184-0.105 0.356-0.063 0.191 0.063 0.316 0.086 0.382 0.063-0.277-0.277-0.652-0.414-1.121-0.414v0.32c0.254 0.063 0.492 0.242 0.703 0.543 0.067-0.043 0.098-0.105 0.098-0.191z" inkscape:connector-curvature="0"/>
      <path id="path76" style="fill-rule:evenodd;fill:#2b1d0b" d="m5.953 11.133c0.086 0.152 0.192 0.257 0.32 0.32 0.067 0 0.141-0.02 0.227-0.063-0.066-0.21-0.246-0.296-0.547-0.257z" inkscape:connector-curvature="0"/>
      <g id="g78">
        <g id="g80">
          <g id="g86">
            <path id="path94" style="fill-rule:evenodd;fill:url(#radialGradient88)" d="m9.633 5.984 0.258-0.672c0.105-0.238 0.214-0.597 0.32-1.089l0.031-0.254 0.383-0.641-0.129 0.031c-1.129 0-1.832-0.566-2.109-1.695h-0.098l-0.031 0.031-0.094 0.067h-0.035c-0.086-0.086-0.168-0.129-0.254-0.129 0.02-0.129 0.02-0.375 0-0.739l-0.031-0.062-0.16-0.16-0.129 0.578-0.352-0.481c-0.043 0-0.086-0.011-0.129-0.035-0.043-0.043-0.086-0.062-0.129-0.062l-0.16 0.097c-0.105-0.363-0.277-0.621-0.512-0.769-0.085 0.129-0.074 0.297 0.032 0.512 0.109 0.257 0.152 0.468 0.129 0.64-0.02 0.086-0.075 0.074-0.161-0.031-0.085-0.086-0.136-0.172-0.16-0.258-0.125 0-0.125 0.129 0 0.387-0.062-0.047-0.437-0.203-1.117-0.481 0 0.063 0.039 0.168 0.125 0.321 0.067 0.125 0.086 0.265 0.067 0.414l-0.29-0.063c-0.086-0.086-0.191-0.117-0.32-0.097l0.067 0.097-0.098 0.16-0.383-0.066c-0.129-0.129-0.246-0.191-0.352-0.191l-0.035 0.191-0.062 0.066c-0.235-0.086-0.426-0.109-0.578-0.066 0.066 0.129 0.097 0.246 0.097 0.352-0.234-0.172-0.437-0.266-0.609-0.286 0.109 0.106 0.16 0.2 0.16 0.286-0.191-0.149-0.469-0.215-0.832-0.192 0 0.043 0.067 0.129 0.192 0.258 0.085 0.082 0.054 0.125-0.094 0.125-0.063 0.086-0.098 0.152-0.098 0.191l0.258 0.289c-0.063 0.063-0.023 0.231 0.113 0.512-0.047-0.078-0.117-0.117-0.211-0.129-0.043 0-0.093-0.043-0.16-0.125-0.086-0.109-0.137-0.215-0.16-0.32-0.125 0.062-0.191 0.117-0.191 0.16 0.023 0.063 0.086 0.149 0.191 0.254l-0.449-0.16c-0.125-0.02-0.168 0.012-0.125 0.098l-0.16 0.16c-0.086 0.043-0.184 0.05-0.289 0.031 0.128 0.172 0.214 0.32 0.257 0.449l-0.035 0.031c-0.168-0.019-0.234 0.02-0.191 0.129 0.086 0.106 0.14 0.192 0.16 0.254 0 0.024 0.012 0.031 0.031 0.031v0.036c-0.254 0-0.394 0.062-0.414 0.191l0.094 0.16-0.094 0.192c-0.129 0.043-0.215 0.125-0.258 0.253-0.019 0.067 0.055 0.098 0.223 0.098 0.086 0 0.172-0.012 0.258-0.031l-0.063 0.285c-0.172 0.215-0.246 0.492-0.226 0.832 0.172-0.363 0.375-0.641 0.609-0.832l0.031-0.031 3.649-0.992h0.543l0.929 0.289c0.34 0.043 0.692 0.168 1.055 0.382l1.152 0.254c0.106 0.024 0.321 0.036 0.641 0.036 0.086 0.019 0.258 0.332 0.512 0.929z" inkscape:connector-curvature="0"/>
          </g>
        </g>
      </g>
      <path id="path96" style="fill-rule:evenodd;fill:#2b1d0b" d="m6.625 5.789-0.352 0.066c-0.019-0.066-0.019-0.14 0-0.222-0.062-0.172-0.062-0.258 0-0.258 0.024 0.105 0.098 0.191 0.227 0.258 0.148 0.062 0.254 0.117 0.32 0.156h-0.195zm1.762 0.258c0.086 0 0.129 0.043 0.129 0.129l-0.383-0.063c0.062-0.066 0.148-0.086 0.254-0.066zm-5.887 3.008c-0.172 0.191-0.27 0.363-0.289 0.511l0.32-0.16c0.063-0.191 0.16-0.351 0.289-0.476l-0.066 0.222c0 0.063 0.277-0.129 0.832-0.578 0.105-0.082 0.383-0.18 0.832-0.285 0.129-0.043 0.469-0.098 1.023-0.16l4.352 0.16c0.109 0 0.227-0.035 0.352-0.098 0.152-0.062 0.3-0.086 0.449-0.062 0.277 0.019 0.437 0.062 0.48 0.125l-0.32-0.481c-0.063-0.082-0.125-0.34-0.192-0.765l-0.382-0.258c0-0.082-0.032-0.168-0.094-0.254-0.066-0.043-0.152-0.031-0.258 0.031l-0.383-0.289c-0.148-0.105-0.289-0.137-0.418-0.094-0.218-0.257-0.425-0.425-0.625-0.496 0.036 0.024-0.035 0.059-0.207 0.114-0.168 0.043-0.32 0-0.449-0.129l0.129 0.351c-0.02 0.086-0.086 0.074-0.191-0.031l-0.016-0.02 0.016 0.114-0.223-0.094v-0.031l0.129-0.067c-0.059-0.043-0.102-0.062-0.129-0.062 0.152-0.02 0.066-0.031-0.258-0.031 0.024-0.024-0.019-0.067-0.129-0.129v0.129c-0.211-0.11-0.371-0.301-0.476-0.579-0.11 0.149-0.235 0.184-0.387 0.098-0.277-0.109-0.445-0.16-0.512-0.16-0.086 0.082-0.105 0.254-0.062 0.512-0.11-0.063-0.192-0.106-0.258-0.129-0.082-0.043-0.191-0.051-0.32-0.031-0.02 0.042 0 0.109 0.066 0.191 0.043 0.066 0.02 0.105-0.066 0.129 0.129 0.062 0.195 0.148 0.195 0.254h-0.356c-0.148-0.149-0.179-0.285-0.093-0.414-0.043-0.043-0.117-0.032-0.227 0.031-0.105 0.062-0.211 0.098-0.316 0.098 0.277 0.273 0.437 0.445 0.476 0.511l-0.062 0.094-0.414 0.191c0-0.105-0.035-0.148-0.098-0.125h-0.066c-0.02 0-0.063-0.023-0.125-0.066-0.043-0.019-0.035 0 0.031 0.066-0.086 0-0.172-0.128-0.258-0.386-0.105-0.043-0.371-0.043-0.801 0 0.086 0.109 0.141 0.191 0.16 0.258-0.019 0.043-0.117 0.074-0.285 0.093-0.129 0.024-0.191 0.075-0.191 0.16 0.082 0.086 0.125 0.161 0.125 0.227h-0.031l-0.094 0.125c-0.152 0.023-0.258 0.109-0.32 0.258 0.125 0.086 0.199 0.168 0.222 0.254-0.32 0.043-0.5 0.129-0.543 0.258l0.414 0.16v0.062l0.032 0.192c0.023 0.086 0.086 0.129 0.195 0.129 0.062 0 0.117-0.012 0.16-0.032-0.086 0.082-0.121 0.168-0.098 0.254 0 0.063 0.02 0.098 0.063 0.098l0.035 0.031c-0.023 0.149-0.121 0.309-0.289 0.481z" inkscape:connector-curvature="0"/>
      <path id="path98" style="fill-rule:evenodd;fill:#2b1d0b" d="m6.02 5.918c-0.086-0.043-0.192-0.051-0.321-0.031v0.097l0.321-0.066z" inkscape:connector-curvature="0"/>
      <path id="path100" style="fill-rule:evenodd;fill:#2b1d0b" d="m3.266 6.558v0.032l0.16-0.063-0.16-0.129c-0.043 0.024-0.051 0.043-0.032 0.063 0.024 0.043 0.032 0.078 0.032 0.097z" inkscape:connector-curvature="0"/>
      <path id="path102" style="fill-rule:evenodd;fill:#2b1d0b" d="m8.93 11.617c0.043-0.066 0.086-0.078 0.129-0.035l0.16 0.16h-0.063l-0.129 0.031-0.097-0.156zm-5.246 3.773h0.16c0.019-0.277 0.062-0.457 0.125-0.542 0-0.024 0.066-0.067 0.195-0.129 0.039 0 0.117-0.098 0.223-0.289 0.215-0.082 0.449-0.168 0.703-0.254 0.383-0.258 0.746-0.418 1.086-0.481l2.242-0.031 1.664 0.32 0.223 0.156 0.031-0.605c0.215 0.129 0.289 0.137 0.226 0.031-0.042-0.062-0.109-0.136-0.191-0.222l0.125 0.062c0.129 0.067 0.238 0.086 0.32 0.067l0.481-0.61c0.129-0.148 0.308-0.265 0.547-0.351 0.082-0.063 0.371-0.129 0.863-0.192l0.672-0.129 1.152-0.418 1.184-0.187 1.277 0.187c0.215 0.067 0.473 0.196 0.77 0.387l-0.352-0.387c0.149 0.086 0.332 0.258 0.543 0.516-0.019-0.152-0.074-0.32-0.16-0.516-0.086-0.148-0.148-0.222-0.191-0.222h-0.063l-0.351-0.254 0.32-0.129c0.105 0.062 0.168 0.14 0.191 0.222-0.023-0.125-0.066-0.265-0.129-0.414-0.019-0.109 0.043-0.203 0.192-0.289-0.192 0.043-0.254 0-0.192-0.129 0.086-0.148 0.098-0.222 0.032-0.222-0.168-0.02-0.372-0.117-0.606-0.285-0.234-0.172-0.437-0.27-0.609-0.289-0.024-0.106 0.011-0.172 0.093-0.192 0.11-0.019 0.141-0.074 0.098-0.16-0.234 0.063-0.426 0.086-0.578 0.063-0.125-0.02-0.266 0.011-0.414 0.097-0.024-0.148-0.141-0.258-0.352-0.32-0.257-0.086-0.406-0.172-0.449-0.258l-0.289 0.672-0.191 0.066c-0.106 0.043-0.149 0.043-0.129 0 0.086-0.086 0.129-0.172 0.129-0.257 0-0.211-0.117-0.329-0.352-0.352l0.098-0.063c-0.086 0-0.11-0.043-0.063-0.128 0.039-0.082 0.094-0.118 0.157-0.094-0.02-0.153-0.137-0.203-0.352-0.16-0.039 0.254-0.117 0.437-0.223 0.543-0.277 0.019-0.394 0.011-0.351-0.032 0.019-0.019 0.074-0.043 0.16-0.062h-0.129l0.223-0.32c-0.063 0-0.125 0.019-0.192 0.062-0.043 0.043-0.105 0.055-0.191 0.031 0 0.024-0.031 0.055-0.094 0.098-0.023-0.129-0.012-0.266 0.031-0.418 0.043-0.148 0.063-0.277 0.063-0.383-0.235 0.043-0.352 0.192-0.352 0.449-0.148 0.02-0.222-0.043-0.222-0.191-0.192 0.125-0.332 0.297-0.418 0.512-0.106-0.106-0.16-0.278-0.16-0.512-0.083 0.02-0.149 0.191-0.192 0.512-0.043 0.277-0.137 0.34-0.285 0.191-0.172-0.043-0.352 0.106-0.547 0.449-0.148 0.278-0.266 0.352-0.352 0.223-0.062 0-0.082 0.055-0.062 0.16v0.289c-0.105-0.043-0.16-0.109-0.16-0.191-0.02 0.039-0.031 0.222-0.031 0.543 0.019 0.32 0 0.543-0.063 0.672-0.109-0.067-0.16-0.184-0.16-0.352-0.129 0.043-0.16 0.129-0.098 0.254-0.086 0.043-0.148 0.043-0.191 0-0.063-0.043-0.129-0.063-0.192-0.063-0.019-0.042-0.019-0.148 0-0.32 0-0.129-0.031-0.203-0.097-0.222 0.043 0.21 0.023 0.339-0.063 0.382-0.105 0.02-0.191 0.043-0.254 0.067-0.066 0.125-0.086 0.242-0.066 0.347-0.02 0.086-0.055 0.098-0.094 0.036-0.066-0.086-0.117-0.129-0.16-0.129 0.043 0.129 0.043 0.265 0 0.418v0.062h-0.129c0.254 0.106 0.235 0.106-0.066 0 0-0.062 0.023-0.109 0.066-0.129-0.086-0.34-0.222-0.512-0.418-0.512 0.043 0.106 0.024 0.161-0.062 0.161s-0.129 0.031-0.129 0.093c-0.278-0.339-0.414-0.488-0.414-0.445v0.254c0 0.043 0.051 0.098 0.16 0.16 0.125 0.086 0.211 0.16 0.254 0.223-0.129-0.043-0.309-0.094-0.543-0.16l-0.16-0.063h-0.098c-0.043-0.062-0.094-0.148-0.16-0.258-0.063-0.082-0.149-0.136-0.254-0.156-0.063 0.234-0.141 0.383-0.223 0.445-0.043 0.086-0.035 0.129 0.032 0.129l-0.289 0.129-0.161-0.097 0.098 0.226-0.098 0.125c-0.062-0.191-0.222-0.285-0.48-0.285 0.148 0.082 0.183 0.223 0.098 0.414-0.067 0.191-0.184 0.289-0.352 0.289-0.086-0.191-0.246-0.258-0.481-0.191l0.063 0.031 0.258 0.031h-0.387l0.035 0.481-0.289 0.031-0.066 0.031c-0.125-0.125-0.266-0.18-0.414-0.156 0.062 0.148 0.074 0.266 0.031 0.351-0.043 0.043-0.137 0.094-0.285 0.161-0.024 0.086 0 0.16 0.062 0.222 0.067 0.043 0.106 0.086 0.129 0.129l-0.066 0.129h-0.035c-0.02-0.023-0.043-0.066-0.063-0.129-0.043-0.023-0.109-0.023-0.191 0 0.019 0.129 0 0.235-0.067 0.32-0.105 0.106-0.191 0.204-0.254 0.29 0.192-0.024 0.36-0.11 0.512-0.258l-0.035 0.191c0 0.067 0.043 0.098 0.129 0.098 0.043 0-0.008 0.031-0.16 0.094-0.168 0.066-0.309 0.152-0.414 0.257l-0.129 0.129 0.222 0.223c-0.019 0.043-0.043 0.086-0.062 0.129 0 0.035 0.031 0.195 0.098 0.472z" inkscape:connector-curvature="0"/>
      <path id="path104" style="fill-rule:evenodd;fill:#2b1d0b" d="m10.242 20.64 0.223 0.032 0.48-0.098c0.387-0.086 0.629-0.16 0.739-0.223 0.254-0.043 0.371-0.097 0.351-0.16v-0.222h-0.351l-0.192-0.196c0.211-0.148 0.629-0.285 1.246-0.414-0.168 0.02-0.328-0.023-0.48-0.129-0.192-0.105-0.32-0.172-0.383-0.191-0.383 0.191-0.629 0.332-0.734 0.414 0.019-0.105-0.036-0.211-0.161-0.32-0.109-0.063-0.109-0.16 0-0.285-0.191 0-0.375 0.062-0.546 0.191l-0.446 0.32c0.02-0.258-0.191-0.371-0.64-0.351-0.469 0.019-0.715-0.055-0.739-0.223l0.672-0.449c-0.105 0-0.222-0.043-0.347-0.129-0.153-0.063-0.153-0.106 0-0.125-0.215-0.129-0.418-0.109-0.61 0.062-0.191 0.149-0.172 0.297 0.063 0.45-0.235 0.062-0.34 0.179-0.321 0.351 0.172 0.063 0.289 0.168 0.352 0.32 0.086 0.211 0.16 0.352 0.227 0.415-0.961 0.191-1.153 0.289-0.579 0.289l1.024 0.031c-0.02 0.023-0.043 0.055-0.063 0.098-0.019 0.042-0.011 0.074 0.032 0.093h0.351l0.192 0.067 0.64 0.382z" inkscape:connector-curvature="0"/>
      <path id="path106" style="fill-rule:evenodd;fill:#2b1d0b" d="m9.891 25.055 0.097 1.023 0.477-1.086c0.023-0.086 0.152-0.277 0.387-0.578 0.253-0.297 0.511-0.555 0.765-0.766 0.235-0.172 0.344-0.3 0.321-0.386-0.086-0.321-0.129-0.489-0.129-0.512 0-0.402-0.266-0.074-0.797 0.992l0.765-1.727c0.024-0.062 0.032-0.214 0.032-0.449 0-0.148-0.094-0.234-0.286-0.254l-0.832-0.066c-0.191-0.02-0.277-0.043-0.257-0.063 0.023-0.043 0.023-0.074 0-0.097-0.086-0.063-0.18 0.023-0.286 0.258-0.023 0.062-0.043 0.086-0.066 0.062-0.043-0.086-0.117-0.137-0.223-0.16-0.129-0.043-0.203-0.051-0.222-0.031l0.031 0.031-0.063 0.898c-0.023 0.211-0.078 0.254-0.16 0.125-0.129-0.168-0.203-0.242-0.226-0.222-0.043 0.043-0.063 0.105-0.063 0.191v0.129l-0.418-0.129 0.321 0.641c0.277 0.554 0.468 0.98 0.578 1.281 0.082 0.191 0.168 0.488 0.254 0.895z" inkscape:connector-curvature="0"/>
      <g id="g108">
        <g id="g110">
          <g id="g116">
            <path id="path124" style="fill-rule:evenodd;fill:url(#radialGradient118)" d="m2.914 13.855v0.098c0.172 0 0.34 0.074 0.512 0.223 0.191 0.129 0.363 0.203 0.512 0.222-0.02 0.043-0.063 0.067-0.126 0.067-0.109-0.024-0.183-0.035-0.226-0.035-0.148 0.066-0.266 0.16-0.352 0.289h-0.031v0.031l-0.129 0.16 0.192-0.031 0.097 0.097h0.192c-0.106 0.192-0.168 0.34-0.192 0.446-0.062 0.172-0.031 0.312 0.098 0.418 0.383-0.426 0.906-0.844 1.566-1.25l0.098 0.035-0.031-0.067c1.683-0.98 3.207-1.183 4.574-0.605 0.086 0.02 0.137 0.105 0.16 0.254 0.043 0.148 0.094 0.234 0.16 0.254 0.043-0.063 0.094-0.149 0.16-0.254 0.063-0.129 0.106-0.246 0.125-0.352v-0.097l0.032-0.192c-0.063-0.062-0.094-0.203-0.094-0.414-0.02-0.238-0.055-0.387-0.098-0.449l-0.543-0.098-0.062-0.16c-0.067 0-0.153-0.074-0.258-0.222-0.082-0.106-0.148-0.129-0.191-0.063 0.191 0.168 0.289 0.352 0.289 0.543-0.258-0.043-0.375-0.191-0.352-0.449l-0.129-0.031c-0.043 0-0.062-0.02-0.062-0.063-0.086 0.105-0.055 0.242 0.093 0.414 0.215 0.215 0.332 0.344 0.352 0.387l0.129 0.062c-0.02 0.086 0.012 0.223 0.098 0.418-0.258-0.152-0.407-0.269-0.45-0.351-0.257 0-0.425-0.129-0.511-0.387-0.11-0.297-0.223-0.469-0.352-0.512-0.066-0.129-0.152-0.222-0.258-0.289-0.062-0.043-0.168-0.094-0.32-0.156-0.02 0.019-0.063 0.027-0.125 0.027-0.023 0-0.012 0.078 0.031 0.227 0.086 0.105 0.149 0.183 0.192 0.223 0.105 0.277 0.086 0.425-0.063 0.449-0.066-0.129-0.172-0.321-0.32-0.578-0.129-0.192-0.321-0.309-0.578-0.348 0.191 0.359 0.277 0.617 0.257 0.766l-0.289-0.418c-0.062-0.039-0.086-0.106-0.062-0.192h-0.195c-0.106 0.067-0.192 0.098-0.254 0.098v0.094c0.168 0.086 0.382 0.257 0.64 0.515l-0.382-0.066 0.124 0.387-0.031-0.067c-0.062 0-0.117-0.031-0.16-0.094-0.043-0.066-0.105-0.086-0.191-0.066 0.129 0.152 0.222 0.266 0.289 0.352l-0.035-0.032c-0.063-0.019-0.223-0.14-0.477-0.351-0.195-0.172-0.387-0.203-0.578-0.098 0 0.066 0.066 0.109 0.191 0.129 0.11 0.043 0.141 0.105 0.098 0.191 0.02 0.067 0.062 0.153 0.129 0.258 0.082 0.082 0.125 0.168 0.125 0.254-0.149 0.277-0.32 0.203-0.512-0.223l0.067 0.032c0.043 0 0.105 0.023 0.191 0.066 0.043 0.043 0.098 0.051 0.16 0.031 0.02-0.086-0.031-0.14-0.16-0.16-0.129-0.019-0.191-0.054-0.191-0.097l-0.129-0.063-0.032-0.062-0.035 0.031-0.316-0.16c0 0.062 0.051 0.129 0.16 0.191h-0.066c0.043 0.129 0.054 0.258 0.035 0.383-0.11 0.066-0.203 0.035-0.289-0.094-0.043-0.086-0.098-0.203-0.16-0.351l-0.098-0.036c0.086 0.129 0.023 0.184-0.192 0.161-0.234-0.02-0.363 0.023-0.382 0.128 0.125-0.019 0.246 0 0.351 0.067 0.129 0.082 0.235 0.125 0.321 0.125-0.043 0.152-0.024 0.332 0.062 0.547-0.191-0.086-0.371-0.117-0.543-0.098l-0.031 0.031c-0.153-0.062-0.278-0.148-0.387-0.254 0.066 0 0.172 0.032 0.32 0.094 0.153 0.043 0.246 0.024 0.289-0.062-0.062-0.086-0.117-0.129-0.16-0.129-0.019 0.086-0.086 0.105-0.191 0.066-0.129-0.043-0.215-0.066-0.258-0.066h-0.062c-0.192 0.234-0.45 0.351-0.77 0.351z" inkscape:connector-curvature="0"/>
          </g>
        </g>
      </g>
      <g id="g126">
        <g id="g128">
          <g id="g134">
            <path id="path142" style="fill-rule:evenodd;fill:url(#radialGradient136)" d="m11.523 10.496c-0.085 0.234-0.152 0.383-0.191 0.445-0.215 0-0.277 0.301-0.195 0.899 0.152 0.703 0.238 1.152 0.258 1.343l0.031 0.29c0.109 0 0.191-0.055 0.258-0.161 0.043-0.152 0.082-0.238 0.125-0.257l-0.032-0.192c0.77-0.769 1.977-1.117 3.618-1.055 1.257 0.063 2.421 0.309 3.488 0.735 0-0.082-0.031-0.106-0.098-0.063-0.254-0.277-0.617-0.492-1.086-0.64l-0.258 0.031c-0.019-0.125 0.098-0.211 0.352-0.254 0.258-0.043 0.418-0.023 0.48 0.063h0.067c0.105 0 0.137-0.032 0.094-0.094-0.02-0.086-0.137-0.184-0.352-0.289-0.172-0.106-0.246-0.184-0.223-0.223-0.32-0.152-0.726 0.051-1.214 0.606-0.043-0.254 0.074-0.469 0.351-0.641 0.316-0.211 0.5-0.371 0.543-0.481-0.234-0.062-0.504 0.024-0.801 0.258-0.254 0.172-0.437 0.192-0.543 0.063 0 0.086-0.066 0.14-0.191 0.16-0.109 0.043-0.172 0.098-0.192 0.16-0.042-0.086 0.008-0.223 0.161-0.414 0.168-0.195 0.351-0.301 0.543-0.32 0.086 0.019 0.16-0.012 0.222-0.098-0.277-0.086-0.492-0.137-0.64-0.16-0.254-0.063-0.438 0-0.543 0.191-0.149 0.469-0.289 0.789-0.418 0.961-0.192-0.105-0.223-0.308-0.094-0.609 0.129-0.32 0.18-0.488 0.16-0.512-0.109 0.063-0.16 0.141-0.16 0.223-0.086-0.02-0.098-0.063-0.031-0.125 0.105-0.086 0.125-0.172 0.062-0.258-0.043-0.02-0.086-0.012-0.129 0.035-0.043 0.039-0.074 0.063-0.093 0.063l-0.387 1.183c-0.106-0.386-0.125-0.82-0.063-1.312-0.086 0.148-0.172 0.375-0.257 0.672-0.083 0.363-0.149 0.597-0.188 0.703-0.195-0.192-0.289-0.457-0.289-0.801-0.023-0.32 0.074-0.555 0.289-0.703-0.215-0.02-0.355 0.222-0.418 0.738-0.086 0.574-0.203 0.914-0.351 1.024-0.129-0.153-0.106-0.395 0.062-0.739 0.152-0.32 0.172-0.543 0.066-0.672-0.152 0.407-0.3 0.672-0.449 0.801-0.023-0.277 0.063-0.566 0.254-0.863 0-0.043 0.012-0.086 0.035-0.129 0-0.02-0.023-0.043-0.066-0.063-0.063 0-0.129 0.032-0.192 0.094-0.086 0.063-0.148 0.11-0.191 0.129 0-0.105 0.043-0.246 0.129-0.418 0.086-0.168 0.125-0.32 0.125-0.449-0.488 0.109-0.766 0.484-0.832 1.121 0.043 0.109 0.055 0.258 0.035 0.449-0.172 0.106-0.301 0.215-0.387 0.321l0.129 1.023c-0.234-0.215-0.332-0.48-0.289-0.801 0.024-0.191 0.086-0.48 0.195-0.863-0.085-0.254-0.183-0.297-0.289-0.125z" inkscape:connector-curvature="0"/>
          </g>
        </g>
      </g>
      <g id="g144">
        <g id="g146">
          <g id="g152">
            <path id="path160" style="fill-rule:evenodd;fill:url(#radialGradient154)" d="m7.137 2.527c-0.02-0.043-0.114-0.148-0.285-0.32-0.106-0.129-0.184-0.254-0.223-0.383 0.082 0 0.191 0.063 0.316 0.191l-0.125-0.031c0.02 0.043 0.137 0.203 0.352 0.481l-0.035 0.062zm4.547 2.336c0-0.258 0.093-0.48 0.285-0.672-0.446-0.258-0.864-0.543-1.246-0.863l-0.192 0.031v0.192c-0.172 0-0.289-0.063-0.355-0.192-0.168 0.449-0.254 0.715-0.254 0.801-0.149-0.152-0.297-0.152-0.449 0-0.192-0.707-0.34-1.109-0.446-1.219-0.023 0-0.054 0.11-0.097 0.321-0.086-0.063-0.184-0.254-0.289-0.575-0.106-0.281-0.246-0.429-0.414-0.449v0.801h-0.227c-0.062 0.043-0.086 0.211-0.062 0.512-0.067-0.063-0.098-0.192-0.098-0.383 0-0.129 0.012-0.313 0.031-0.547l0.129 0.031c-0.105-0.383-0.191-0.629-0.254-0.734-0.152-0.235-0.344-0.371-0.578-0.418 0.129 0.449 0.32 0.789 0.578 1.027-0.129-0.023-0.277-0.172-0.449-0.449-0.172-0.258-0.277-0.512-0.32-0.77-0.02-0.148-0.172-0.222-0.45-0.222-0.019 0.129 0.012 0.222 0.098 0.285 0.105 0.086 0.16 0.16 0.16 0.227-0.191 0.019-0.277 0.105-0.258 0.253 0.024 0.11-0.043 0.129-0.191 0.067 0.066 0.168 0.172 0.39 0.32 0.672 0.172 0.277 0.278 0.5 0.321 0.672-0.129 0-0.364-0.321-0.704-0.961-0.32-0.536-0.621-0.696-0.898-0.481l0.129 0.16c-0.106 0.106-0.063 0.254 0.129 0.45l0.16 0.414c-0.043 0.066-0.117 0.031-0.223-0.094-0.152-0.192-0.238-0.301-0.258-0.32-0.062-0.129-0.214-0.266-0.449-0.418-0.234-0.149-0.383-0.286-0.449-0.414-0.125 0-0.242-0.098-0.352-0.29-0.105 0.043-0.117 0.118-0.031 0.223 0.106 0.172 0.149 0.289 0.129 0.356 0.235 0.234 0.426 0.402 0.574 0.511v0.032l0.036 0.062c-0.129-0.062-0.313-0.184-0.547-0.352-0.192-0.171-0.371-0.289-0.543-0.351 0.062 0.148 0.179 0.309 0.351 0.48 0.18 0.204 0.305 0.356 0.367 0.465-0.035-0.039-0.07-0.074-0.109-0.113 0.082 0.234 0.074 0.309-0.035 0.223-0.063-0.063-0.168-0.172-0.32-0.317l0.035 0.063c-0.215-0.172-0.375-0.34-0.481-0.512 0.02 0.211-0.035 0.406-0.16 0.574 0.063 0.129 0.223 0.301 0.481 0.512-0.215-0.125-0.407-0.34-0.579-0.637h-0.382l0.382 0.446-0.289-0.321c-0.039 0-0.082-0.039-0.125-0.125-0.066-0.066-0.14-0.086-0.226-0.066 0.023 0.086 0.117 0.183 0.289 0.289 0.148 0.086 0.234 0.18 0.254 0.289-0.168-0.043-0.371-0.172-0.606-0.387-0.234-0.211-0.425-0.34-0.574-0.383 0.02 0.129 0.082 0.246 0.192 0.352 0.125 0.109 0.214 0.191 0.253 0.258-0.062 0.105 0.086 0.285 0.45 0.543 0.425 0.277 0.672 0.492 0.734 0.64-0.277-0.214-0.52-0.351-0.734-0.418v0.289c-0.192-0.128-0.418-0.339-0.672-0.64-0.278-0.383-0.481-0.629-0.61-0.735-0.043 0.082-0.117 0.106-0.222 0.063-0.086-0.043-0.129-0.031-0.129 0.031 0.066 0.02 0.117 0.086 0.16 0.192 0.172 0.171 0.289 0.312 0.352 0.418h-0.129l0.066 0.062c-0.258-0.125-0.406-0.254-0.449-0.383-0.063 0.02-0.137 0-0.223-0.062-0.043-0.043-0.066 0.011-0.066 0.16 0.066 0.019 0.14 0.094 0.226 0.223h-0.257c0.128 0.211 0.46 0.449 0.992 0.703-0.02 0.105-0.094 0.148-0.223 0.129-0.129-0.043-0.203-0.086-0.223-0.129v0.031c-0.492-0.254-0.757-0.383-0.8-0.383 0.191 0.129 0.254 0.289 0.191 0.481 0.234 0 0.395 0.066 0.48 0.191 0.106 0.043 0.161 0.074 0.161 0.098-0.106 0.043-0.161 0.074-0.161 0.093 0.149 0.067 0.235 0.161 0.254 0.289-0.086-0.019-0.16 0-0.222 0.063-0.086 0.043-0.16 0.066-0.223 0.066-0.043 0.063-0.078 0.125-0.098 0.192h0.223c-0.043 0.148-0.125 0.222-0.254 0.222-0.383 0.215-0.715 0.586-0.992 1.122 0.938-0.727 2.262-1.227 3.969-1.504 1.832-0.301 3.433-0.172 4.801 0.382v0.094c0.511 0.172 0.863 0.344 1.054 0.516h0.098c0.148-0.172 0.234-0.375 0.254-0.61 0.191-0.043 0.406-0.011 0.64 0.094 0.125 0.129 0.192 0.055 0.192-0.222 0-0.149-0.012-0.383-0.031-0.704-0.086 0.106-0.172 0.18-0.258 0.223 0-0.488 0.086-0.769 0.258-0.832l0.093-0.062c0.11 0.277 0.184 0.48 0.227 0.609 0.109 0.215 0.238 0.363 0.387 0.449z" inkscape:connector-curvature="0"/>
          </g>
        </g>
      </g>
      <g id="g162">
        <g id="g164">
          <g id="g170">
            <path id="path178" style="fill-rule:evenodd;fill:url(#radialGradient172)" d="m1.09 4.383c0-0.063-0.051-0.094-0.16-0.094-0.532-0.109-0.832 0.094-0.895 0.605 0.086 0.024 0.235-0.019 0.449-0.125 0.125-0.066 0.161-0.035 0.094 0.094l-0.191 0.031-0.192 0.098c-0.191 0.063-0.062 0.098 0.383 0.098 0-0.11 0.055-0.141 0.16-0.098 0.043-0.105 0.106-0.141 0.192-0.098l0.031-0.062c0.043-0.043 0.117-0.051 0.227-0.031-0.067-0.172-0.153-0.278-0.258-0.321 0-0.023 0.054-0.054 0.16-0.097z" inkscape:connector-curvature="0"/>
          </g>
        </g>
      </g>
      <g id="g180">
        <g id="g182">
          <g id="g188">
            <path id="path196" style="fill-rule:evenodd;fill:url(#radialGradient190)" d="m9.348 21.887c-0.067 0.023-0.098 0.043-0.098 0.066 0.172 0 0.32 0.094 0.449 0.285 0.106-0.086 0.426-0.148 0.961-0.191 0-0.106-0.117-0.266-0.355-0.481-0.168-0.172-0.2-0.332-0.094-0.48v-0.031l0.512-0.098c0.086 0 0.277-0.117 0.578-0.352 0.105-0.082 0.316-0.125 0.637-0.125l-0.797-0.351c-0.129-0.043-0.153-0.141-0.067-0.289 0.024-0.067 0.067-0.129 0.129-0.192l-0.48 0.254c0-0.105-0.055-0.129-0.161-0.062l-0.32 0.16-0.383-0.512c-0.214-0.258-0.308-0.152-0.285 0.317-0.238-0.235-0.449-0.383-0.64-0.446-0.129-0.043-0.161 0-0.098 0.125l0.098 0.196h-0.387c-0.149 0-0.277 0.019-0.383 0.062l-0.098 0.094 1.219 0.707c0.215 0.086 0.328 0.16 0.352 0.222-0.024 0.024 0.011 0.086 0.097 0.192l0.125 0.129c-0.019 0.086-0.093 0.117-0.222 0.097-0.106-0.023-0.184-0.054-0.223-0.097-0.066 0.062-0.066 0.14 0 0.222 0.082 0.067 0.082 0.141 0 0.227 0.148 0 0.297 0.117 0.445 0.352-0.125 0.019-0.277-0.012-0.445-0.098-0.004 0.043-0.023 0.078-0.066 0.098z" inkscape:connector-curvature="0"/>
          </g>
        </g>
      </g>
      <g id="g198">
        <g id="g200">
          <g id="g206">
            <path id="path214" style="fill-rule:evenodd;fill:url(#radialGradient208)" d="m9.57 25.121c0.129 0.68 0.266 1.148 0.418 1.406 0.063-0.129 0.352-0.66 0.864-1.601 0.339 0 0.617-0.125 0.832-0.383 0.062-0.063 0.214-0.309 0.449-0.735-0.129-0.085-0.321-0.085-0.578 0-0.321 0.125-0.524 0.192-0.61 0.192-0.105-0.067-0.117-0.16-0.031-0.289 0.109-0.125 0.141-0.242 0.098-0.352-0.086 0.172-0.203 0.27-0.352 0.289-0.086 0.02-0.246 0.02-0.48 0l-0.129-0.32c-0.063-0.105-0.149-0.074-0.254 0.098l-0.418-0.547c-0.149-0.211-0.203-0.246-0.16-0.094 0.086 0.234 0.129 0.371 0.129 0.414 0 0.024-0.032 0.024-0.098 0-0.105-0.043-0.211-0.062-0.316-0.062-0.129 0-0.129 0.086 0 0.253l-0.036 0.067c-0.019 0.125 0.012 0.211 0.098 0.254 0.043 0.043 0.129 0.074 0.254 0.097l0.16 0.286c0.086 0.129 0.192 0.343 0.32 0.64-0.148-0.234-0.289-0.351-0.418-0.351-0.105 0.019-0.105 0.117 0 0.289l0.258 0.449z" inkscape:connector-curvature="0"/>
          </g>
        </g>
      </g>
      <g id="g216">
        <g id="g218">
          <g id="g224">
            <path id="path232" style="fill-rule:evenodd;fill:url(#radialGradient226)" d="m6.562 7.359 0.032 0.031c-0.211 0-0.406-0.105-0.574-0.32-0.153-0.191-0.215-0.363-0.192-0.512l0.223 0.29-0.063 0.062c0.063 0.023 0.254 0.172 0.574 0.449zm-3.777 1.664c0 0.106 0.078 0.137 0.227 0.094v0.035c-0.215 0.168-0.352 0.395-0.418 0.672 0.449-0.234 1.086-0.598 1.918-1.09 0.769-0.363 1.527-0.586 2.273-0.672 0.149-0.086 0.395-0.129 0.738-0.129 0.317 0 0.551 0.043 0.704 0.129 0.277-0.043 0.671 0.012 1.183 0.161v0.097c0.426 0 0.715 0.16 0.863 0.481 0.149 0.234 0.235 0.445 0.254 0.636 0.258-0.722 0.344-1.246 0.258-1.566-0.062-0.02-0.117-0.141-0.16-0.352-0.043-0.171-0.129-0.246-0.254-0.222-0.258 0.043-0.461-0.024-0.609-0.196-0.086-0.082-0.203-0.234-0.352-0.445-0.148-0.172-0.289-0.105-0.418 0.192-0.043-0.043-0.062-0.172-0.062-0.383-0.024-0.192-0.086-0.289-0.192-0.289-0.152-0.043-0.269 0.043-0.351 0.257-0.067 0.168-0.153 0.211-0.258 0.125 0.105 0.11 0.172 0.204 0.191 0.29-0.148 0-0.265-0.086-0.351-0.258-0.02-0.082-0.074-0.223-0.16-0.414l-0.129 0.093v-0.062c0.043-0.172 0.035-0.277-0.032-0.32-0.062-0.063-0.117-0.02-0.16 0.128v0.45l0.067 0.093-0.098 0.192c0.191 0.215 0.277 0.332 0.258 0.351-0.024 0.047-0.086-0.007-0.192-0.16-0.343-0.383-0.449-0.691-0.32-0.926-0.043-0.085-0.172-0.171-0.387-0.253-0.168-0.067-0.265-0.172-0.285-0.321-0.066 0.02-0.097 0.074-0.097 0.16 0 0.082 0.031 0.125 0.097 0.125l0.321 0.641c-0.067 0.191 0.019 0.426 0.253 0.703l0.098 0.227c-0.148-0.043-0.34-0.184-0.578-0.418l-0.094-0.223c0.082 0.082 0.168 0.117 0.254 0.094-0.043-0.02-0.074-0.082-0.094-0.192 0-0.125-0.035-0.191-0.097-0.191-0.043-0.019-0.137-0.105-0.289-0.254-0.082-0.109-0.211-0.14-0.383-0.098-0.02 0.129 0.019 0.247 0.129 0.352 0.125 0.106 0.168 0.234 0.125 0.383-0.082 0.129-0.223 0-0.414-0.383-0.106 0.066-0.137 0.184-0.098 0.352 0.066 0.214 0.086 0.343 0.066 0.382-0.105-0.082-0.195-0.179-0.257-0.285 0.043-0.32 0.023-0.504-0.063-0.547v0.481c-0.066-0.043-0.117-0.137-0.16-0.285h-0.191c0-0.11-0.067-0.192-0.192-0.258-0.109-0.106-0.195-0.172-0.258-0.192-0.086 0.086-0.086 0.204 0 0.352 0.153 0.172 0.235 0.289 0.258 0.352l0.16 0.254v-0.063l0.125 0.223c-0.125-0.039-0.308-0.18-0.543-0.414-0.043-0.086-0.254-0.289-0.64-0.61h-0.16v0.192h0.097c0.043 0.129 0.074 0.246 0.094 0.351-0.086 0-0.125 0.035-0.125 0.098l0.32 0.223c-0.109 0.023-0.183 0.042-0.226 0.066 0.023 0.062 0.215 0.242 0.578 0.543-0.024 0.086-0.067 0.098-0.129 0.031-0.106-0.086-0.172-0.129-0.191-0.129-0.024 0.067-0.067 0.086-0.129 0.067-0.043-0.043-0.086-0.067-0.129-0.067 0.043 0.067 0.066 0.129 0.066 0.196l-0.066-0.036c-0.235-0.148-0.371-0.277-0.414-0.382-0.129-0.043-0.344-0.192-0.641-0.45-0.043 0.024-0.055 0.043-0.031 0.067 0.019 0.043 0.031 0.074 0.031 0.094 0.063 0.042 0.148 0.152 0.254 0.32h-0.414c0 0.129 0.066 0.215 0.191 0.258 0.153 0.062 0.235 0.105 0.258 0.125h0.063l0.16 0.129c-0.063 0.062-0.215 0.085-0.449 0.062-0.297-0.019-0.489-0.019-0.575 0 0.063 0.066 0.192 0.098 0.383 0.098 0.215 0.019 0.352 0.054 0.418 0.093h0.254l-0.191 0.098v0.063h0.672c0.257 0.023 0.406 0.117 0.449 0.289-0.684-0.043-1.141-0.141-1.375-0.289l-0.16 0.16h-0.29l0.227 0.066-0.387 0.254c-0.062 0-0.086 0.031-0.062 0.098h0.414c0.152-0.153 0.301-0.235 0.449-0.258l0.543 0.066-0.605 0.414-0.129-0.16v0.067c-0.172-0.043-0.246-0.008-0.227 0.097z" inkscape:connector-curvature="0"/>
          </g>
        </g>
      </g>
      <g id="g234">
        <g id="g236">
          <g id="g242">
            <path id="path250" style="fill-rule:evenodd;fill:url(#radialGradient244)" d="m7.523 18.109 0.446 0.129c0.152 0.043 0.289 0 0.418-0.129-0.129-0.062-0.352-0.117-0.672-0.16l0.609-0.445c0.192 0.105 0.383 0.191 0.574 0.254-0.019-0.063-0.086-0.129-0.191-0.192-0.043-0.043-0.012-0.097 0.098-0.16l-0.192-0.066 0.192-0.063v0.031c0.277 0.067 0.629 0.215 1.054 0.45-0.086-0.168-0.214-0.309-0.382-0.418 0.488 0.023 0.882 0.172 1.183 0.449 0 0.066 0.106 0.098 0.317 0.098-0.125 0.171-0.348 0.234-0.672 0.191 0 0.086-0.032 0.148-0.094 0.191 0.105 0.043 0.172 0.11 0.191 0.192-0.172 0-0.425-0.094-0.769-0.285-0.063-0.024-0.074-0.075-0.031-0.161 0.023-0.109 0-0.183-0.063-0.226h-0.418c-0.191 0.023-0.199 0.078-0.031 0.16 0.152 0.086 0.265 0.129 0.351 0.129l-0.671 0.48c0.023 0.211 0.277 0.297 0.769 0.254 0.063 0.043 0.074 0.118 0.031 0.227-0.043 0.062-0.031 0.105 0.032 0.125 0.449 0.172 0.714 0.258 0.8 0.258 0-0.086-0.066-0.149-0.191-0.192-0.234-0.191-0.426-0.332-0.578-0.418h0.226c0.063 0.11 0.18 0.184 0.352 0.227v0.16l0.191-0.129c0.297 0 0.5-0.066 0.606-0.191-0.192 0-0.297-0.012-0.317-0.031 0.125-0.129 0.309-0.196 0.543-0.196v-0.094c0.043 0 0.118-0.023 0.223-0.066s0.203-0.051 0.289-0.031c0.106-0.086 0.32-0.129 0.641-0.129 0.316 0 0.531 0.043 0.64 0.129 0.235 0 0.477 0.066 0.735 0.191 0.3 0.149 0.511 0.235 0.64 0.258 0.086-0.086 0.086-0.184 0-0.289-0.066-0.106-0.066-0.191 0-0.258 0-0.125-0.066-0.223-0.191-0.285-0.129-0.066-0.203-0.129-0.223-0.191 0.188-0.11 0.328-0.258 0.414-0.45-0.214 0.02-0.332-0.043-0.351-0.191-0.02-0.109-0.043-0.238-0.063-0.387-0.3 0.024-0.578 0.141-0.832 0.352-0.234 0.258-0.418 0.449-0.547 0.578 0-0.449-0.05-0.695-0.156-0.738-0.172-0.02-0.344 0.117-0.515 0.418-0.149 0.214-0.297 0.234-0.446 0.062 0-0.125 0.063-0.242 0.192-0.351 0.125-0.082 0.179-0.192 0.16-0.321h-0.516c0-0.062 0.024-0.136 0.067-0.222 0.043-0.063 0.05-0.137 0.031-0.223-0.215 0.062-0.34 0.012-0.383-0.16-0.023-0.086-0.066-0.223-0.129-0.418-0.062 0.066-0.148 0.183-0.254 0.351-0.086 0.153-0.172 0.258-0.258 0.321 0.063-0.618-0.148-0.957-0.64-1.024 0.043-0.105 0.097-0.179 0.16-0.222l0.16 0.253c0-0.019 0.148-0.085 0.449-0.191 0.172 0.024 0.309 0 0.414-0.062 0.985-0.215 1.934-0.024 2.852 0.574 0.254 0.172 0.871 0.715 1.855 1.633v-0.161h-0.097l-0.16-0.578c-0.149-0.082-0.266-0.211-0.352-0.382 0.215 0.042 0.332-0.02 0.352-0.192 0.019-0.234 0.074-0.383 0.16-0.449 0.109-0.063 0.203-0.031 0.289 0.098 0.062 0.062 0.105 0.062 0.129 0 0-0.086-0.047-0.149-0.129-0.192-0.11-0.066-0.172-0.129-0.192-0.191-0.023 0-0.226 0.031-0.609 0.093-0.066 0.149-0.18 0.278-0.352 0.383-0.043-0.062-0.023-0.191 0.063-0.383 0.086-0.21 0.184-0.328 0.289-0.351 0.043-0.043 0.105-0.074 0.191-0.098 0.063-0.019 0.086-0.082 0.063-0.191h-0.672c0-0.149-0.063-0.211-0.191-0.192h-0.161c-0.019 0.02-0.074 0.141-0.16 0.352-0.043 0.148-0.125 0.223-0.254 0.223-0.105-0.149-0.097-0.321 0.032-0.512 0.148-0.234 0.222-0.402 0.222-0.512h-0.191c-0.086 0.086-0.168 0.141-0.254 0.16-0.086 0.11-0.141 0.204-0.16 0.289-0.063 0.02-0.098-0.031-0.098-0.16 0.024-0.172 0.024-0.265 0-0.289-0.082 0.043-0.222 0.192-0.414 0.449-0.172 0.215-0.344 0.34-0.512 0.383 0-0.062 0.125-0.285 0.383-0.672 0.235-0.339 0.328-0.683 0.289-1.023h-0.066c-0.363 0.555-0.567 0.863-0.61 0.93-0.253 0.339-0.48 0.531-0.671 0.574 0.363-0.363 0.554-0.77 0.578-1.215-0.407 0.063-0.598 0.309-0.578 0.734-0.063 0.02-0.168 0.086-0.317 0.192-0.129 0.086-0.258 0.117-0.387 0.097 0-0.066 0.032-0.16 0.098-0.289 0.043-0.129 0.012-0.211-0.098-0.254-0.128 0.063-0.265 0.168-0.414 0.321-0.152 0.191-0.265 0.328-0.351 0.414-0.024-0.125-0.11-0.192-0.258-0.192-0.02 0.106-0.16 0.235-0.414 0.383 0 0.067-0.035 0.098-0.098 0.098 0.043 0.168 0.098 0.277 0.16 0.32h-0.289c0.129 0.192 0.215 0.34 0.258 0.446-0.086 0.023-0.172-0.02-0.258-0.125-0.062-0.11-0.148-0.153-0.253-0.129 0.019 0.086-0.032 0.117-0.161 0.093-0.129-0.019-0.183 0-0.16 0.067 0.258 0.148 0.449 0.265 0.578 0.351 0.211 0.149 0.36 0.321 0.446 0.512-0.063-0.019-0.309-0.141-0.735-0.351l-0.289-0.129c-0.105 0.019-0.242-0.043-0.414-0.192-0.129-0.129-0.226-0.16-0.289-0.097 0.34 0.234 0.574 0.363 0.703 0.386-0.129 0.063-0.16 0.114-0.097 0.157 0.085 0.085 0.14 0.16 0.164 0.226-0.493-0.258-0.868-0.449-1.122-0.578-0.109 0.066-0.128 0.141-0.066 0.227 0.109 0.125 0.16 0.242 0.16 0.351-0.211-0.043-0.351 0.008-0.414 0.16 0.598 0.129 0.906 0.192 0.926 0.192l-0.125 0.129-0.195-0.129-0.321 0.097-0.48-0.191c0 0.062 0.098 0.137 0.289 0.223 0.148 0.062 0.148 0.117 0 0.16-0.02 0.105-0.086 0.203-0.191 0.285-0.149 0.109-0.235 0.183-0.258 0.226l-0.094-0.035c-0.105 0.043-0.16 0.078-0.16 0.098l0.191 0.031-0.031 0.32c0.168-0.015 0.332-0.07 0.48-0.156z" inkscape:connector-curvature="0"/>
          </g>
        </g>
      </g>
      <g id="g252">
        <g id="g254">
          <g id="g260">
            <path id="path268" style="fill-rule:evenodd;fill:url(#radialGradient262)" d="m16.77 6.398c0.085 0 0.257 0.055 0.511 0.16l-0.383-0.48c-0.597-0.105-1.269-0.289-2.015-0.543l-0.543 0.063c-0.32 0-0.672-0.094-1.059-0.29 0 0.086-0.031 0.153-0.093 0.196-0.172-0.024-0.301 0.031-0.383 0.156-0.192-0.168-0.321-0.082-0.387 0.258l-0.223-0.129v0.48c-0.234 0-0.383 0.055-0.449 0.161-0.062-0.082-0.148 0.023-0.254 0.32-0.172 0-0.203 0.265-0.097 0.801l0.96-0.45c0.301-0.234 0.715-0.394 1.25-0.48l0.606-0.129c0.172-0.062 0.523-0.094 1.059-0.094h1.5z" inkscape:connector-curvature="0"/>
          </g>
        </g>
      </g>
      <g id="g270">
        <g id="g272">
          <g id="g278">
            <path id="path286" style="fill-rule:evenodd;fill:url(#radialGradient280)" d="m16.035 6.816c0.832 0 1.399 0.02 1.695 0.063-0.363-0.215-0.628-0.469-0.8-0.766l-0.192-0.066-0.062 0.097v-0.097c-0.344-0.063-0.942-0.235-1.793-0.512l-0.543 0.063c-0.172 0-0.406-0.043-0.707-0.125l-0.125 0.062-0.192 0.031-0.289 0.098c-0.254 0.406-0.418 0.629-0.48 0.672l-0.063 0.094-0.289-0.125-0.191 0.285h-0.227l-0.222 0.32c-0.149 0.191-0.223 0.352-0.223 0.48-0.023 0.129-0.031 0.223-0.031 0.29 0.019 0.148 0.105 0.16 0.254 0.031l0.769-0.352c0.598-0.258 1.129-0.406 1.602-0.449 0.531-0.062 1.234-0.094 2.109-0.094z" inkscape:connector-curvature="0"/>
          </g>
        </g>
      </g>
      <path id="path288" style="fill-rule:evenodd;fill:#9a6639" d="m8.066 4.863 0.129-0.031c-0.32-0.192-0.832-0.309-1.535-0.352l-1.504-0.191c-0.066 0-0.203-0.074-0.418-0.227-0.215-0.129-0.351-0.168-0.418-0.129 0.086 0.239 0.289 0.399 0.61 0.485v0.094l-0.289 0.062h1.73c0.191 0.024 0.477 0.047 0.863 0.066 0.02 0 0.161 0.051 0.414 0.161 0.215 0.086 0.356 0.105 0.418 0.062z" inkscape:connector-curvature="0"/>
      <path id="path290" style="fill-rule:evenodd;fill:#81552f" d="m6.305 3.933 0.195 0.036c-0.109-0.129-0.332-0.278-0.672-0.45-0.172-0.129-0.289-0.191-0.355-0.191 0.043 0.125 0.16 0.254 0.355 0.383 0.168 0.148 0.328 0.222 0.477 0.222z" inkscape:connector-curvature="0"/>
      <path id="path292" style="fill-rule:evenodd;fill:#9a6639" d="m2.945 5.09 0.16-0.098c0.043-0.023 0.129-0.043 0.258-0.062 0.082-0.043 0.106-0.11 0.063-0.196-0.684-0.043-1.121-0.051-1.313-0.031 0.043 0.129 0.172 0.215 0.383 0.258 0.258 0.062 0.406 0.105 0.449 0.129z" inkscape:connector-curvature="0"/>
      <path id="path294" style="fill-rule:evenodd;fill:#9a6639" d="m3.105 4.351h0.192c-0.02-0.043-0.063-0.128-0.125-0.257-0.043-0.082-0.129-0.114-0.258-0.094 0 0.105 0.063 0.223 0.191 0.351z" inkscape:connector-curvature="0"/>
      <path id="path296" style="fill-rule:evenodd;fill:#9a6639" d="m8.867 4.765 0.481 0.196-0.864-0.641c-0.023-0.047-0.086-0.152-0.191-0.32-0.086-0.149-0.172-0.215-0.258-0.192-0.066 0.321 0.211 0.641 0.832 0.957z" inkscape:connector-curvature="0"/>
      <path id="path298" style="fill-rule:evenodd;fill:#9a6639" d="m9.891 4.961 0.062-0.129c-0.359-0.277-0.574-0.406-0.641-0.383 0.043 0.106 0.235 0.274 0.579 0.512z" inkscape:connector-curvature="0"/>
      <path id="path300" style="fill-rule:evenodd;fill:#9a6639" d="m6.707 7.933-1.168 0.036c-0.105 0-0.277-0.067-0.512-0.196-0.215-0.105-0.375-0.148-0.48-0.125 0 0.082 0.055 0.172 0.16 0.254 0.105 0.086 0.137 0.172 0.094 0.258h-0.352c-0.168 0-0.297-0.031-0.383-0.098 0.067 0.215 0.301 0.352 0.704 0.418 0.152 0 0.394-0.086 0.738-0.257 0.476-0.172 0.879-0.266 1.199-0.29z" inkscape:connector-curvature="0"/>
      <path id="path302" style="fill-rule:evenodd;fill:#9a6639" d="m6.051 7.871h0.543c-0.106-0.02-0.364-0.16-0.766-0.418-0.043 0.086 0.031 0.227 0.223 0.418z" inkscape:connector-curvature="0"/>
      <path id="path304" style="fill-rule:evenodd;fill:#9a6639" d="m7.586 7.84-0.094-0.352c-0.43-0.258-0.652-0.387-0.676-0.387 0 0.172 0.086 0.332 0.258 0.485 0.172 0.125 0.34 0.211 0.512 0.254z" inkscape:connector-curvature="0"/>
      <path id="path306" style="fill-rule:evenodd;fill:#9a6639" d="m4.961 14.398-0.352-0.093c-0.062 0-0.168-0.012-0.32-0.036-0.148-0.039-0.266-0.05-0.351-0.031 0.066 0.152 0.246 0.258 0.542 0.32 0.067 0 0.227-0.054 0.481-0.16z" inkscape:connector-curvature="0"/>
      <path id="path308" style="fill-rule:evenodd;fill:#9a6639" d="m5.121 14.207 0.098-0.094c-0.043-0.109-0.129-0.14-0.254-0.098-0.004 0.086 0.051 0.149 0.156 0.192z" inkscape:connector-curvature="0"/>
      <path id="path310" style="fill-rule:evenodd;fill:#9a6639" d="m6.145 13.887v-0.098c-0.168-0.082-0.297-0.117-0.383-0.094 0 0.129 0.129 0.192 0.383 0.192z" inkscape:connector-curvature="0"/>
      <path id="path312" style="fill-rule:evenodd;fill:#9a6639" d="m6.66 13.726v-0.062l0.317-0.035c0.046 0 0.078-0.02 0.097-0.063l0.352-0.031c0.066-0.066 0-0.129-0.192-0.195-0.191-0.063-0.32-0.075-0.382-0.032l0.093 0.161c-0.125 0.023-0.254-0.008-0.383-0.094-0.191-0.11-0.32-0.172-0.382-0.192-0.024 0.235 0.136 0.415 0.48 0.543z" inkscape:connector-curvature="0"/>
      <path id="path314" style="fill-rule:evenodd;fill:#9a6639" d="m7.586 13.375 0.066-0.031c0-0.067-0.054-0.098-0.16-0.098 0 0.023 0.031 0.066 0.094 0.129z" inkscape:connector-curvature="0"/>
      <path id="path316" style="fill-rule:evenodd;fill:#9a6639" d="m12.449 12.16v-0.387c-0.019-0.105-0.074-0.203-0.16-0.285-0.105-0.105-0.203-0.098-0.285 0.031-0.066 0.106-0.031 0.246 0.094 0.414 0.109 0.153 0.226 0.227 0.351 0.227z" inkscape:connector-curvature="0"/>
      <path id="path318" style="fill-rule:evenodd;fill:#9a6639" d="m11.203 15.008 0.254-0.035c0.109-0.149-0.125-0.149-0.703 0 0.043 0.023 0.191 0.035 0.449 0.035z" inkscape:connector-curvature="0"/>
      <path id="path320" style="fill-rule:evenodd;fill:#9a6639" d="m12.066 15.07 0.289-0.094 0.063-0.128c-0.234 0-0.352 0.074-0.352 0.222z" inkscape:connector-curvature="0"/>
      <path id="path322" style="fill-rule:evenodd;fill:#9a6639" d="m13.121 15.133 0.512-0.125 0.035-0.129c-0.344 0.062-0.547 0.14-0.609 0.222 0.019 0.024 0.043 0.032 0.062 0.032z" inkscape:connector-curvature="0"/>
      <path id="path324" style="fill-rule:evenodd;fill:#9a6639" d="m8.996 17.086 0.192 0.16 0.671 0.098c0.043 0 0.168 0.043 0.383 0.129 0.129 0.042 0.246 0.05 0.352 0.031-0.086-0.172-0.246-0.321-0.481-0.449-0.234-0.149-0.437-0.184-0.609-0.094l0.031 0.191c-0.488-0.344-0.832-0.461-1.023-0.351 0.043 0.062 0.117 0.117 0.226 0.16l0.258 0.125z" inkscape:connector-curvature="0"/>
      <path id="path326" style="fill-rule:evenodd;fill:#9a6639" d="m11.684 18.238 0.062-0.094c0.02-0.066 0.012-0.129-0.031-0.191-0.024-0.043-0.074-0.055-0.16-0.035-0.02 0.066 0.019 0.172 0.129 0.32z" inkscape:connector-curvature="0"/>
      <path id="path328" style="fill-rule:evenodd;fill:#9a6639" d="m9.602 20.48 0.031-0.066c0.023-0.086-0.008-0.18-0.094-0.285-0.105-0.086-0.184-0.078-0.223 0.031-0.214-0.152-0.418-0.227-0.609-0.227 0.02 0.024 0.16 0.129 0.418 0.321 0.187 0.148 0.352 0.226 0.477 0.226z" inkscape:connector-curvature="0"/>
      <path id="path330" style="fill-rule:evenodd;fill:#9a6639" d="m9.891 20.543 0.16-0.063c0.043-0.3-0.024-0.48-0.192-0.547-0.023 0.129-0.011 0.332 0.032 0.61z" inkscape:connector-curvature="0"/>
      <path id="path332" style="fill-rule:evenodd;fill:#9a6639" d="m10.211 20.574 0.129-0.062v-0.289c-0.086 0-0.129 0.117-0.129 0.351z" inkscape:connector-curvature="0"/>
      <path id="path334" style="fill-rule:evenodd;fill:#9a6639" d="m9.922 26.078 0.066 0.062c0.188-0.55 0.242-1.042 0.157-1.468-0.083-0.387-0.192-0.567-0.317-0.547 0.02 0.258 0.031 0.449 0.031 0.578-0.023 0.234-0.105 0.34-0.257 0.32 0 0.106 0.054 0.278 0.16 0.512 0.105 0.234 0.16 0.414 0.16 0.543z" inkscape:connector-curvature="0"/>
      <path id="path336" style="fill-rule:evenodd;fill:#9a6639" d="m10.434 24.703 0.097-0.031c0-0.364-0.054-0.535-0.16-0.512 0 0.297 0.02 0.48 0.063 0.543z" inkscape:connector-curvature="0"/>
      <path id="path338" style="fill-rule:evenodd;fill:#b57d4d" d="m11.973 7.262 0.031-0.032c0.32-0.148 0.531-0.234 0.641-0.257 0.125-0.04 0.316-0.063 0.574-0.063 0.191-0.062 0.343-0.16 0.449-0.285 0.129-0.152 0.148-0.313 0.062-0.481l-0.48 0.446c-0.062 0.023-0.117 0.011-0.16-0.032-0.063-0.043-0.117-0.05-0.16-0.031-0.082 0.024-0.18 0.098-0.285 0.223-0.129 0.129-0.227 0.203-0.29 0.223-0.128 0.023-0.214 0.046-0.253 0.066-0.067 0.019-0.11 0.094-0.129 0.223z" inkscape:connector-curvature="0"/>
      <path id="path340" style="fill-rule:evenodd;fill:#b57d4d" d="m14.785 6.59 0.067-0.032c0.043-0.21-0.024-0.308-0.192-0.289-0.172 0-0.246 0.11-0.226 0.321h0.351z" inkscape:connector-curvature="0"/>
      <path id="path342" style="fill-rule:evenodd;fill:#b57d4d" d="m16.578 6.59 0.738 0.16c-1.089-0.426-1.707-0.512-1.855-0.254 0.043 0.043 0.191 0.062 0.445 0.062l0.672 0.032z" inkscape:connector-curvature="0"/>
      <path id="path344" style="fill-rule:evenodd;fill:#b57d4d" d="m13.859 11.711 2.688 0.097 0.16-0.066c-0.426-0.125-1.09-0.191-1.984-0.191h-0.481c-0.215 0.019-0.351 0.066-0.418 0.129l0.035 0.031z" inkscape:connector-curvature="0"/>
      <path id="path346" style="fill-rule:evenodd;fill:#b57d4d" d="m14.816 16.574-0.031-0.129c-0.297-0.64-0.683-0.949-1.152-0.926l0.418 0.352c0.191 0.129 0.344 0.234 0.449 0.32 0.168 0.129 0.277 0.258 0.316 0.383z" inkscape:connector-curvature="0"/>
      <path id="path348" style="fill-rule:evenodd;fill:#b57d4d" d="m13.633 18.496 0.512 0.191c-0.809-0.511-1.524-0.703-2.141-0.578 0.148 0.067 0.437 0.11 0.863 0.129 0.363 0 0.629 0.074 0.801 0.223l-0.035 0.035z" inkscape:connector-curvature="0"/>
    </g>
  </g>
<metadata><rdf:RDF><cc:Work><dc:format>image/svg+xml</dc:format><dc:type rdf:resource="http://purl.org/dc/dcmitype/StillImage"/><cc:license rdf:resource="http://creativecommons.org/licenses/publicdomain/"/><dc:publisher><cc:Agent rdf:about="http://openclipart.org/"><dc:title>Openclipart</dc:title></cc:Agent></dc:publisher></cc:Work><cc:License rdf:about="http://creativecommons.org/licenses/publicdomain/"><cc:permits rdf:resource="http://creativecommons.org/ns#Reproduction"/><cc:permits rdf:resource="http://creativecommons.org/ns#Distribution"/><cc:permits rdf:resource="http://creativecommons.org/ns#DerivativeWorks"/></cc:License></rdf:RDF></metadata></svg>
