<?xml version="1.0" encoding="UTF-8" ?>
<!DOCTYPE svg PUBLIC "-//W3C//DTD SVG 1.1//EN" "http://www.w3.org/Graphics/SVG/1.1/DTD/svg11.dtd">
<svg width="2049pt" height="2049pt" viewBox="0 0 2049 2049" version="1.1" xmlns="http://www.w3.org/2000/svg">
<path fill="#111111" opacity="0.93" d=" M 1024.03 0.00 L 1024.90 0.00 C 1063.05 14.14 1066.26 62.96 1099.05 82.60 C 1133.68 67.91 1144.63 21.15 1184.03 13.39 C 1220.70 30.91 1216.22 80.46 1244.54 105.67 C 1282.40 98.85 1299.64 50.26 1341.14 51.20 C 1374.04 75.09 1361.00 123.60 1386.55 151.71 C 1424.41 148.86 1449.80 105.46 1490.01 112.73 C 1517.46 141.96 1498.26 186.69 1518.20 218.64 C 1556.11 222.66 1586.87 184.29 1625.78 196.06 C 1650.47 228.19 1622.84 272.19 1639.12 306.38 C 1675.64 314.65 1711.66 283.37 1747.87 300.12 C 1768.27 336.05 1733.05 373.60 1743.17 410.56 C 1777.98 426.33 1821.82 398.28 1853.96 424.20 C 1863.25 462.61 1828.58 492.97 1830.00 530.11 C 1861.68 551.81 1908.34 530.34 1937.03 560.26 C 1942.69 600.51 1900.89 624.98 1897.37 662.65 C 1925.67 688.37 1974.28 675.21 1998.61 708.32 C 1998.71 749.65 1950.79 766.79 1943.39 804.63 C 1968.79 832.61 2016.61 828.75 2035.79 864.29 C 2029.36 904.46 1981.79 915.45 1966.51 950.06 C 1986.13 982.80 2034.58 986.23 2049.00 1024.11 L 2049.00 1025.88 C 2040.35 1037.07 2035.44 1051.43 2021.04 1057.09 C 2003.56 1071.41 1977.12 1077.39 1967.22 1099.11 C 1980.68 1134.26 2029.79 1144.73 2035.70 1184.78 C 2017.47 1221.39 1967.82 1216.01 1943.46 1245.36 C 1951.74 1282.44 1998.26 1299.87 1998.62 1340.69 C 1975.53 1374.26 1925.55 1360.82 1897.34 1386.56 C 1900.71 1424.35 1942.79 1449.00 1936.95 1489.32 C 1907.99 1517.52 1862.83 1498.78 1830.30 1518.18 C 1826.74 1555.99 1864.21 1586.42 1853.89 1625.52 C 1821.91 1650.30 1778.04 1624.09 1743.28 1638.58 C 1732.93 1675.38 1767.73 1712.04 1748.61 1748.62 C 1712.54 1767.40 1674.57 1732.95 1637.84 1743.88 C 1624.28 1778.85 1649.26 1820.13 1626.60 1853.03 C 1588.08 1865.65 1556.60 1827.72 1518.90 1830.00 C 1497.49 1861.33 1518.94 1909.02 1488.96 1936.69 C 1448.70 1943.67 1424.32 1900.01 1386.38 1897.46 C 1361.21 1926.20 1373.81 1974.88 1340.76 1998.63 C 1299.87 1998.03 1282.46 1951.93 1245.25 1943.54 C 1216.28 1967.85 1221.13 2016.68 1185.41 2035.50 C 1145.36 2030.73 1134.11 1980.63 1099.04 1967.21 C 1078.22 1976.27 1072.43 2001.43 1059.02 2018.02 C 1053.12 2033.63 1038.22 2040.03 1025.76 2049.00 L 1023.13 2049.00 C 986.67 2033.58 982.24 1987.17 950.73 1966.64 C 915.53 1980.61 904.75 2028.69 865.04 2035.78 C 827.96 2018.22 833.28 1967.57 803.56 1943.38 C 766.76 1952.40 749.30 1997.90 708.66 1998.71 C 674.49 1975.08 688.67 1925.72 662.54 1897.35 C 625.15 1901.05 600.87 1941.96 561.05 1937.62 C 530.98 1909.89 551.58 1862.47 530.77 1830.48 C 493.38 1826.60 463.08 1864.26 424.69 1854.14 C 398.04 1823.17 425.41 1778.64 411.24 1743.59 C 374.58 1733.51 335.66 1767.64 300.04 1747.85 C 283.03 1711.55 314.90 1675.45 306.41 1638.88 C 275.29 1622.61 237.64 1648.44 206.67 1631.30 C 202.21 1629.19 194.77 1628.83 195.47 1622.20 C 186.29 1584.82 222.12 1555.43 218.98 1518.79 C 187.52 1497.70 140.04 1519.09 112.53 1489.04 C 106.19 1448.98 148.76 1424.27 151.77 1386.56 C 123.27 1361.31 75.30 1374.10 51.26 1341.21 C 50.45 1300.36 97.31 1282.40 105.55 1245.43 C 81.56 1215.84 32.45 1221.44 13.55 1185.46 C 19.19 1145.29 68.13 1134.06 82.72 1099.03 C 70.79 1077.16 44.67 1070.59 26.26 1055.75 C 12.40 1050.48 8.21 1035.73 0.00 1024.93 L 0.00 1024.04 C 8.40 1013.66 12.13 998.92 25.86 993.85 C 43.93 978.65 70.94 972.91 82.54 950.85 C 68.80 915.24 19.45 904.90 13.34 864.29 C 32.47 828.69 80.82 832.81 105.67 804.47 C 98.22 766.81 49.63 748.81 50.93 707.64 C 75.82 675.83 122.65 687.78 151.73 663.36 C 149.16 625.17 105.84 600.46 112.37 559.96 C 141.06 530.75 186.89 550.86 219.13 530.80 C 221.72 492.96 184.46 462.21 196.04 423.34 C 228.12 398.96 271.37 425.65 306.25 410.95 C 315.64 373.82 281.17 336.07 301.14 300.12 C 331.07 286.64 361.65 304.13 391.49 308.24 C 400.70 308.09 414.86 309.37 414.70 296.15 C 419.24 263.28 402.19 225.27 423.24 196.09 C 462.09 184.55 492.98 221.87 530.83 219.11 C 551.46 186.93 530.83 140.08 560.46 112.19 C 600.68 106.89 625.19 148.93 663.09 151.78 C 688.23 122.93 675.33 73.67 708.96 50.48 C 749.36 51.98 767.09 96.80 803.72 105.87 C 832.96 81.72 828.34 31.43 864.97 13.38 C 904.92 20.41 915.29 68.84 950.71 82.56 C 983.19 62.74 986.24 14.39 1024.03 0.00 M 1024.21 12.39 C 988.81 28.54 987.29 79.19 951.16 94.33 C 913.22 84.09 903.89 34.94 866.28 25.00 C 833.50 46.39 839.80 96.89 806.13 117.53 C 773.41 111.61 754.93 80.98 727.53 65.38 C 722.14 64.70 715.23 60.51 710.39 63.21 C 682.81 89.89 696.94 137.95 666.79 162.89 C 627.82 163.30 603.90 121.94 565.37 122.16 C 540.33 152.83 562.13 200.15 535.93 229.87 C 507.60 233.10 484.12 215.99 458.28 207.77 C 445.42 201.40 425.58 202.13 423.47 219.51 C 418.38 251.19 435.72 286.93 417.70 315.95 C 380.87 327.61 345.04 296.11 308.74 308.72 C 295.09 345.23 329.70 383.13 314.34 419.30 C 284.77 434.04 252.15 419.48 220.99 423.02 C 213.01 426.20 200.84 428.72 204.15 440.35 C 206.16 474.17 235.84 501.94 228.90 537.23 C 198.10 562.23 152.72 540.73 122.32 565.28 C 121.53 604.07 163.52 627.79 162.87 666.82 C 137.61 697.26 88.44 682.59 62.12 711.52 C 66.06 750.30 113.25 768.42 117.29 807.23 C 95.24 839.51 46.39 833.83 25.07 866.25 C 34.57 903.83 83.43 913.02 94.32 950.48 C 79.64 987.11 28.79 988.82 12.43 1024.22 C 27.89 1060.27 79.43 1062.16 94.47 1098.58 C 83.47 1135.97 34.69 1145.38 25.07 1182.81 C 46.03 1215.49 96.46 1209.80 117.53 1242.87 C 111.71 1275.30 81.69 1293.92 65.82 1320.87 C 64.05 1328.00 58.25 1338.12 67.33 1342.66 C 94.86 1364.19 136.59 1354.94 162.30 1380.88 C 165.21 1419.95 122.18 1444.86 122.13 1483.57 C 152.00 1509.98 199.99 1486.17 229.12 1513.47 C 236.06 1551.56 198.93 1581.44 205.21 1619.15 C 238.66 1639.98 282.16 1609.84 315.68 1631.47 C 328.22 1668.26 295.84 1704.08 308.63 1740.27 C 345.05 1754.86 382.94 1718.99 419.05 1734.98 C 438.08 1769.16 410.01 1810.05 429.53 1843.72 C 468.13 1851.28 499.32 1811.24 537.75 1820.82 C 561.43 1851.79 541.48 1895.85 564.79 1926.51 C 604.05 1928.52 628.95 1884.15 668.27 1886.75 C 696.10 1914.18 683.73 1960.71 711.36 1987.62 C 750.37 1983.21 767.44 1936.48 806.75 1932.00 C 839.89 1953.67 833.67 2003.01 866.20 2024.65 C 903.99 2014.77 913.28 1964.36 951.73 1955.17 C 987.54 1971.28 989.15 2021.53 1024.90 2036.89 C 1060.47 2021.09 1061.80 1970.60 1098.04 1955.05 C 1135.69 1965.71 1145.61 2013.61 1182.89 2024.66 C 1213.24 2004.35 1209.65 1960.09 1236.92 1936.92 C 1242.99 1926.38 1254.18 1937.09 1262.56 1938.38 C 1289.11 1952.09 1306.04 1983.97 1337.63 1987.62 C 1365.70 1960.80 1352.54 1913.54 1381.60 1886.81 C 1420.82 1884.23 1445.23 1928.52 1484.21 1926.66 C 1509.02 1896.12 1486.71 1848.89 1513.62 1819.84 C 1551.56 1813.57 1581.47 1850.65 1619.17 1843.69 C 1639.86 1810.56 1609.95 1766.35 1631.71 1733.62 C 1668.33 1720.74 1704.32 1754.06 1740.54 1740.53 C 1753.59 1704.03 1720.35 1668.08 1734.12 1631.23 C 1767.42 1610.39 1810.22 1639.81 1843.72 1619.45 C 1850.71 1581.36 1812.64 1551.35 1819.86 1512.89 C 1850.37 1487.20 1895.73 1508.09 1926.67 1484.38 C 1928.05 1445.39 1885.45 1421.42 1886.26 1382.12 C 1912.24 1352.66 1960.75 1366.13 1987.59 1337.84 C 1982.92 1298.95 1936.28 1281.67 1932.04 1242.23 C 1954.33 1210.35 2001.75 1214.66 2024.59 1183.69 C 2015.09 1145.71 1965.06 1136.24 1955.08 1098.04 C 1970.52 1061.85 2021.11 1060.40 2036.83 1024.92 C 2021.88 988.58 1969.90 988.04 1955.05 950.99 C 1965.41 913.14 2014.65 903.80 2024.59 866.24 C 2002.86 833.75 1953.43 839.99 1932.00 806.66 C 1935.57 767.30 1984.14 750.71 1986.70 711.76 C 1961.02 682.90 1911.47 696.78 1886.33 666.96 C 1885.92 628.08 1927.43 604.03 1926.75 565.65 C 1896.99 539.88 1849.58 562.54 1819.99 536.53 C 1813.05 498.17 1850.60 467.86 1843.71 429.80 C 1813.64 410.92 1776.33 435.26 1744.67 422.40 C 1738.96 420.96 1730.64 419.77 1732.33 411.57 C 1723.12 376.86 1753.94 342.97 1740.37 308.65 C 1703.87 295.09 1666.74 329.52 1630.33 314.76 C 1611.26 280.47 1639.45 238.96 1619.41 205.29 C 1581.42 199.12 1551.42 235.57 1513.12 229.92 C 1486.98 200.33 1508.61 153.57 1484.32 122.97 C 1445.07 121.08 1421.03 164.47 1381.42 162.86 C 1360.96 142.84 1361.78 113.32 1353.02 87.97 C 1351.19 74.67 1339.63 55.38 1324.09 64.86 C 1294.63 78.28 1276.74 111.87 1243.02 117.54 C 1209.26 97.10 1215.96 45.96 1182.83 25.10 C 1145.16 34.86 1135.61 85.16 1097.40 94.51 C 1061.97 77.54 1059.89 28.21 1024.21 12.39 Z" />
<path fill="#808080" opacity="1.00" d=" M 1024.21 12.39 C 1059.89 28.21 1061.97 77.54 1097.40 94.51 C 1135.61 85.16 1145.16 34.86 1182.83 25.10 C 1215.96 45.96 1209.26 97.10 1243.02 117.54 C 1276.74 111.87 1294.63 78.28 1324.09 64.86 C 1339.63 55.38 1351.19 74.67 1353.02 87.97 C 1361.78 113.32 1360.96 142.84 1381.42 162.86 C 1421.03 164.47 1445.07 121.08 1484.32 122.97 C 1508.61 153.57 1486.98 200.33 1513.12 229.92 C 1551.42 235.57 1581.42 199.12 1619.41 205.29 C 1639.45 238.96 1611.26 280.47 1630.33 314.76 C 1666.74 329.52 1703.87 295.09 1740.37 308.65 C 1753.94 342.97 1723.12 376.86 1732.33 411.57 C 1730.64 419.77 1738.96 420.96 1744.67 422.40 C 1776.33 435.26 1813.64 410.92 1843.71 429.80 C 1850.60 467.86 1813.05 498.17 1819.99 536.53 C 1849.58 562.54 1896.99 539.88 1926.75 565.65 C 1927.43 604.03 1885.92 628.08 1886.33 666.96 C 1911.47 696.78 1961.02 682.90 1986.70 711.76 C 1984.14 750.71 1935.57 767.30 1932.00 806.66 C 1953.43 839.99 2002.86 833.75 2024.59 866.24 C 2014.65 903.80 1965.41 913.14 1955.05 950.99 C 1969.90 988.04 2021.88 988.58 2036.83 1024.92 C 2021.11 1060.40 1970.52 1061.85 1955.08 1098.04 C 1965.06 1136.24 2015.09 1145.71 2024.59 1183.69 C 2001.75 1214.66 1954.33 1210.35 1932.04 1242.23 C 1936.28 1281.67 1982.92 1298.95 1987.59 1337.84 C 1960.75 1366.13 1912.24 1352.66 1886.26 1382.12 C 1885.45 1421.42 1928.05 1445.39 1926.67 1484.38 C 1895.73 1508.09 1850.37 1487.20 1819.86 1512.89 C 1812.64 1551.35 1850.71 1581.36 1843.72 1619.45 C 1810.22 1639.81 1767.42 1610.39 1734.12 1631.23 C 1720.35 1668.08 1753.59 1704.03 1740.54 1740.53 C 1704.32 1754.06 1668.33 1720.74 1631.71 1733.62 C 1609.95 1766.35 1639.86 1810.56 1619.17 1843.69 C 1581.47 1850.65 1551.56 1813.57 1513.62 1819.84 C 1486.71 1848.89 1509.02 1896.12 1484.21 1926.66 C 1445.23 1928.52 1420.82 1884.23 1381.60 1886.81 C 1352.54 1913.54 1365.70 1960.80 1337.63 1987.62 C 1306.04 1983.97 1289.11 1952.09 1262.56 1938.38 C 1254.18 1937.09 1242.99 1926.38 1236.92 1936.92 C 1209.65 1960.09 1213.24 2004.35 1182.89 2024.66 C 1145.61 2013.61 1135.69 1965.71 1098.04 1955.05 C 1061.80 1970.60 1060.47 2021.09 1024.90 2036.89 C 989.15 2021.53 987.54 1971.28 951.73 1955.17 C 913.28 1964.36 903.99 2014.77 866.20 2024.65 C 833.67 2003.01 839.89 1953.67 806.75 1932.00 C 767.44 1936.48 750.37 1983.21 711.36 1987.62 C 683.73 1960.71 696.10 1914.18 668.27 1886.75 C 628.95 1884.15 604.05 1928.52 564.79 1926.51 C 541.48 1895.85 561.43 1851.79 537.75 1820.82 C 499.32 1811.24 468.13 1851.28 429.53 1843.72 C 410.01 1810.05 438.08 1769.16 419.05 1734.98 C 382.94 1718.99 345.05 1754.86 308.63 1740.27 C 295.84 1704.08 328.22 1668.26 315.68 1631.47 C 282.16 1609.84 238.66 1639.98 205.21 1619.15 C 198.93 1581.44 236.06 1551.56 229.12 1513.47 C 199.99 1486.17 152.00 1509.98 122.13 1483.57 C 122.18 1444.86 165.21 1419.95 162.30 1380.88 C 136.59 1354.94 94.86 1364.19 67.33 1342.66 C 58.25 1338.12 64.05 1328.00 65.82 1320.87 C 81.69 1293.92 111.71 1275.30 117.53 1242.87 C 96.46 1209.80 46.03 1215.49 25.07 1182.81 C 34.69 1145.38 83.47 1135.97 94.47 1098.58 C 79.43 1062.16 27.89 1060.27 12.43 1024.22 C 28.79 988.82 79.64 987.11 94.32 950.48 C 83.43 913.02 34.57 903.83 25.07 866.25 C 46.39 833.83 95.24 839.51 117.29 807.23 C 113.25 768.42 66.06 750.30 62.12 711.52 C 88.44 682.59 137.61 697.26 162.87 666.82 C 163.52 627.79 121.53 604.07 122.32 565.28 C 152.72 540.73 198.10 562.23 228.90 537.23 C 235.84 501.94 206.16 474.17 204.15 440.35 C 200.84 428.72 213.01 426.20 220.99 423.02 C 252.15 419.48 284.77 434.04 314.34 419.30 C 329.70 383.13 295.09 345.23 308.74 308.72 C 345.04 296.11 380.87 327.61 417.70 315.95 C 435.72 286.93 418.38 251.19 423.47 219.51 C 425.58 202.13 445.42 201.40 458.28 207.77 C 484.12 215.99 507.60 233.10 535.93 229.87 C 562.13 200.15 540.33 152.83 565.37 122.16 C 603.90 121.94 627.82 163.30 666.79 162.89 C 696.94 137.95 682.81 89.89 710.39 63.21 C 715.23 60.51 722.14 64.70 727.53 65.38 C 754.93 80.98 773.41 111.61 806.13 117.53 C 839.80 96.89 833.50 46.39 866.28 25.00 C 903.89 34.94 913.22 84.09 951.16 94.33 C 987.29 79.19 988.81 28.54 1024.21 12.39 M 988.57 183.56 C 785.62 191.45 586.60 276.23 441.27 418.26 C 325.65 528.46 242.87 672.60 206.02 828.02 C 170.89 972.69 175.88 1126.71 218.83 1269.17 C 283.37 1484.66 438.89 1670.54 638.99 1773.02 C 772.11 1841.83 923.99 1874.72 1073.64 1864.56 C 1285.14 1853.91 1490.81 1758.02 1635.34 1603.35 C 1783.61 1449.23 1868.61 1235.88 1866.01 1021.96 C 1866.56 820.15 1790.62 619.35 1656.35 468.64 C 1491.92 279.28 1239.21 170.99 988.57 183.56 Z" />
<path fill="#111111" opacity="0.93" d=" M 988.57 183.56 C 1239.21 170.99 1491.92 279.28 1656.35 468.64 C 1790.62 619.35 1866.56 820.15 1866.01 1021.96 C 1868.61 1235.88 1783.61 1449.23 1635.34 1603.35 C 1490.81 1758.02 1285.14 1853.91 1073.64 1864.56 C 923.99 1874.72 772.11 1841.83 638.99 1773.02 C 438.89 1670.54 283.37 1484.66 218.83 1269.17 C 175.88 1126.71 170.89 972.69 206.02 828.02 C 242.87 672.60 325.65 528.46 441.27 418.26 C 586.60 276.23 785.62 191.45 988.57 183.56 M 994.44 193.40 C 919.61 196.56 844.97 208.70 773.59 231.61 C 551.96 300.47 363.86 467.87 268.04 679.04 C 164.18 903.31 168.18 1174.44 280.01 1395.00 C 388.27 1615.51 599.48 1782.42 839.48 1835.50 C 1105.30 1898.03 1399.85 1818.38 1596.23 1628.23 C 1698.20 1532.32 1775.44 1409.99 1817.34 1276.34 C 1887.22 1059.52 1861.90 813.95 1748.90 616.10 C 1672.01 478.96 1554.73 364.94 1416.16 290.84 C 1287.49 221.80 1140.31 188.10 994.44 193.40 Z" />
<path fill="#808080" opacity="1.00" d=" M 994.44 193.40 C 1140.31 188.10 1287.49 221.80 1416.16 290.84 C 1554.73 364.94 1672.01 478.96 1748.90 616.10 C 1861.90 813.95 1887.22 1059.52 1817.34 1276.34 C 1775.44 1409.99 1698.20 1532.32 1596.23 1628.23 C 1399.85 1818.38 1105.30 1898.03 839.48 1835.50 C 599.48 1782.42 388.27 1615.51 280.01 1395.00 C 168.18 1174.44 164.18 903.31 268.04 679.04 C 363.86 467.87 551.96 300.47 773.59 231.61 C 844.97 208.70 919.61 196.56 994.44 193.40 M 1016.52 200.39 C 968.38 202.19 920.60 217.33 881.13 245.13 C 808.56 294.12 764.73 383.20 772.25 470.69 C 776.36 550.50 822.48 625.86 890.07 667.93 C 940.00 699.65 1001.55 713.04 1060.11 704.09 C 1134.27 694.31 1202.47 648.98 1240.92 584.93 C 1276.95 527.07 1286.80 454.37 1269.35 388.65 C 1241.79 277.51 1131.09 194.58 1016.52 200.39 M 513.54 486.48 C 433.78 490.95 358.21 536.32 315.93 603.93 C 282.26 656.50 269.54 721.81 280.77 783.23 C 296.14 877.37 370.04 958.23 461.99 983.02 C 551.50 1008.89 654.13 979.80 716.30 910.30 C 765.39 857.68 790.19 783.05 781.45 711.52 C 775.45 650.65 745.61 592.68 700.12 551.89 C 650.32 505.87 581.19 481.55 513.54 486.48 M 1502.54 486.48 C 1438.33 490.59 1376.06 520.07 1332.89 567.89 C 1281.94 622.77 1257.18 701.08 1268.77 775.22 C 1281.40 873.66 1358.22 959.26 1454.17 983.83 C 1520.76 1001.76 1594.65 990.78 1653.01 954.02 C 1727.92 908.20 1775.80 821.05 1772.07 733.04 C 1771.75 636.60 1709.08 544.99 1620.81 507.21 C 1583.79 491.03 1542.91 483.34 1502.54 486.48 M 1007.59 714.57 C 953.89 717.41 900.91 734.45 855.87 763.87 C 780.19 812.47 727.82 895.16 716.41 984.40 C 703.35 1082.93 740.42 1186.91 814.61 1253.39 C 879.00 1313.27 969.92 1343.81 1057.41 1333.40 C 1142.68 1325.09 1223.30 1279.00 1273.88 1209.87 C 1322.60 1145.34 1344.10 1061.00 1332.01 980.99 C 1320.62 893.55 1268.68 813.07 1195.05 764.95 C 1140.07 728.90 1073.32 710.33 1007.59 714.57 M 515.58 1057.53 C 406.31 1061.95 306.79 1145.73 283.49 1252.48 C 258.01 1354.03 304.32 1467.67 392.90 1523.10 C 453.79 1563.18 532.31 1573.75 602.04 1553.06 C 679.30 1530.50 743.88 1468.80 769.41 1392.41 C 800.87 1303.93 777.19 1198.75 710.31 1132.69 C 660.24 1081.17 587.30 1052.84 515.58 1057.53 M 1505.58 1057.58 C 1418.01 1061.36 1334.74 1114.86 1294.99 1193.00 C 1252.54 1271.82 1257.24 1373.56 1307.01 1448.00 C 1353.47 1520.72 1439.45 1566.99 1525.98 1563.05 C 1578.01 1562.42 1629.37 1544.02 1670.97 1512.97 C 1734.23 1466.02 1773.89 1388.02 1772.11 1308.99 C 1772.69 1241.30 1743.66 1173.98 1694.28 1127.72 C 1644.89 1079.43 1574.55 1052.99 1505.58 1057.58 M 1004.54 1343.45 C 910.04 1349.90 822.78 1414.49 789.00 1503.00 C 748.89 1601.06 779.19 1722.49 861.60 1789.40 C 942.18 1859.70 1068.02 1868.48 1158.02 1811.03 C 1228.32 1768.08 1274.80 1688.91 1277.58 1606.54 C 1281.53 1524.33 1242.52 1441.66 1176.00 1393.00 C 1127.40 1356.36 1065.22 1338.39 1004.54 1343.45 Z" />
<path fill="#111111" opacity="0.93" d=" M 1016.52 200.39 C 1131.09 194.58 1241.79 277.51 1269.35 388.65 C 1286.80 454.37 1276.95 527.07 1240.92 584.93 C 1202.47 648.98 1134.27 694.31 1060.11 704.09 C 1001.55 713.04 940.00 699.65 890.07 667.93 C 822.48 625.86 776.36 550.50 772.25 470.69 C 764.73 383.20 808.56 294.12 881.13 245.13 C 920.60 217.33 968.38 202.19 1016.52 200.39 M 1003.60 211.57 C 960.26 214.78 918.26 230.75 882.97 255.97 C 794.15 317.34 757.24 441.10 797.87 541.13 C 825.86 615.77 893.49 673.78 971.32 690.66 C 1049.52 708.49 1136.24 685.03 1193.28 628.28 C 1243.59 580.33 1272.20 509.61 1266.92 440.07 C 1265.04 389.84 1245.68 340.78 1214.36 301.64 C 1164.87 239.09 1083.22 203.44 1003.60 211.57 Z" />
<path fill="#111111" opacity="0.93" d=" M 513.54 486.48 C 581.19 481.55 650.32 505.87 700.12 551.89 C 745.61 592.68 775.45 650.65 781.45 711.52 C 790.19 783.05 765.39 857.68 716.30 910.30 C 654.13 979.80 551.50 1008.89 461.99 983.02 C 370.04 958.23 296.14 877.37 280.77 783.23 C 269.54 721.81 282.26 656.50 315.93 603.93 C 358.21 536.32 433.78 490.95 513.54 486.48 M 516.57 496.54 C 433.42 500.03 354.78 550.52 315.94 623.93 C 282.39 685.11 277.66 761.01 303.02 825.98 C 331.11 901.35 399.56 960.41 478.43 976.55 C 558.98 994.78 648.16 968.10 704.79 907.79 C 775.98 836.54 793.71 719.15 747.03 629.96 C 705.77 545.03 610.86 489.76 516.57 496.54 Z" />
<path fill="#111111" opacity="0.93" d=" M 1502.54 486.48 C 1542.91 483.34 1583.79 491.03 1620.81 507.21 C 1709.08 544.99 1771.75 636.60 1772.07 733.04 C 1775.80 821.05 1727.92 908.20 1653.01 954.02 C 1594.65 990.78 1520.76 1001.76 1454.17 983.83 C 1358.22 959.26 1281.40 873.66 1268.77 775.22 C 1257.18 701.08 1281.94 622.77 1332.89 567.89 C 1376.06 520.07 1438.33 490.59 1502.54 486.48 M 1505.57 496.54 C 1434.57 499.90 1366.08 536.78 1324.17 594.18 C 1263.15 673.76 1260.39 791.37 1317.01 873.99 C 1362.94 943.84 1447.03 986.93 1530.68 981.74 C 1607.11 979.08 1680.25 936.90 1722.08 873.08 C 1759.70 817.14 1771.57 745.23 1755.03 679.97 C 1729.41 569.80 1618.66 487.43 1505.57 496.54 Z" />
<path fill="#111111" opacity="0.93" d=" M 1007.59 714.57 C 1073.32 710.33 1140.07 728.90 1195.05 764.95 C 1268.68 813.07 1320.62 893.55 1332.01 980.99 C 1344.10 1061.00 1322.60 1145.34 1273.88 1209.87 C 1223.30 1279.00 1142.68 1325.09 1057.41 1333.40 C 969.92 1343.81 879.00 1313.27 814.61 1253.39 C 740.42 1186.91 703.35 1082.93 716.41 984.40 C 727.82 895.16 780.19 812.47 855.87 763.87 C 900.91 734.45 953.89 717.41 1007.59 714.57 M 1011.60 724.57 C 922.22 727.71 835.66 773.77 783.10 846.10 C 735.82 909.16 715.06 991.53 727.59 1069.41 C 742.23 1175.80 819.50 1270.26 920.46 1306.55 C 1005.74 1338.78 1105.88 1328.60 1183.01 1280.00 C 1273.99 1224.73 1331.03 1117.83 1324.67 1011.35 C 1321.48 915.85 1268.61 824.17 1188.26 772.74 C 1136.31 738.90 1073.59 721.26 1011.60 724.57 Z" />
<path fill="#808080" opacity="1.00" d=" M 1011.60 724.57 C 1073.59 721.26 1136.31 738.90 1188.26 772.74 C 1268.61 824.17 1321.48 915.85 1324.67 1011.35 C 1331.03 1117.83 1273.99 1224.73 1183.01 1280.00 C 1105.88 1328.60 1005.74 1338.78 920.46 1306.55 C 819.50 1270.26 742.23 1175.80 727.59 1069.41 C 715.06 991.53 735.82 909.16 783.10 846.10 C 835.66 773.77 922.22 727.71 1011.60 724.57 M 1009.56 816.44 C 933.30 821.07 862.63 871.69 832.94 941.94 C 806.98 1000.89 810.87 1072.07 843.20 1127.80 C 879.77 1193.56 954.45 1236.58 1029.91 1233.10 C 1093.27 1232.51 1154.68 1200.01 1192.19 1149.19 C 1250.72 1073.44 1245.95 957.38 1181.24 886.76 C 1139.11 838.27 1073.66 811.22 1009.56 816.44 Z" />
<path fill="#111111" opacity="0.93" d=" M 1009.56 816.44 C 1073.66 811.22 1139.11 838.27 1181.24 886.76 C 1245.95 957.38 1250.72 1073.44 1192.19 1149.19 C 1154.68 1200.01 1093.27 1232.51 1029.91 1233.10 C 954.45 1236.58 879.77 1193.56 843.20 1127.80 C 810.87 1072.07 806.98 1000.89 832.94 941.94 C 862.63 871.69 933.30 821.07 1009.56 816.44 M 1012.57 826.51 C 959.85 829.27 908.81 854.39 874.65 894.65 C 833.56 940.84 816.77 1007.13 830.63 1067.37 C 847.19 1148.37 919.69 1213.80 1001.96 1222.08 C 1061.96 1228.96 1124.78 1207.43 1166.49 1163.49 C 1209.44 1120.52 1230.39 1056.88 1221.22 996.76 C 1209.68 897.24 1112.46 817.73 1012.57 826.51 Z" />
<path fill="#111111" opacity="0.93" d=" M 515.58 1057.53 C 587.30 1052.84 660.24 1081.17 710.31 1132.69 C 777.19 1198.75 800.87 1303.93 769.41 1392.41 C 743.88 1468.80 679.30 1530.50 602.04 1553.06 C 532.31 1573.75 453.79 1563.18 392.90 1523.10 C 304.32 1467.67 258.01 1354.03 283.49 1252.48 C 306.79 1145.73 406.31 1061.95 515.58 1057.53 M 520.48 1067.36 C 428.04 1069.89 340.99 1130.43 305.89 1215.88 C 280.52 1275.25 280.72 1344.81 305.75 1404.25 C 348.30 1510.44 471.86 1575.16 583.40 1547.39 C 661.04 1530.61 728.10 1472.57 756.45 1398.46 C 782.25 1333.91 777.61 1258.27 745.02 1196.98 C 703.25 1115.45 612.03 1062.63 520.48 1067.36 Z" />
<path fill="#111111" opacity="0.93" d=" M 1505.58 1057.58 C 1574.55 1052.99 1644.89 1079.43 1694.28 1127.72 C 1743.66 1173.98 1772.69 1241.30 1772.11 1308.99 C 1773.89 1388.02 1734.23 1466.02 1670.97 1512.97 C 1629.37 1544.02 1578.01 1562.42 1525.98 1563.05 C 1439.45 1566.99 1353.47 1520.72 1307.01 1448.00 C 1257.24 1373.56 1252.54 1271.82 1294.99 1193.00 C 1334.74 1114.86 1418.01 1061.36 1505.58 1057.58 M 1509.48 1067.37 C 1466.98 1069.31 1424.85 1081.92 1389.04 1105.04 C 1312.37 1152.54 1266.77 1245.67 1277.63 1335.39 C 1285.46 1422.73 1345.58 1502.58 1426.90 1535.09 C 1522.57 1576.24 1642.64 1545.94 1707.25 1464.25 C 1753.33 1409.06 1772.00 1332.82 1757.58 1262.44 C 1737.10 1148.32 1625.26 1060.30 1509.48 1067.37 Z" />
<path fill="#111111" opacity="0.93" d=" M 1004.54 1343.45 C 1065.22 1338.39 1127.40 1356.36 1176.00 1393.00 C 1242.52 1441.66 1281.53 1524.33 1277.58 1606.54 C 1274.80 1688.91 1228.32 1768.08 1158.02 1811.03 C 1068.02 1868.48 942.18 1859.70 861.60 1789.40 C 779.19 1722.49 748.89 1601.06 789.00 1503.00 C 822.78 1414.49 910.04 1349.90 1004.54 1343.45 M 1007.55 1353.48 C 887.37 1359.04 783.03 1466.67 781.95 1587.05 C 778.82 1655.45 806.67 1724.50 856.71 1771.28 C 921.97 1835.98 1025.61 1856.46 1110.98 1822.98 C 1170.27 1801.05 1219.56 1754.14 1245.75 1696.77 C 1279.84 1623.80 1273.60 1533.67 1230.02 1465.98 C 1184.02 1391.42 1095.00 1346.03 1007.55 1353.48 Z" />
</svg>
