<?xml version="1.0"?>
<svg xmlns:rdf="http://www.w3.org/1999/02/22-rdf-syntax-ns#" xmlns="http://www.w3.org/2000/svg" xmlns:cc="http://web.resource.org/cc/" xmlns:xlink="http://www.w3.org/1999/xlink" xmlns:dc="http://purl.org/dc/elements/1.1/" xmlns:svg="http://www.w3.org/2000/svg" id="Layer_1" xml:space="preserve" overflow="visible" viewBox="0 0 360.869 306.978" version="1.1" enable-background="new 0 0 360.869 306.978">
	<path fill-rule="evenodd" clip-rule="evenodd" d="m219.39 180.98c19.346 19.517 51.119 37.697 88.988 35.996 17.727-0.797 30.779-9.363 46.994-6 4.329 16.94-16.345 21.285-24.997 28.997-18.013 16.055-28.029 32.051-57.992 39.995-8.256 2.188-15.59-0.509-25.997 1.999-11.025 2.657-19.273 17.733-31.996 21.998-7.383 2.474-23.572 3.677-35.995 1.999-3.739-0.505-10.455-4.213-13.999-4.999-22.578-5.006-38.386 5.665-60.992 5.999-17.776 0.263-37.945-2.758-33.996-20.997 5.763-9.764 16.375-6.721 27.996-6.999 23.342-0.559 49.767-7.692 64.992-18.998-2.052-8.356-9.702-11.702-14.998-15.998-11.564-9.38-19.827-16.219-30.996-30.996-3.222-4.263-8.312-16.831-13.999-16.998-7.554-0.222-14.317 19.371-18.998 26.997-13.535 22.052-21.665 33.663-39.995 51.993-6.649 6.65-17.001 19.323-25.997 19.998-6.326 0.474-15.179-2.677-16.998-10.999-2.549-11.662 7.236-22.464 11.999-29.996 6.221-9.838 11.768-16.615 16.998-24.997-6.917-14.869 2.791-20.18 7.999-28.996 13.285-22.493 12.428-56.397 0-77.99-4.57-7.94-12.886-15.226-5-25.997-4.228-7.337-11.301-13.78-15.998-22.997-5.2-10.204-15.421-36.531 0-39.995 10.042-2.255 18.995 7.808 25.997 13.999 19.632 17.342 40.413 45.373 51.018 69 3.167 7.057 2.573 19.785 11.998 19.998 8.373 0.188 9.312-12.508 12.999-18.998 12.161-21.405 33.015-39.784 52.994-54.993 0.456-5.814-8.119-7.847-4-13.998 6.203-8.129 25.289-3.374 32.996-9.999-1.089-10.117-16.668-1.836-15.998-11.999 0.938-14.235 35.984 1.551 39.995-8.999-3.071-9.755-14.844-1.592-14.998-10.999-0.082-5.014 5.116-5.955 13.998-5.999 32.839-0.163 55.296 9.76 71.991 27.997 8.284 9.049 10.823 21.861 17.998 34.996 7.778 14.241 21.852 25.941 29.996 41.995 11.58 22.828 30.641 70.545 3.999 88.989-35.553 24.613-91.897 5.099-111.98-12.999-4.702-4.235-14.588-24.302-21.998-21.997-11.43 3.56 1.14 17.35 6 22zm-10-119.99c-0.261 1.406-2.193 1.14-3 2-7.358 15.427-15.573 36.097-17.997 56.993-0.776 6.685-3.344 16.549 1.999 21.998 8.646-0.637 5.407-10.437 6-15.998 2.743-25.756 13.61-45.686 17.997-63.992-2.41 0.405-2.17-1.83-5-1.004zm60.99 15.998c-17.448-0.578-15.37 35.811-9.999 50.994 4.549-10.517 21.905-15.237 35.996-9.999-5.67-13.96-10.12-40.472-26-40.998zm-118.98 22.997c-3.637 6.042-7.176 16.139-9.999 25.997-2.276 7.95-8.753 22.603 1 26.997 4.224-15.48 6.54-37.832 13.998-52.994-0.211-1.122-1.109-1.557-2-2-0.26 1.4-2.2 1.133-3 1.993zm118.98 55.991c0.902 5.265 10.273 16.404 17.998 14.999 11.599-2.111 12.227-26.896 9.999-41.995-14.48-2.07-30.82 10.52-28 27z" fill="#4E8ABE"/>
<metadata><rdf:RDF><cc:Work><dc:format>image/svg+xml</dc:format><dc:type rdf:resource="http://purl.org/dc/dcmitype/StillImage"/><cc:license rdf:resource="http://creativecommons.org/licenses/publicdomain/"/><dc:publisher><cc:Agent rdf:about="http://openclipart.org/"><dc:title>Openclipart</dc:title></cc:Agent></dc:publisher><dc:title>fish icon</dc:title><dc:date>2006-12-19T11:55:16</dc:date><dc:description>a cartoon silhouette of a tropical fish from a U.S. patent drawing</dc:description><dc:source>http://openclipart.org/detail/2151/fish-icon-by-johnny_automatic</dc:source><dc:creator><cc:Agent><dc:title>johnny_automatic</dc:title></cc:Agent></dc:creator><dc:subject><rdf:Bag><rdf:li>animal</rdf:li><rdf:li>cartoon</rdf:li><rdf:li>clip art</rdf:li><rdf:li>clipart</rdf:li><rdf:li>externalsource</rdf:li><rdf:li>fish</rdf:li><rdf:li>image</rdf:li><rdf:li>media</rdf:li><rdf:li>ocean</rdf:li><rdf:li>png</rdf:li><rdf:li>public domain</rdf:li><rdf:li>silhouette</rdf:li><rdf:li>svg</rdf:li><rdf:li>tropical</rdf:li><rdf:li>uspto</rdf:li></rdf:Bag></dc:subject></cc:Work><cc:License rdf:about="http://creativecommons.org/licenses/publicdomain/"><cc:permits rdf:resource="http://creativecommons.org/ns#Reproduction"/><cc:permits rdf:resource="http://creativecommons.org/ns#Distribution"/><cc:permits rdf:resource="http://creativecommons.org/ns#DerivativeWorks"/></cc:License></rdf:RDF></metadata></svg>
