<?xml version="1.0" encoding="UTF-8" standalone="no"?>
<!-- Generator: Adobe Illustrator 15.0.0, SVG Export Plug-In . SVG Version: 6.00 Build 0)  -->
<svg xmlns:dc="http://purl.org/dc/elements/1.1/" xmlns:cc="http://creativecommons.org/ns#" xmlns:rdf="http://www.w3.org/1999/02/22-rdf-syntax-ns#" xmlns:svg="http://www.w3.org/2000/svg" xmlns="http://www.w3.org/2000/svg" xmlns:sodipodi="http://sodipodi.sourceforge.net/DTD/sodipodi-0.dtd" xmlns:inkscape="http://www.inkscape.org/namespaces/inkscape" version="1.1" id="Ebene_1" x="0px" y="0px" width="500" height="300" viewBox="0 0 500 299.99999" enable-background="new 0 0 493.229 189.921" xml:space="preserve" sodipodi:docname="open_educational_ressources.svg" inkscape:version="0.92.3 (2405546, 2018-03-11)"><metadata id="metadata41"><rdf:RDF><cc:Work rdf:about=""><dc:format>image/svg+xml</dc:format><dc:type rdf:resource="http://purl.org/dc/dcmitype/StillImage"/><dc:title/></cc:Work></rdf:RDF></metadata><defs id="defs39"/><sodipodi:namedview pagecolor="#ffffff" bordercolor="#666666" borderopacity="1" objecttolerance="10" gridtolerance="10" guidetolerance="10" inkscape:pageopacity="0" inkscape:pageshadow="2" inkscape:window-width="1622" inkscape:window-height="852" id="namedview37" showgrid="false" inkscape:zoom="0.79273521" inkscape:cx="-45.579079" inkscape:cy="94.960503" inkscape:window-x="0" inkscape:window-y="0" inkscape:window-maximized="0" inkscape:current-layer="Ebene_1"/>












<g id="g816" transform="translate(16.398918,-42.086234)"><rect style="fill:#b3001f" id="rect2" height="73.153" width="44.936001" y="174.88901" x="322.07999"/><path style="fill:#dc931a" inkscape:connector-curvature="0" id="path4" d="m 0,154.984 c 0,52.41499 42.491,94.90499 94.905,94.90499 52.414,0 94.905,-42.49 94.905,-94.90499 z"/><path style="fill:#b3001f" inkscape:connector-curvature="0" id="path6" d="M 94.905,60.079004 V 154.984 h 94.905 v 0 C 189.811,102.57 147.32,60.079004 94.905,60.079004 Z"/><path style="fill:#003a61" inkscape:connector-curvature="0" id="path8" d="m 95.287,60.084004 c -0.128,0 -0.254,-0.005 -0.382,-0.005 C 42.491,60.079004 0,102.57 0,154.984 v 0 h 95.287 z"/><path style="fill:#003a61" inkscape:connector-curvature="0" id="path10" d="m 198.176,62.032004 m 45.156,108.699986 h -45.156 v 0.01 h 45.156 z m 0,-74.457985 -45.156,-34.242001 V 170.73199 L 243.332,136.429 Z"/><rect style="fill:#b3001f" id="rect12" height="43.066002" width="45.151001" y="170.73001" x="198.17599"/><rect style="fill:#003a61" id="rect14" height="34.243999" width="112.226" y="213.79799" x="198.17599"/><polygon transform="translate(0,60.079004)" style="fill:#b3001f" id="polygon16" points="310.405,1.957 198.176,1.953 243.332,36.195 310.405,36.195 "/><polygon transform="translate(0,60.079004)" style="fill:#dc931a" id="polygon18" points="302.191,110.682 198.144,110.682 243.327,76.35 302.191,76.358 "/><path style="fill:#003a61" inkscape:connector-curvature="0" id="path20" d="m 463.432,120.55701 c 0,-16.151 -5.981,-29.943005 -17.941,-41.377005 C 433.646,67.864004 417.146,62.157004 395.998,62.044004 v -0.012 h -0.635 -0.006 l -72.976,0.02 -0.303,-0.008 0.219,67.024996 -0.219,45.82199 50.399,0.013 50.442,-0.027 v 0 c 13.995,-4.41 24.462,-11.765 30.748,-21.92899 6.508,-10.523 9.765,-21.321 9.765,-32.39099"/><polygon transform="translate(0,60.079004)" style="fill:#dc931a" id="polygon34" points="372.479,114.829 414.177,187.953 466.982,187.953 422.921,114.801 "/></g>
<g transform="matrix(2.2514339,0,0,2.0665482,-224.87942,-285.69664)" id="g730"><g id="g1552" style="fill:#0f1e51;fill-opacity:1"/><g id="g1217" transform="matrix(1,0,0,1.1192268,-3.8050842e-8,-33.034846)"><g style="fill:#0f1e51;fill-opacity:1" id="g1556"><g transform="translate(102.2874,273.76309)" id="use1560"><path style="stroke:none" d="" id="path994" inkscape:connector-curvature="0"/></g><g transform="translate(106.4154,273.76309)" id="use1562"><path style="stroke:none" d="m 5.859375,-11.3125 c 1.625,0 2.867187,0.484375 3.734375,1.453125 0.875,0.96875 1.3125,2.386719 1.3125,4.25 0,1.855469 -0.4375,3.273437 -1.3125,4.25 -0.867188,0.980469 -2.109375,1.46875 -3.734375,1.46875 -1.636719,0 -2.890625,-0.488281 -3.765625,-1.46875 -0.875,-0.976563 -1.3125,-2.394531 -1.3125,-4.25 0,-1.851563 0.4375,-3.265625 1.3125,-4.234375 0.875,-0.976562 2.128906,-1.46875 3.765625,-1.46875 z m 0,1.78125 c -0.960937,0 -1.6875,0.335938 -2.1875,1 -0.5,0.667969 -0.75,1.640625 -0.75,2.921875 0,1.28125 0.25,2.261719 0.75,2.9375 0.5,0.679687 1.226563,1.015625 2.1875,1.015625 0.945313,0 1.664063,-0.335938 2.15625,-1.015625 0.5,-0.675781 0.75,-1.65625 0.75,-2.9375 0,-1.28125 -0.25,-2.253906 -0.75,-2.921875 -0.492187,-0.664062 -1.210937,-1 -2.15625,-1 z" id="path1042" inkscape:connector-curvature="0"/></g></g><g style="fill:#0f1e51;fill-opacity:1" id="g1564"><g transform="translate(118.3834,273.76309)" id="use1566"><path style="stroke:none" d="m 5.375,-8.484375 c 0.601562,0 1.132812,0.179687 1.59375,0.53125 0.457031,0.34375 0.8125,0.84375 1.0625,1.5 0.257812,0.648437 0.390625,1.40625 0.390625,2.28125 0,1.335937 -0.296875,2.382813 -0.890625,3.140625 C 6.9375,-0.269531 6.117188,0.109375 5.078125,0.109375 4.378906,0.109375 3.757812,-0.09375 3.21875,-0.5 V 2.84375 C 3.21875,3.15625 2.9375,3.3125 2.375,3.3125 H 2.0625 C 1.5,3.3125 1.21875,3.15625 1.21875,2.84375 V -5.703125 C 1.21875,-6.410156 1.1875,-6.925781 1.125,-7.25 1.0625,-7.582031 1.03125,-7.785156 1.03125,-7.859375 c 0,-0.144531 0.171875,-0.253906 0.515625,-0.328125 0.351563,-0.082031 0.664063,-0.125 0.9375,-0.125 0.164063,0 0.285156,0.074219 0.359375,0.21875 0.070312,0.148438 0.128906,0.304688 0.171875,0.46875 0.039063,0.167969 0.066406,0.28125 0.078125,0.34375 0.25,-0.375 0.570312,-0.664062 0.96875,-0.875 C 4.46875,-8.375 4.90625,-8.484375 5.375,-8.484375 Z m -0.546875,1.65625 c -0.304687,0 -0.59375,0.09375 -0.875,0.28125 C 3.679688,-6.367188 3.4375,-6.128906 3.21875,-5.828125 V -1.96875 C 3.632812,-1.65625 4.109375,-1.5 4.640625,-1.5 5.796875,-1.507812 6.375,-2.382812 6.375,-4.125 6.375,-5 6.242188,-5.664062 5.984375,-6.125 5.722656,-6.59375 5.335938,-6.828125 4.828125,-6.828125 Z" id="path1046" inkscape:connector-curvature="0"/></g><g transform="translate(127.8394,273.76309)" id="use1568"><path style="stroke:none" d="m 4.578125,-8.484375 c 1.144531,0 1.992187,0.375 2.546875,1.125 0.5625,0.75 0.84375,1.757813 0.84375,3.015625 0,0.125 -0.09375,0.296875 -0.28125,0.515625 C 7.507812,-3.609375 7.367188,-3.5 7.265625,-3.5 h -4.4375 c 0.050781,0.710938 0.25,1.226562 0.59375,1.546875 0.34375,0.3125 0.832031,0.46875 1.46875,0.46875 0.351563,0 0.664063,-0.039063 0.9375,-0.125 C 6.097656,-1.703125 6.378906,-1.8125 6.671875,-1.9375 6.835938,-2.007812 6.9375,-2.046875 6.96875,-2.046875 c 0.144531,0 0.304688,0.140625 0.484375,0.421875 0.175781,0.273438 0.265625,0.484375 0.265625,0.640625 0,0.199219 -0.15625,0.386719 -0.46875,0.5625 C 6.9375,-0.253906 6.550781,-0.125 6.09375,-0.03125 5.644531,0.0625 5.222656,0.109375 4.828125,0.109375 3.453125,0.109375 2.425781,-0.25 1.75,-0.96875 1.082031,-1.695312 0.75,-2.75 0.75,-4.125 c 0,-1.476562 0.332031,-2.570312 1,-3.28125 C 2.414062,-8.125 3.359375,-8.484375 4.578125,-8.484375 Z M 4.5625,-6.875 c -1,0 -1.578125,0.652344 -1.734375,1.953125 h 3.15625 c 0,-0.625 -0.121094,-1.101563 -0.359375,-1.4375 C 5.394531,-6.703125 5.039062,-6.875 4.5625,-6.875 Z" id="path1014" inkscape:connector-curvature="0"/></g></g><g style="fill:#0f1e51;fill-opacity:1" id="g1570"><g transform="translate(136.71941,273.76309)" id="use1572"><path style="stroke:none" d="m 5.421875,-8.484375 c 1.632813,0 2.453125,0.867187 2.453125,2.59375 v 5.46875 c 0,0.304687 -0.28125,0.453125 -0.84375,0.453125 h -0.3125 c -0.5625,0 -0.84375,-0.148438 -0.84375,-0.453125 v -5.1875 c 0,-0.800781 -0.402344,-1.203125 -1.203125,-1.203125 -0.3125,0 -0.605469,0.101562 -0.875,0.296875 -0.273437,0.1875 -0.496094,0.417969 -0.671875,0.6875 v 5.40625 c 0,0.304687 -0.28125,0.453125 -0.84375,0.453125 h -0.3125 c -0.554688,0 -0.828125,-0.148438 -0.828125,-0.453125 v -5.28125 C 1.140625,-6.410156 1.101562,-6.925781 1.03125,-7.25 0.96875,-7.582031 0.9375,-7.785156 0.9375,-7.859375 c 0,-0.144531 0.175781,-0.253906 0.53125,-0.328125 0.351562,-0.082031 0.664062,-0.125 0.9375,-0.125 0.164062,0 0.285156,0.074219 0.359375,0.21875 0.070313,0.148438 0.125,0.304688 0.15625,0.46875 0.039063,0.167969 0.070313,0.28125 0.09375,0.34375 0.28125,-0.351562 0.632813,-0.640625 1.0625,-0.859375 0.425781,-0.226563 0.875,-0.34375 1.34375,-0.34375 z" id="path958" inkscape:connector-curvature="0"/></g><g transform="translate(145.9194,273.76309)" id="use1574"><path style="stroke:none" d="" id="path998" inkscape:connector-curvature="0"/></g><g transform="translate(150.04739,273.76309)" id="use1576"><path style="stroke:none" d="m 7.59375,-11.203125 c 0.15625,0 0.265625,0.05859 0.328125,0.171875 0.070313,0.105469 0.109375,0.277344 0.109375,0.515625 v 0.40625 c 0,0.242187 -0.039062,0.417969 -0.109375,0.53125 -0.0625,0.105469 -0.171875,0.15625 -0.328125,0.15625 h -4.25 V -6.625 h 3.8125 c 0.144531,0 0.25,0.058594 0.3125,0.171875 0.070312,0.105469 0.109375,0.277344 0.109375,0.515625 v 0.40625 c 0,0.242188 -0.039063,0.417969 -0.109375,0.53125 -0.0625,0.105469 -0.167969,0.15625 -0.3125,0.15625 h -3.8125 v 3.0625 h 4.265625 c 0.15625,0 0.265625,0.058594 0.328125,0.171875 0.070312,0.105469 0.109375,0.277344 0.109375,0.515625 v 0.40625 c 0,0.25 -0.039063,0.429688 -0.109375,0.53125 C 7.875,-0.0507812 7.765625,0 7.609375,0 h -5.75 C 1.648438,0 1.5,-0.0390625 1.40625,-0.125 1.3125,-0.21875 1.265625,-0.367188 1.265625,-0.578125 V -10.625 c 0,-0.195312 0.046875,-0.34375 0.140625,-0.4375 0.09375,-0.09375 0.242188,-0.140625 0.453125,-0.140625 z" id="path1050" inkscape:connector-curvature="0"/></g></g><g style="fill:#0f1e51;fill-opacity:1" id="g1578"><g transform="translate(158.94341,273.76309)" id="use1580"><path style="stroke:none" d="m 7.09375,-12.046875 c 0.550781,0 0.828125,0.152344 0.828125,0.453125 v 8.9375 c 0,0.742188 0.03125,1.277344 0.09375,1.609375 0.0625,0.324219 0.09375,0.523437 0.09375,0.59375 0,0.15625 -0.179687,0.277344 -0.53125,0.359375 -0.34375,0.0742188 -0.652344,0.109375 -0.921875,0.109375 -0.167969,0 -0.292969,-0.078125 -0.375,-0.234375 -0.074219,-0.15625 -0.132812,-0.320312 -0.171875,-0.5 -0.03125,-0.175781 -0.054687,-0.300781 -0.0625,-0.375 -0.261719,0.375 -0.589844,0.671875 -0.984375,0.890625 -0.398438,0.20703125 -0.828125,0.3125 -1.296875,0.3125 -0.605469,0 -1.136719,-0.171875 -1.59375,-0.515625 -0.460937,-0.34375 -0.8125,-0.835938 -1.0625,-1.484375 -0.25,-0.65625 -0.375,-1.421875 -0.375,-2.296875 0,-1.332031 0.296875,-2.378906 0.890625,-3.140625 0.59375,-0.769531 1.40625,-1.15625 2.4375,-1.15625 0.6875,0 1.3125,0.203125 1.875,0.609375 v -3.71875 c 0,-0.300781 0.273438,-0.453125 0.828125,-0.453125 z M 4.5,-6.859375 c -0.585938,0.011719 -1.023438,0.242187 -1.3125,0.6875 -0.28125,0.4375 -0.421875,1.085937 -0.421875,1.9375 0,0.875 0.128906,1.546875 0.390625,2.015625 0.257812,0.460938 0.640625,0.6875 1.140625,0.6875 0.59375,0 1.140625,-0.335938 1.640625,-1.015625 V -6.40625 C 5.5,-6.707031 5.019531,-6.859375 4.5,-6.859375 Z" id="path1054" inkscape:connector-curvature="0"/></g></g><g style="fill:#0f1e51;fill-opacity:1" id="g1582"><g transform="translate(168.2554,273.76309)" id="use1584"><path style="stroke:none" d="m 6.9375,-8.40625 c 0.5625,0 0.84375,0.152344 0.84375,0.453125 v 5.296875 c 0,0.742188 0.03125,1.277344 0.09375,1.609375 0.0625,0.324219 0.09375,0.523437 0.09375,0.59375 0,0.15625 -0.179688,0.277344 -0.53125,0.359375 -0.355469,0.0742188 -0.664062,0.109375 -0.921875,0.109375 -0.179687,0 -0.304687,-0.078125 -0.375,-0.234375 C 6.066406,-0.375 6.007812,-0.539062 5.96875,-0.71875 5.9375,-0.894531 5.914062,-1.019531 5.90625,-1.09375 5.613281,-0.738281 5.253906,-0.445312 4.828125,-0.21875 4.398438,0 3.953125,0.109375 3.484375,0.109375 c -1.625,0 -2.4375,-0.863281 -2.4375,-2.59375 v -5.46875 c 0,-0.300781 0.28125,-0.453125 0.84375,-0.453125 H 2.1875 c 0.570312,0 0.859375,0.152344 0.859375,0.453125 V -2.75 c 0,0.804688 0.394531,1.203125 1.1875,1.203125 0.3125,0 0.601563,-0.09375 0.875,-0.28125 0.269531,-0.195313 0.5,-0.4375 0.6875,-0.71875 v -5.40625 c 0,-0.300781 0.273437,-0.453125 0.828125,-0.453125 z" id="path1034" inkscape:connector-curvature="0"/></g></g><g style="fill:#0f1e51;fill-opacity:1" id="g1586"><g transform="translate(177.40739,273.76309)" id="use1588"><path style="stroke:none" d="m 4.71875,-8.484375 c 0.65625,0 1.25,0.089844 1.78125,0.265625 0.53125,0.179688 0.796875,0.414062 0.796875,0.703125 0,0.148437 -0.09375,0.367187 -0.28125,0.65625 -0.1875,0.292969 -0.339844,0.4375 -0.453125,0.4375 -0.011719,0 -0.09375,-0.03125 -0.25,-0.09375 C 5.820312,-6.753906 5.316406,-6.875 4.796875,-6.875 c -0.667969,0 -1.167969,0.21875 -1.5,0.65625 -0.335937,0.429688 -0.5,1.101562 -0.5,2.015625 0,0.9375 0.15625,1.625 0.46875,2.0625 0.3125,0.4375 0.820313,0.65625 1.53125,0.65625 0.550781,0 1.101563,-0.128906 1.65625,-0.390625 0.144531,-0.0625 0.222656,-0.09375 0.234375,-0.09375 0.144531,0 0.300781,0.140625 0.46875,0.421875 0.175781,0.273437 0.265625,0.492187 0.265625,0.65625 0,0.210937 -0.15625,0.390625 -0.46875,0.546875 C 6.640625,-0.1875 6.269531,-0.0703125 5.84375,0 5.414062,0.0703125 5.039062,0.109375 4.71875,0.109375 c -1.34375,0 -2.34375,-0.34375 -3,-1.03125 C 1.0625,-1.617188 0.734375,-2.695312 0.734375,-4.15625 c 0,-1.476562 0.34375,-2.566406 1.03125,-3.265625 0.6875,-0.707031 1.671875,-1.0625 2.953125,-1.0625 z" id="path1058" inkscape:connector-curvature="0"/></g></g><g style="fill:#0f1e51;fill-opacity:1" id="g1590"><g transform="translate(185.5834,273.76309)" id="use1592"><path style="stroke:none" d="m 4.21875,-8.484375 c 1.132812,0 1.972656,0.230469 2.515625,0.6875 C 7.285156,-7.335938 7.5625,-6.695312 7.5625,-5.875 v 3.21875 c 0,0.742188 0.03125,1.277344 0.09375,1.609375 0.070312,0.324219 0.109375,0.523437 0.109375,0.59375 0,0.15625 -0.179687,0.277344 -0.53125,0.359375 -0.355469,0.0742188 -0.667969,0.109375 -0.9375,0.109375 -0.167969,0 -0.289063,-0.078125 -0.359375,-0.234375 -0.074219,-0.15625 -0.132812,-0.320312 -0.171875,-0.5 -0.03125,-0.175781 -0.054687,-0.300781 -0.0625,-0.375 -0.25,0.304688 -0.578125,0.578125 -0.984375,0.828125 -0.40625,0.25 -0.90625,0.375 -1.5,0.375 -0.8125,0 -1.433594,-0.2070312 -1.859375,-0.625 -0.429687,-0.425781 -0.640625,-1 -0.640625,-1.71875 0,-1.96875 1.613281,-2.957031 4.84375,-2.96875 V -5.8125 c 0,-0.707031 -0.480469,-1.0625 -1.4375,-1.0625 -0.398438,0 -0.746094,0.046875 -1.046875,0.140625 -0.304687,0.085937 -0.5625,0.179687 -0.78125,0.28125 -0.21875,0.105469 -0.34375,0.15625 -0.375,0.15625 -0.136719,0 -0.292969,-0.144531 -0.46875,-0.4375 C 1.273438,-7.035156 1.1875,-7.257812 1.1875,-7.40625 c 0,-0.164062 0.132812,-0.332031 0.40625,-0.5 0.269531,-0.164062 0.640625,-0.300781 1.109375,-0.40625 0.46875,-0.113281 0.972656,-0.171875 1.515625,-0.171875 z m 1.34375,4.6875 c -0.886719,0.011719 -1.578125,0.117187 -2.078125,0.3125 -0.5,0.199219 -0.75,0.546875 -0.75,1.046875 0,0.292969 0.082031,0.523438 0.25,0.6875 0.175781,0.167969 0.429687,0.25 0.765625,0.25 0.363281,0 0.703125,-0.09375 1.015625,-0.28125 0.320313,-0.195312 0.585937,-0.453125 0.796875,-0.765625 z" id="path978" inkscape:connector-curvature="0"/></g></g><g style="fill:#0f1e51;fill-opacity:1" id="g1594"><g transform="translate(194.4314,273.76309)" id="use1596"><path style="stroke:none" d="m 2.71875,-10.40625 c 0.457031,0 0.6875,0.152344 0.6875,0.453125 V -8.375 h 0.984375 c 0.144531,0 0.25,0.058594 0.3125,0.171875 C 4.773438,-8.097656 4.8125,-7.925781 4.8125,-7.6875 v 0.25 c 0,0.242188 -0.039062,0.417969 -0.109375,0.53125 C 4.640625,-6.800781 4.535156,-6.75 4.390625,-6.75 H 3.40625 v 4.375 c 0,0.324219 0.054688,0.554688 0.171875,0.6875 0.113281,0.136719 0.28125,0.203125 0.5,0.203125 0.101563,0 0.203125,-0.00781 0.296875,-0.03125 0.101562,-0.03125 0.179688,-0.046875 0.234375,-0.046875 0.125,0 0.226563,0.136719 0.3125,0.40625 0.082031,0.273438 0.125,0.46875 0.125,0.59375 0,0.449219 -0.46875,0.671875 -1.40625,0.671875 -0.679687,0 -1.21875,-0.1914062 -1.625,-0.578125 C 1.609375,-0.863281 1.40625,-1.488281 1.40625,-2.34375 V -6.75 H 0.953125 C 0.804688,-6.75 0.695312,-6.800781 0.625,-6.90625 0.5625,-7.019531 0.53125,-7.195312 0.53125,-7.4375 v -0.25 c 0,-0.238281 0.03125,-0.410156 0.09375,-0.515625 C 0.695312,-8.316406 0.804688,-8.375 0.953125,-8.375 H 1.40625 l 0.203125,-1.578125 c 0.03125,-0.300781 0.28125,-0.453125 0.75,-0.453125 z" id="path986" inkscape:connector-curvature="0"/></g></g><g style="fill:#0f1e51;fill-opacity:1" id="g1598"><g transform="translate(200.1434,273.76309)" id="use1600"><path style="stroke:none" d="m 2.296875,-12.046875 c 0.570313,0 0.859375,0.152344 0.859375,0.453125 v 1.15625 c 0,0.15625 -0.070312,0.273438 -0.203125,0.34375 -0.136719,0.07422 -0.355469,0.109375 -0.65625,0.109375 h -0.34375 c -0.304687,0 -0.523437,-0.035156 -0.65625,-0.109375 -0.125,-0.07031 -0.1875,-0.1875 -0.1875,-0.34375 v -1.15625 c 0,-0.300781 0.28125,-0.453125 0.84375,-0.453125 z M 2.28125,-8.40625 c 0.5625,0 0.84375,0.152344 0.84375,0.453125 v 7.53125 c 0,0.304687 -0.28125,0.453125 -0.84375,0.453125 h -0.3125 c -0.554688,0 -0.828125,-0.148438 -0.828125,-0.453125 v -7.53125 c 0,-0.300781 0.273437,-0.453125 0.828125,-0.453125 z" id="path990" inkscape:connector-curvature="0"/></g></g><g style="fill:#0f1e51;fill-opacity:1" id="g1602"><g transform="translate(204.6394,273.76309)" id="use1604"><path style="stroke:none" d="m 4.578125,-8.484375 c 1.226563,0 2.164063,0.371094 2.8125,1.109375 0.644531,0.742188 0.96875,1.808594 0.96875,3.203125 0,1.398437 -0.324219,2.460937 -0.96875,3.1875 -0.636719,0.730469 -1.574219,1.09375 -2.8125,1.09375 -1.25,0 -2.203125,-0.363281 -2.859375,-1.09375 C 1.070312,-1.722656 0.75,-2.785156 0.75,-4.171875 0.75,-5.566406 1.070312,-6.632812 1.71875,-7.375 2.375,-8.113281 3.328125,-8.484375 4.578125,-8.484375 Z M 4.5625,-6.875 c -0.617188,0 -1.070312,0.226562 -1.359375,0.671875 -0.28125,0.4375 -0.421875,1.109375 -0.421875,2.015625 0,0.90625 0.140625,1.585938 0.421875,2.03125 0.289063,0.449219 0.742187,0.671875 1.359375,0.671875 0.59375,0 1.03125,-0.222656 1.3125,-0.671875 0.289062,-0.445312 0.4375,-1.125 0.4375,-2.03125 0,-0.90625 -0.140625,-1.578125 -0.421875,-2.015625 C 5.609375,-6.648438 5.164062,-6.875 4.5625,-6.875 Z" id="path966" inkscape:connector-curvature="0"/></g></g><g style="fill:#0f1e51;fill-opacity:1" id="g1606"><g transform="translate(213.96741,273.76309)" id="use1608"><path style="stroke:none" d="m 5.421875,-8.484375 c 1.632813,0 2.453125,0.867187 2.453125,2.59375 v 5.46875 c 0,0.304687 -0.28125,0.453125 -0.84375,0.453125 h -0.3125 c -0.5625,0 -0.84375,-0.148438 -0.84375,-0.453125 v -5.1875 c 0,-0.800781 -0.402344,-1.203125 -1.203125,-1.203125 -0.3125,0 -0.605469,0.101562 -0.875,0.296875 -0.273437,0.1875 -0.496094,0.417969 -0.671875,0.6875 v 5.40625 c 0,0.304687 -0.28125,0.453125 -0.84375,0.453125 h -0.3125 c -0.554688,0 -0.828125,-0.148438 -0.828125,-0.453125 v -5.28125 C 1.140625,-6.410156 1.101562,-6.925781 1.03125,-7.25 0.96875,-7.582031 0.9375,-7.785156 0.9375,-7.859375 c 0,-0.144531 0.175781,-0.253906 0.53125,-0.328125 0.351562,-0.082031 0.664062,-0.125 0.9375,-0.125 0.164062,0 0.285156,0.074219 0.359375,0.21875 0.070313,0.148438 0.125,0.304688 0.15625,0.46875 0.039063,0.167969 0.070313,0.28125 0.09375,0.34375 0.28125,-0.351562 0.632813,-0.640625 1.0625,-0.859375 0.425781,-0.226563 0.875,-0.34375 1.34375,-0.34375 z" id="path962" inkscape:connector-curvature="0"/></g></g><g style="fill:#0f1e51;fill-opacity:1" id="g1610"><g transform="translate(223.10339,273.76309)" id="use1612"><path style="stroke:none" d="m 4.21875,-8.484375 c 1.132812,0 1.972656,0.230469 2.515625,0.6875 C 7.285156,-7.335938 7.5625,-6.695312 7.5625,-5.875 v 3.21875 c 0,0.742188 0.03125,1.277344 0.09375,1.609375 0.070312,0.324219 0.109375,0.523437 0.109375,0.59375 0,0.15625 -0.179687,0.277344 -0.53125,0.359375 -0.355469,0.0742188 -0.667969,0.109375 -0.9375,0.109375 -0.167969,0 -0.289063,-0.078125 -0.359375,-0.234375 -0.074219,-0.15625 -0.132812,-0.320312 -0.171875,-0.5 -0.03125,-0.175781 -0.054687,-0.300781 -0.0625,-0.375 -0.25,0.304688 -0.578125,0.578125 -0.984375,0.828125 -0.40625,0.25 -0.90625,0.375 -1.5,0.375 -0.8125,0 -1.433594,-0.2070312 -1.859375,-0.625 -0.429687,-0.425781 -0.640625,-1 -0.640625,-1.71875 0,-1.96875 1.613281,-2.957031 4.84375,-2.96875 V -5.8125 c 0,-0.707031 -0.480469,-1.0625 -1.4375,-1.0625 -0.398438,0 -0.746094,0.046875 -1.046875,0.140625 -0.304687,0.085937 -0.5625,0.179687 -0.78125,0.28125 -0.21875,0.105469 -0.34375,0.15625 -0.375,0.15625 -0.136719,0 -0.292969,-0.144531 -0.46875,-0.4375 C 1.273438,-7.035156 1.1875,-7.257812 1.1875,-7.40625 c 0,-0.164062 0.132812,-0.332031 0.40625,-0.5 0.269531,-0.164062 0.640625,-0.300781 1.109375,-0.40625 0.46875,-0.113281 0.972656,-0.171875 1.515625,-0.171875 z m 1.34375,4.6875 c -0.886719,0.011719 -1.578125,0.117187 -2.078125,0.3125 -0.5,0.199219 -0.75,0.546875 -0.75,1.046875 0,0.292969 0.082031,0.523438 0.25,0.6875 0.175781,0.167969 0.429687,0.25 0.765625,0.25 0.363281,0 0.703125,-0.09375 1.015625,-0.28125 0.320313,-0.195312 0.585937,-0.453125 0.796875,-0.765625 z" id="path982" inkscape:connector-curvature="0"/></g></g><g style="fill:#0f1e51;fill-opacity:1" id="g1614"><g transform="translate(231.9994,273.76309)" id="use1616"><path style="stroke:none" d="m 2.265625,-12.046875 c 0.570313,0 0.859375,0.152344 0.859375,0.453125 V -2.375 c 0,0.324219 0.050781,0.554688 0.15625,0.6875 0.113281,0.136719 0.285156,0.203125 0.515625,0.203125 0.101563,0 0.203125,-0.00781 0.296875,-0.03125 C 4.1875,-1.546875 4.257812,-1.5625 4.3125,-1.5625 c 0.132812,0 0.238281,0.136719 0.3125,0.40625 0.082031,0.273438 0.125,0.46875 0.125,0.59375 0,0.449219 -0.464844,0.671875 -1.390625,0.671875 -0.679687,0 -1.21875,-0.1914062 -1.625,-0.578125 C 1.328125,-0.863281 1.125,-1.488281 1.125,-2.34375 v -9.25 c 0,-0.300781 0.28125,-0.453125 0.84375,-0.453125 z" id="path1066" inkscape:connector-curvature="0"/></g><g transform="translate(237.0394,273.76309)" id="use1618"><path style="stroke:none" d="" id="path1002" inkscape:connector-curvature="0"/></g><g transform="translate(241.1674,273.76309)" id="use1620"><path style="stroke:none" d="m 4.8125,-11.203125 c 1.332031,0 2.320312,0.246094 2.96875,0.734375 C 8.425781,-9.976562 8.75,-9.238281 8.75,-8.25 c 0,0.617188 -0.167969,1.148438 -0.5,1.59375 -0.324219,0.449219 -0.777344,0.789062 -1.359375,1.015625 v 0.0625 c 0.238281,0.085937 0.460937,0.273437 0.671875,0.5625 0.21875,0.292969 0.410156,0.65625 0.578125,1.09375 l 1.34375,3.375 c 0.050781,0.136719 0.078125,0.230469 0.078125,0.28125 0,0.1992188 -0.289062,0.296875 -0.859375,0.296875 h -0.46875 c -0.480469,0 -0.757813,-0.0976562 -0.828125,-0.296875 l -1.25,-3.140625 C 5.96875,-3.84375 5.742188,-4.144531 5.484375,-4.3125 5.222656,-4.488281 4.816406,-4.578125 4.265625,-4.578125 H 3.34375 v 4.15625 C 3.34375,-0.117188 3.0625,0.03125 2.5,0.03125 H 2.109375 c -0.5625,0 -0.84375,-0.148438 -0.84375,-0.453125 V -10.625 c 0,-0.195312 0.046875,-0.34375 0.140625,-0.4375 0.09375,-0.09375 0.242188,-0.140625 0.453125,-0.140625 z m -1.46875,1.78125 v 3.03125 h 1.75 c 0.414062,0 0.769531,-0.148437 1.0625,-0.453125 0.300781,-0.3125 0.453125,-0.6875 0.453125,-1.125 0,-0.46875 -0.148437,-0.828125 -0.4375,-1.078125 -0.292969,-0.25 -0.695313,-0.375 -1.203125,-0.375 z" id="path1070" inkscape:connector-curvature="0"/></g></g><g style="fill:#0f1e51;fill-opacity:1" id="g1622"><g transform="translate(251.1514,273.76309)" id="use1624"><path style="stroke:none" d="m 4.578125,-8.484375 c 1.144531,0 1.992187,0.375 2.546875,1.125 0.5625,0.75 0.84375,1.757813 0.84375,3.015625 0,0.125 -0.09375,0.296875 -0.28125,0.515625 C 7.507812,-3.609375 7.367188,-3.5 7.265625,-3.5 h -4.4375 c 0.050781,0.710938 0.25,1.226562 0.59375,1.546875 0.34375,0.3125 0.832031,0.46875 1.46875,0.46875 0.351563,0 0.664063,-0.039063 0.9375,-0.125 C 6.097656,-1.703125 6.378906,-1.8125 6.671875,-1.9375 6.835938,-2.007812 6.9375,-2.046875 6.96875,-2.046875 c 0.144531,0 0.304688,0.140625 0.484375,0.421875 0.175781,0.273438 0.265625,0.484375 0.265625,0.640625 0,0.199219 -0.15625,0.386719 -0.46875,0.5625 C 6.9375,-0.253906 6.550781,-0.125 6.09375,-0.03125 5.644531,0.0625 5.222656,0.109375 4.828125,0.109375 3.453125,0.109375 2.425781,-0.25 1.75,-0.96875 1.082031,-1.695312 0.75,-2.75 0.75,-4.125 c 0,-1.476562 0.332031,-2.570312 1,-3.28125 C 2.414062,-8.125 3.359375,-8.484375 4.578125,-8.484375 Z M 4.5625,-6.875 c -1,0 -1.578125,0.652344 -1.734375,1.953125 h 3.15625 c 0,-0.625 -0.121094,-1.101563 -0.359375,-1.4375 C 5.394531,-6.703125 5.039062,-6.875 4.5625,-6.875 Z" id="path1018" inkscape:connector-curvature="0"/></g></g><g style="fill:#0f1e51;fill-opacity:1" id="g1626"><g transform="translate(260.07941,273.76309)" id="use1628"><path style="stroke:none" d="m 3.53125,-8.5 c 0.5625,0 1.082031,0.078125 1.5625,0.234375 0.488281,0.15625 0.734375,0.367187 0.734375,0.625 0,0.179687 -0.074219,0.40625 -0.21875,0.6875 -0.148437,0.28125 -0.28125,0.421875 -0.40625,0.421875 -0.03125,0 -0.183594,-0.054688 -0.453125,-0.171875 -0.261719,-0.125 -0.578125,-0.1875 -0.953125,-0.1875 -0.324219,0 -0.585937,0.0625 -0.78125,0.1875 -0.1875,0.117187 -0.28125,0.292969 -0.28125,0.53125 0,0.21875 0.066406,0.40625 0.203125,0.5625 0.132812,0.148437 0.289062,0.261719 0.46875,0.34375 0.1875,0.085937 0.5,0.21875 0.9375,0.40625 0.625,0.230469 1.082031,0.523437 1.375,0.875 0.289062,0.34375 0.4375,0.835937 0.4375,1.46875 0,0.78125 -0.277344,1.417969 -0.828125,1.90625 C 4.785156,-0.117188 4.054688,0.125 3.140625,0.125 c -0.429687,0 -0.84375,-0.046875 -1.25,-0.140625 -0.40625,-0.09375 -0.742187,-0.222656 -1,-0.390625 -0.25,-0.164062 -0.375,-0.335938 -0.375,-0.515625 0,-0.175781 0.085937,-0.398437 0.265625,-0.671875 C 0.96875,-1.863281 1.128906,-2 1.265625,-2 c 0.039063,0 0.15625,0.054688 0.34375,0.15625 0.195313,0.09375 0.40625,0.179688 0.625,0.25 0.21875,0.074219 0.460937,0.109375 0.734375,0.109375 0.78125,0 1.171875,-0.300781 1.171875,-0.90625 0,-0.28125 -0.117187,-0.5 -0.34375,-0.65625 C 3.578125,-3.210938 3.207031,-3.390625 2.6875,-3.578125 2.050781,-3.785156 1.5625,-4.066406 1.21875,-4.421875 0.875,-4.785156 0.703125,-5.304688 0.703125,-5.984375 0.703125,-6.753906 0.957031,-7.363281 1.46875,-7.8125 1.988281,-8.269531 2.675781,-8.5 3.53125,-8.5 Z" id="path1006" inkscape:connector-curvature="0"/></g></g><g style="fill:#0f1e51;fill-opacity:1" id="g1630"><g transform="translate(267.07141,273.76309)" id="use1632"><path style="stroke:none" d="m 4.578125,-8.484375 c 1.226563,0 2.164063,0.371094 2.8125,1.109375 0.644531,0.742188 0.96875,1.808594 0.96875,3.203125 0,1.398437 -0.324219,2.460937 -0.96875,3.1875 -0.636719,0.730469 -1.574219,1.09375 -2.8125,1.09375 -1.25,0 -2.203125,-0.363281 -2.859375,-1.09375 C 1.070312,-1.722656 0.75,-2.785156 0.75,-4.171875 0.75,-5.566406 1.070312,-6.632812 1.71875,-7.375 2.375,-8.113281 3.328125,-8.484375 4.578125,-8.484375 Z M 4.5625,-6.875 c -0.617188,0 -1.070312,0.226562 -1.359375,0.671875 -0.28125,0.4375 -0.421875,1.109375 -0.421875,2.015625 0,0.90625 0.140625,1.585938 0.421875,2.03125 0.289063,0.449219 0.742187,0.671875 1.359375,0.671875 0.59375,0 1.03125,-0.222656 1.3125,-0.671875 0.289062,-0.445312 0.4375,-1.125 0.4375,-2.03125 0,-0.90625 -0.140625,-1.578125 -0.421875,-2.015625 C 5.609375,-6.648438 5.164062,-6.875 4.5625,-6.875 Z" id="path970" inkscape:connector-curvature="0"/></g><g transform="translate(276.46341,273.76309)" id="use1634"><path style="stroke:none" d="m 6.9375,-8.40625 c 0.5625,0 0.84375,0.152344 0.84375,0.453125 v 5.296875 c 0,0.742188 0.03125,1.277344 0.09375,1.609375 0.0625,0.324219 0.09375,0.523437 0.09375,0.59375 0,0.15625 -0.179688,0.277344 -0.53125,0.359375 -0.355469,0.0742188 -0.664062,0.109375 -0.921875,0.109375 -0.179687,0 -0.304687,-0.078125 -0.375,-0.234375 C 6.066406,-0.375 6.007812,-0.539062 5.96875,-0.71875 5.9375,-0.894531 5.914062,-1.019531 5.90625,-1.09375 5.613281,-0.738281 5.253906,-0.445312 4.828125,-0.21875 4.398438,0 3.953125,0.109375 3.484375,0.109375 c -1.625,0 -2.4375,-0.863281 -2.4375,-2.59375 v -5.46875 c 0,-0.300781 0.28125,-0.453125 0.84375,-0.453125 H 2.1875 c 0.570312,0 0.859375,0.152344 0.859375,0.453125 V -2.75 c 0,0.804688 0.394531,1.203125 1.1875,1.203125 0.3125,0 0.601563,-0.09375 0.875,-0.28125 0.269531,-0.195313 0.5,-0.4375 0.6875,-0.71875 v -5.40625 c 0,-0.300781 0.273437,-0.453125 0.828125,-0.453125 z" id="path1038" inkscape:connector-curvature="0"/></g></g><g style="fill:#0f1e51;fill-opacity:1" id="g1636"><g transform="translate(285.6474,273.76309)" id="use1638"><path style="stroke:none" d="m 4.8125,-8.484375 c 0.320312,0 0.554688,0.078125 0.703125,0.234375 0.144531,0.15625 0.21875,0.335938 0.21875,0.53125 0,0.210938 -0.046875,0.460938 -0.140625,0.75 -0.085938,0.28125 -0.183594,0.421875 -0.296875,0.421875 -0.054687,0 -0.164063,-0.019531 -0.328125,-0.0625 C 4.8125,-6.660156 4.65625,-6.6875 4.5,-6.6875 c -0.3125,0 -0.585938,0.101562 -0.8125,0.296875 -0.230469,0.1875 -0.40625,0.375 -0.53125,0.5625 v 5.40625 c 0,0.304687 -0.289062,0.453125 -0.859375,0.453125 H 2 c -0.5625,0 -0.84375,-0.148438 -0.84375,-0.453125 v -5.28125 c 0,-0.707031 -0.039062,-1.222656 -0.109375,-1.546875 -0.0625,-0.332031 -0.09375,-0.535156 -0.09375,-0.609375 0,-0.144531 0.175781,-0.253906 0.53125,-0.328125 0.351563,-0.082031 0.664063,-0.125 0.9375,-0.125 0.164063,0 0.285156,0.074219 0.359375,0.21875 0.070312,0.148438 0.128906,0.304688 0.171875,0.46875 0.039063,0.167969 0.066406,0.28125 0.078125,0.34375 0.226562,-0.375 0.484375,-0.664062 0.765625,-0.875 C 4.085938,-8.375 4.425781,-8.484375 4.8125,-8.484375 Z" id="path974" inkscape:connector-curvature="0"/></g><g transform="translate(291.79141,273.76309)" id="use1640"><path style="stroke:none" d="m 4.71875,-8.484375 c 0.65625,0 1.25,0.089844 1.78125,0.265625 0.53125,0.179688 0.796875,0.414062 0.796875,0.703125 0,0.148437 -0.09375,0.367187 -0.28125,0.65625 -0.1875,0.292969 -0.339844,0.4375 -0.453125,0.4375 -0.011719,0 -0.09375,-0.03125 -0.25,-0.09375 C 5.820312,-6.753906 5.316406,-6.875 4.796875,-6.875 c -0.667969,0 -1.167969,0.21875 -1.5,0.65625 -0.335937,0.429688 -0.5,1.101562 -0.5,2.015625 0,0.9375 0.15625,1.625 0.46875,2.0625 0.3125,0.4375 0.820313,0.65625 1.53125,0.65625 0.550781,0 1.101563,-0.128906 1.65625,-0.390625 0.144531,-0.0625 0.222656,-0.09375 0.234375,-0.09375 0.144531,0 0.300781,0.140625 0.46875,0.421875 0.175781,0.273437 0.265625,0.492187 0.265625,0.65625 0,0.210937 -0.15625,0.390625 -0.46875,0.546875 C 6.640625,-0.1875 6.269531,-0.0703125 5.84375,0 5.414062,0.0703125 5.039062,0.109375 4.71875,0.109375 c -1.34375,0 -2.34375,-0.34375 -3,-1.03125 C 1.0625,-1.617188 0.734375,-2.695312 0.734375,-4.15625 c 0,-1.476562 0.34375,-2.566406 1.03125,-3.265625 0.6875,-0.707031 1.671875,-1.0625 2.953125,-1.0625 z" id="path1062" inkscape:connector-curvature="0"/></g></g><g style="fill:#0f1e51;fill-opacity:1" id="g1642"><g transform="translate(299.6954,273.76309)" id="use1644"><path style="stroke:none" d="m 4.578125,-8.484375 c 1.144531,0 1.992187,0.375 2.546875,1.125 0.5625,0.75 0.84375,1.757813 0.84375,3.015625 0,0.125 -0.09375,0.296875 -0.28125,0.515625 C 7.507812,-3.609375 7.367188,-3.5 7.265625,-3.5 h -4.4375 c 0.050781,0.710938 0.25,1.226562 0.59375,1.546875 0.34375,0.3125 0.832031,0.46875 1.46875,0.46875 0.351563,0 0.664063,-0.039063 0.9375,-0.125 C 6.097656,-1.703125 6.378906,-1.8125 6.671875,-1.9375 6.835938,-2.007812 6.9375,-2.046875 6.96875,-2.046875 c 0.144531,0 0.304688,0.140625 0.484375,0.421875 0.175781,0.273438 0.265625,0.484375 0.265625,0.640625 0,0.199219 -0.15625,0.386719 -0.46875,0.5625 C 6.9375,-0.253906 6.550781,-0.125 6.09375,-0.03125 5.644531,0.0625 5.222656,0.109375 4.828125,0.109375 3.453125,0.109375 2.425781,-0.25 1.75,-0.96875 1.082031,-1.695312 0.75,-2.75 0.75,-4.125 c 0,-1.476562 0.332031,-2.570312 1,-3.28125 C 2.414062,-8.125 3.359375,-8.484375 4.578125,-8.484375 Z M 4.5625,-6.875 c -1,0 -1.578125,0.652344 -1.734375,1.953125 h 3.15625 c 0,-0.625 -0.121094,-1.101563 -0.359375,-1.4375 C 5.394531,-6.703125 5.039062,-6.875 4.5625,-6.875 Z" id="path1022" inkscape:connector-curvature="0"/></g></g><g style="fill:#0f1e51;fill-opacity:1" id="g1646"><g transform="translate(308.62341,273.76309)" id="use1648"><path style="stroke:none" d="m 3.53125,-8.5 c 0.5625,0 1.082031,0.078125 1.5625,0.234375 0.488281,0.15625 0.734375,0.367187 0.734375,0.625 0,0.179687 -0.074219,0.40625 -0.21875,0.6875 -0.148437,0.28125 -0.28125,0.421875 -0.40625,0.421875 -0.03125,0 -0.183594,-0.054688 -0.453125,-0.171875 -0.261719,-0.125 -0.578125,-0.1875 -0.953125,-0.1875 -0.324219,0 -0.585937,0.0625 -0.78125,0.1875 -0.1875,0.117187 -0.28125,0.292969 -0.28125,0.53125 0,0.21875 0.066406,0.40625 0.203125,0.5625 0.132812,0.148437 0.289062,0.261719 0.46875,0.34375 0.1875,0.085937 0.5,0.21875 0.9375,0.40625 0.625,0.230469 1.082031,0.523437 1.375,0.875 0.289062,0.34375 0.4375,0.835937 0.4375,1.46875 0,0.78125 -0.277344,1.417969 -0.828125,1.90625 C 4.785156,-0.117188 4.054688,0.125 3.140625,0.125 c -0.429687,0 -0.84375,-0.046875 -1.25,-0.140625 -0.40625,-0.09375 -0.742187,-0.222656 -1,-0.390625 -0.25,-0.164062 -0.375,-0.335938 -0.375,-0.515625 0,-0.175781 0.085937,-0.398437 0.265625,-0.671875 C 0.96875,-1.863281 1.128906,-2 1.265625,-2 c 0.039063,0 0.15625,0.054688 0.34375,0.15625 0.195313,0.09375 0.40625,0.179688 0.625,0.25 0.21875,0.074219 0.460937,0.109375 0.734375,0.109375 0.78125,0 1.171875,-0.300781 1.171875,-0.90625 0,-0.28125 -0.117187,-0.5 -0.34375,-0.65625 C 3.578125,-3.210938 3.207031,-3.390625 2.6875,-3.578125 2.050781,-3.785156 1.5625,-4.066406 1.21875,-4.421875 0.875,-4.785156 0.703125,-5.304688 0.703125,-5.984375 0.703125,-6.753906 0.957031,-7.363281 1.46875,-7.8125 1.988281,-8.269531 2.675781,-8.5 3.53125,-8.5 Z" id="path1010" inkscape:connector-curvature="0"/></g></g></g></g></svg>