<?xml version="1.0" encoding="UTF-8"?>
<!DOCTYPE svg PUBLIC "-//W3C//DTD SVG 1.1//EN" "http://www.w3.org/Graphics/SVG/1.1/DTD/svg11.dtd">
<svg version="1.1" xmlns="http://www.w3.org/2000/svg" xmlns:xlink="http://www.w3.org/1999/xlink" x="0" y="0" width="1778" height="1045" viewBox="0, 0, 1778, 1045">
  <defs>
    <clipPath id="Clip_1">
      <path d="M0.06,0.88 L1777.52,0.88 L1777.52,1044.94 L0.06,1044.94 z"/>
    </clipPath>
    <clipPath id="Clip_2">
      <path d="M0.06,0.88 L1777.52,0.88 L1777.52,1044.94 L0.06,1044.94 z"/>
    </clipPath>
  </defs>
  <g id="Layer_1">
    <g clip-path="url(#Clip_1)">
      <path d="M740.712,846.85 C753.299,857.645 765.501,868.157 777.776,878.581 C779.335,879.904 779.049,880.735 777.972,882.155 C764.878,899.429 751.219,916.168 733.14,930.475 C735.715,902.044 738.192,874.681 740.712,846.85 z M334.695,419.902 C332.831,421.495 330.314,420.914 328.25,421.838 C325.921,422.883 324.465,421.9 323.658,419.747 C322.837,417.556 319.716,415.862 322.624,412.865 C326.318,409.059 328.97,404.44 331.645,399.878 C334.671,400.072 334.892,402.66 334.962,404.58 C335.147,409.678 335.594,414.812 334.695,419.902 z M285.635,261.629 C279.045,247.075 271.496,234.625 261.59,222.84 C281.332,220.842 299.283,214.549 317.473,208.175 C304.55,224.262 293.584,241.398 285.635,261.629 z M1773.75,505.234 C1771.67,502.491 1766.38,502.167 1766.59,499.01 C1766.79,496.034 1770.54,493.449 1772.14,490.385 C1778.14,478.889 1773.17,469.076 1760.33,466.762 C1757.66,466.28 1754.94,465.997 1751.72,465.548 C1756.52,460.189 1760.75,455.075 1763.68,449.067 C1767.53,441.177 1768.86,433.104 1763.74,425.338 C1758.67,417.648 1750.8,416.291 1742.21,416.614 C1736.68,416.823 1731.32,418.371 1725.41,418.8 C1727.94,414.069 1730.59,410.02 1732,405.377 C1735.97,392.38 1730.05,382.482 1716.82,379.715 C1708.05,377.881 1699.82,379.904 1692.11,383.591 C1671.5,393.458 1651.92,405.081 1634.59,420.148 C1627.47,426.337 1627.58,426.396 1622.46,418.349 C1616.9,409.62 1611.18,400.972 1602.46,394.992 C1592.28,388.015 1581.8,389.963 1574.56,399.982 C1573.33,401.68 1572.2,403.445 1570.76,405.579 C1567.43,392.473 1563.81,380.038 1559.43,367.837 C1541.61,318.104 1514.81,274.067 1474.68,239.24 C1407.26,180.725 1328.54,153.21 1239.3,155.728 C1199.89,156.84 1161.72,164.406 1124.64,177.6 C1110.11,182.768 1096.61,190.356 1082.58,196.513 C1023.28,222.536 975.505,261.732 939.865,315.778 C939.172,316.83 939.009,318.744 936.887,318.558 C935.899,289.522 930.664,261.312 923.499,233.384 C908.449,174.721 880.166,123.728 835.076,82.883 C768.372,22.461 689.863,-4.71 600.035,1.833 C552.373,5.304 508.326,20.356 467.967,45.887 C463.579,48.662 459.315,50.239 454.352,50.78 C449.726,51.285 445.111,51.949 440.522,52.724 C368.842,64.82 311.426,100.091 268.406,158.731 C258.159,172.697 249.358,187.557 241.253,203.097 C233.313,197.11 225.228,191.87 216.349,187.987 C182.582,173.22 149.058,175.964 116.213,190.53 C73.097,209.65 41.768,241.679 18.547,282.195 C4.232,307.172 -2.765,333.868 1.013,362.616 C4.775,391.249 14.955,417.76 31.709,441.288 C61.547,483.189 102.38,501.424 153.597,495.554 C157.701,495.084 159.967,496.125 162.558,498.869 C172.161,509.043 181.915,519.076 191.725,529.051 C234.714,572.756 277.608,616.555 320.791,660.067 C367.033,706.66 413.212,753.335 460.884,798.464 C471.326,808.349 475.823,818.307 476.109,832.746 C476.789,867.013 480.414,901.16 484.313,935.24 C488.078,968.149 492.634,1000.94 498.303,1033.57 C499.111,1038.22 501.001,1041.49 506.045,1041.75 C511.393,1042.03 513.784,1038.74 514.678,1033.94 C516.14,1032.1 515.282,1030.1 514.97,1028.19 C512.902,1015.53 510.815,1002.88 508.927,990.191 C505.52,967.302 502.85,944.318 500.214,921.332 C497.996,901.997 496.361,882.599 495.043,863.191 C494.03,848.265 492.699,833.339 492.837,818.34 C492.921,809.153 490.374,801.113 482.53,795.209 C479.378,792.837 476.352,790.153 473.485,787.357 C457.863,772.124 442.325,756.791 426.86,741.412 C382.676,697.478 338.256,653.775 294.909,608.993 C268.033,581.227 240.611,553.978 213.471,526.46 C203.176,516.022 193.282,505.209 182.969,494.795 C179.813,491.609 179.94,490.973 184.197,489.585 C194.715,486.158 204.567,481.281 214.092,475.771 C233.46,464.567 250.103,450.074 264.539,433.034 C266.349,430.897 267.98,429.974 270.928,430.692 C281.515,433.269 292.111,433.218 302.322,429.061 C306.438,427.385 308.676,428.416 310.822,432.111 C325.134,456.746 339.648,481.261 354.425,505.624 C387.783,560.621 421.791,615.198 458.289,668.186 C469.727,684.79 481.533,701.123 494.013,716.97 C497.714,721.67 501.944,722.986 507.622,721.154 C514.336,718.988 520.169,722.492 521.891,729.353 C527.042,749.878 531.971,770.456 536.844,791.048 C537.765,794.94 538.449,799.032 541.574,801.871 C544.191,804.249 545.386,807.205 546.313,810.461 C560.546,860.457 575.079,910.367 589.387,960.342 C592.276,970.433 595.103,980.542 598.062,990.613 C599.695,996.168 602.878,998.831 607.382,998.93 C612.078,999.034 615.313,996.269 617.188,990.551 C617.291,990.234 617.385,989.915 617.477,989.594 C634.813,929.222 652.579,868.974 670.007,808.629 C670.747,806.067 671.225,803.316 673.285,801.447 C676.565,798.471 677.744,794.59 678.821,790.5 C684.211,770.037 689.23,749.479 694.581,729.006 C695.535,725.357 697.372,723.311 700.957,722.208 C711.795,718.874 722.446,715.004 732.579,709.853 C736.127,708.049 738.838,708.44 741.95,711.337 C747.311,716.329 752.517,721.498 757.989,726.36 C774.791,741.293 791.106,756.756 807.426,772.197 C822.793,786.736 837.617,801.865 852.334,817.069 C860.081,825.072 867.362,833.544 873.726,842.774 C877.627,848.431 878.042,854.009 875.436,860.223 C868.726,876.224 858.534,890.032 848.162,903.705 C835.767,920.046 821.829,935.079 807.861,950.057 C798.768,959.807 788.641,968.49 778.431,977.062 C775.596,979.442 773.58,979.217 770.715,976.761 C761.077,968.498 752.579,959.092 743.438,950.34 C740.907,947.917 740.98,946.343 743.891,944.054 C764.783,927.624 781.512,907.352 796.723,885.77 C801.579,878.88 800.608,874.969 794.025,869.495 C780.451,858.207 767.12,846.639 753.871,834.969 C749.157,830.817 744.95,825.91 739.031,823.243 C731.135,819.685 725.421,822.756 724.291,831.241 C723.015,840.814 723.021,850.492 722.121,860.089 C719.963,883.103 717.914,906.127 715.462,929.116 C711.93,962.224 707.764,995.245 703.053,1028.2 C702.774,1030.16 702.026,1032.14 703.531,1033.94 C704.331,1038.52 706.535,1041.86 711.634,1041.74 C720.707,1041.54 719.267,1033.58 720.977,1027.91 C737.52,1042.53 743.585,1044.81 765.427,1044.79 C775.54,1044.78 782.583,1038.89 784.737,1028.89 C786.495,1020.73 784.511,1013.02 782.135,1005.38 C779.774,997.786 779.732,997.924 786.002,993.112 C805.909,977.836 823.105,959.724 839.674,941.022 C857.682,920.696 874.442,899.476 887.704,875.567 C897.962,857.075 896.433,841.11 882.481,824.871 C859.961,798.659 835.241,774.706 810.198,751.033 C792.419,734.226 774.403,717.669 756.382,701.12 C753.487,698.462 753.166,697.056 756.907,694.906 C764.561,690.506 771.583,685.134 778.415,679.545 C814.914,649.689 839.398,611.42 856.369,567.935 C862.051,553.375 866.861,538.503 870.393,523.28 C871.832,517.077 876.543,519.287 879.95,518.907 C883.639,518.495 881.993,522.012 882.027,523.707 C882.589,552.213 885.024,580.523 890.597,608.514 C899.342,652.435 913.845,694.096 939.32,731.369 C965.612,769.836 1000.27,797.343 1045,811.534 C1051.9,813.723 1054.67,812.49 1057.7,806.01 C1059.44,803.675 1058.3,801.57 1057.09,799.556 C1055.32,796.64 1052.37,795.439 1049.29,794.534 C1036.75,790.849 1025.21,784.877 1013.63,779.002 C1011.89,777.981 1010.24,776.823 1008.61,775.646 C991.35,764.579 976.393,750.933 963.601,734.944 C944.113,710.587 930.542,683.03 920.445,653.695 C908.051,617.684 901.854,580.416 900.127,542.523 C899.045,518.778 899.565,494.972 902.599,471.243 C908.478,425.259 921.763,381.798 944.764,341.423 C973.011,291.84 1012.04,253.256 1062.23,225.996 C1064.2,225.248 1065.45,223.092 1067.81,223.125 C1069.69,222.44 1071.29,221.199 1073.1,220.336 C1089.97,212.272 1107.36,205.563 1125.37,200.497 C1128.26,199.685 1131.55,199.039 1133.13,196.322 C1135.78,191.77 1140.16,190.474 1144.64,189.12 C1187.97,176.004 1232.14,170.583 1277.38,174.11 C1304.78,176.245 1331.41,181.436 1357.35,190.677 C1406.61,208.221 1449.6,235.222 1484.97,273.929 C1490.11,279.561 1495.28,285.266 1499.24,291.888 C1501.01,295.341 1504.19,297.657 1506.33,300.841 C1515.95,315.19 1524.66,330.04 1531.72,345.824 C1538.3,360.942 1544.53,376.2 1548.93,392.122 C1554.79,413.291 1560.88,434.394 1561.33,456.649 C1561.44,461.918 1561.3,467.431 1562.68,472.513 C1564.78,480.29 1562.98,486.884 1558.62,493.192 C1557.67,494.559 1556.95,496.073 1556.12,497.518 C1548.11,511.509 1539.93,525.398 1530.93,539.401 C1524.76,531.062 1516.59,527.211 1506.91,525.995 C1500.48,525.187 1500.65,524.996 1499.81,518.405 C1495.97,488.208 1488.63,458.885 1477.57,430.511 C1475.56,425.353 1474.48,424.857 1469.31,426.355 C1466.91,427.051 1464.49,427.673 1462.1,428.387 C1460.02,429.004 1458.44,430.032 1458.5,432.497 C1458.6,434.19 1459.31,435.711 1459.9,437.26 C1465.96,453.128 1471.07,469.289 1474.71,485.889 C1479.06,505.727 1482.42,525.632 1482.18,546.113 C1482,561.442 1480.98,576.644 1479.13,591.833 C1478.48,597.96 1476.74,603.913 1476,609.986 C1474.99,618.346 1470.81,624.856 1465.72,631.134 C1456.41,642.628 1446.85,653.916 1437.46,665.343 C1424.58,679.948 1411.73,694.615 1398.19,708.599 C1377.23,730.254 1355.93,751.605 1332.93,771.164 C1330.57,773.17 1328.08,774.574 1325.15,775.413 C1299.54,782.722 1273.33,786.358 1246.82,787.341 C1232.55,787.871 1218.23,787.762 1203.89,786.704 C1180.88,785.005 1158.18,781.778 1136.06,775.268 C1098.11,764.104 1064.53,745.68 1037.78,715.813 C1020.66,696.705 1007.58,675.27 998.458,651.351 C990.992,632.805 986.394,613.49 983.084,593.829 C982.145,586.232 981.209,578.643 980.55,571.009 C979.285,556.363 978.938,541.615 980.301,527.101 C982.974,498.665 989.293,470.885 999.368,444.053 C1014.08,404.875 1035.78,370.468 1067.75,342.928 C1096.31,318.326 1129.07,301.94 1165.35,292.311 C1171.76,290.611 1171.84,290.724 1173.47,297.151 C1179.96,322.843 1190.96,346.386 1207.25,367.339 C1226,391.454 1249.03,408.763 1280.35,412.717 C1287.24,413.587 1290.66,411.669 1293.51,404.952 C1293.37,397.968 1290.34,394.38 1282.82,393.841 C1268.11,392.787 1255.36,386.877 1244.08,378.011 C1222.71,361.213 1208.58,339.037 1198.51,314.087 C1192.8,299.944 1189.36,285.234 1187.69,270.082 C1187.05,264.258 1184.04,261.141 1179.07,260.73 C1174.1,260.32 1170.78,262.822 1169.34,268.678 C1168.66,271.455 1167.01,272.426 1164.58,273.024 C1155.35,275.294 1146.31,278.226 1137.37,281.405 C1095.07,296.441 1058.81,320.426 1029.61,354.708 C999.366,390.213 980.843,431.476 969.959,476.489 C966.471,490.915 963.723,505.464 962.025,520.205 C961.62,523.728 960.73,525.737 956.344,525.912 C948.25,526.234 940.572,528.528 934.333,534.189 C928.87,539.147 925.561,545.412 923.397,552.355 C918.154,571.397 919.119,589.901 928.2,607.703 C936.355,620.923 948.62,627.473 963.67,629.008 C971.403,629.797 971.462,629.405 973.598,636.59 C985.356,676.136 1004.8,711.013 1034.96,739.698 C1051.33,755.257 1069.73,767.539 1089.85,777.539 C1101.22,783.194 1113,787.794 1125.13,791.478 C1128.81,792.595 1129.15,794.035 1126.97,797.014 C1124.62,800.236 1122.68,803.791 1120.97,807.381 C1118.57,812.437 1114.88,816.985 1114.41,822.867 C1109.08,836.966 1103.55,850.978 1099.39,865.502 C1089.35,900.602 1083.84,936.481 1080.69,972.767 C1078.85,993.971 1078.08,1015.22 1078.37,1036.51 C1078.42,1040.22 1079.05,1044.17 1083.22,1044.58 C1089.24,1045.17 1092.45,1046.37 1094.59,1037.8 C1096.19,1035.97 1095.8,1033.72 1095.82,1031.59 C1095.9,1022.42 1095.37,1013.23 1095.99,1004.1 C1097.41,982.856 1098.86,961.616 1101.76,940.496 C1106.67,904.711 1114.27,869.628 1128.04,836.09 C1132.99,824.038 1139.1,812.597 1146.17,801.642 C1148.32,798.3 1150.96,798.228 1154.36,799.069 C1157.98,799.962 1157.31,802.592 1157.23,804.998 C1156.99,812.704 1157.33,820.307 1160.08,827.649 C1162.76,834.81 1162.9,835.147 1156.67,839.216 C1149.95,843.603 1148.23,849.429 1149.7,856.877 C1151.95,868.384 1156.34,878.879 1164.19,887.701 C1166.31,890.08 1166.69,892.189 1164.94,894.831 C1162.99,897.75 1161.48,900.916 1159.99,904.085 C1156.6,911.342 1158.76,916.654 1166.3,919.561 C1175.01,922.92 1183.82,925.988 1192.64,929.019 C1195.81,930.108 1198.14,931.733 1199.41,935.049 C1206.28,952.939 1213.26,970.783 1220.19,988.648 C1222.11,993.609 1223.73,998.69 1230.2,998.896 C1236.92,999.11 1239.1,994.049 1241.07,988.923 C1247.76,971.502 1254.76,954.204 1261.3,936.725 C1262.71,932.953 1264.95,930.777 1268.8,929.506 C1278.45,926.326 1288,922.833 1297.51,919.257 C1304.32,916.698 1306.27,911.205 1302.86,904.803 C1301.45,902.158 1300.02,899.476 1298.18,897.128 C1295.46,893.663 1295.65,891.068 1298.75,887.627 C1307.59,877.815 1312.47,866.08 1313.77,852.908 C1314.26,847.869 1312.56,843.822 1308.35,840.777 C1305.23,838.524 1302.02,836.452 1298.67,834.582 C1296.72,833.489 1295.99,832.265 1297.25,830.176 C1302.33,821.701 1304.29,812.257 1305.7,802.651 C1305.93,801.107 1306.26,799.576 1308,799.139 C1313.15,797.846 1318.28,795.581 1323.65,796.615 C1329,797.646 1333.09,795.803 1336.93,792.549 C1352.58,779.321 1367.69,765.491 1382.38,751.22 C1404.36,729.859 1425.21,707.412 1445.44,684.378 C1464.7,662.459 1483.06,639.826 1500.54,616.489 C1525.63,582.987 1548.74,548.153 1569.7,511.903 C1570.41,510.664 1570.75,509.06 1572.55,508.297 C1591.06,546.427 1617.7,574.752 1662.11,581.745 C1661.45,583.322 1660.28,584.488 1659.23,585.736 C1652.15,594.146 1644.79,602.31 1637.62,610.643 C1618.73,632.619 1599.24,654.085 1578.97,674.755 C1551.34,702.933 1523.79,731.229 1494.46,757.709 C1479,771.658 1463.59,785.642 1447.63,799.003 C1410.03,830.488 1371.1,860.157 1328.82,885.202 C1324.91,887.517 1322.81,890.76 1322.31,895.234 C1320.96,907.139 1319.72,919.056 1318.29,930.953 C1314.78,960.046 1311.11,989.113 1306.75,1018.09 C1305.77,1024.59 1303.41,1031.01 1304.64,1037.76 C1307.02,1044.54 1308.24,1045.35 1315.09,1044.79 C1320.56,1044.34 1320.66,1039.94 1321.43,1036.09 C1321.92,1033.65 1322.21,1031.16 1322.61,1028.7 C1329.18,987.604 1334.24,946.312 1338.66,904.937 C1339.07,901.094 1340.1,898.16 1343.99,896.323 C1347.87,894.489 1351.4,891.893 1355.04,889.553 C1424.39,844.911 1486.31,791.164 1545.14,733.706 C1594.5,685.491 1641.27,634.848 1685.25,581.652 C1687.03,579.498 1689.02,578.348 1691.8,577.648 C1716.22,571.513 1738.94,561.539 1759.41,546.765 C1767.17,541.167 1772.51,533.552 1775.82,524.623 C1778.32,517.901 1778.4,511.367 1773.75,505.234" fill="#6E4100"/>
    </g>
    <path d="M514.678,1033.94 C508.857,1000.869 504.157,967.639 500.388,934.263 C496.842,902.854 493.901,871.406 492.358,839.833 C491.863,829.703 491.167,819.582 490.791,809.449 C490.668,806.124 489.15,803.848 486.932,801.682 C461.069,776.431 435.076,751.309 409.422,725.848 C372.638,689.341 336.052,652.634 299.487,615.908 C281.034,597.373 262.778,578.643 244.493,559.942 C222.952,537.91 201.523,515.769 179.917,493.803 C176.965,490.802 178.192,490.163 181.268,489.168 C208.614,480.325 231.789,464.779 252.046,444.671 C256.411,440.338 260.498,435.702 264.425,430.966 C266.023,429.039 267.333,428.292 269.84,429.005 C281.777,432.401 293.596,432.065 304.884,426.646 C308.802,424.766 309.499,427.475 310.792,429.65 C325.086,453.69 339.213,477.831 353.651,501.784 C384.686,553.272 416.476,604.286 450.247,654.039 C464.647,675.254 479.219,696.352 495.287,716.366 C499.281,721.342 501.58,721.918 507.713,719.337 C512.346,717.388 521.493,721.984 522.681,726.878 C528.014,748.847 533.348,770.815 538.656,792.79 C539.605,796.714 540.463,800.634 544.548,802.695 C545.885,803.37 546.07,804.832 546.428,806.076 C563.843,866.636 581.235,927.203 598.629,987.768 C598.996,989.046 599.321,990.338 599.727,991.604 C600.915,995.31 603.372,997.604 607.34,997.711 C611.544,997.825 614.278,995.57 615.446,991.618 C618.886,979.977 622.224,968.307 625.613,956.652 C640.236,906.356 654.868,856.064 669.47,805.762 C670.176,803.33 670.999,801.171 673.326,799.689 C675.38,798.38 676.047,796.061 676.64,793.736 C682.261,771.666 688.017,749.629 693.53,727.532 C694.398,724.051 695.931,722.262 699.455,721.265 C711.81,717.772 723.65,712.859 735.207,707.288 C737.233,706.311 738.548,706.235 740.384,707.953 C778.436,743.573 817.318,778.328 853.264,816.141 C861.063,824.345 868.36,832.98 875.026,842.179 C879.228,847.978 879.564,853.589 876.979,859.986 C871.109,874.504 862.309,887.253 852.916,899.562 C832.06,926.89 809.22,952.426 783.093,974.894 C774.982,981.869 774.762,982.166 766.81,974.858 C757.74,966.522 749.19,957.623 740.357,949.028 C738.38,947.104 738.736,946.142 740.936,944.517 C763.482,927.869 780.576,906.181 796.628,883.59 C799.996,878.849 799.067,875.071 794.531,871.436 C777.762,858 761.728,843.708 745.68,829.434 C742.904,826.965 739.987,824.846 736.479,823.597 C731.023,821.654 726.127,824.487 725.621,830.213 C724.521,842.635 723.669,855.078 722.684,867.51 C720.845,890.715 718.484,913.867 715.957,937.008 C713.213,962.129 710.151,987.206 706.645,1012.23 C705.631,1019.47 704.57,1026.71 703.531,1033.94 C640.58,1033.94 577.629,1033.94 514.678,1033.94" fill="#4576AD"/>
    <path d="M1094.59,1037.8 C1093.89,1011.48 1095.52,985.273 1098.23,959.094 C1100.92,933.096 1105.06,907.371 1111.57,882.06 C1118.97,853.248 1128.89,825.441 1145.44,800.404 C1147.72,796.957 1155.53,796.118 1158.43,798.918 C1159.2,799.657 1158.85,800.409 1158.79,801.196 C1157.88,812.302 1158.49,823.178 1163.93,833.253 C1164.89,835.033 1164.29,835.933 1162.76,836.869 C1160.64,838.172 1158.73,839.847 1156.56,841.05 C1150.6,844.347 1149.61,849.541 1150.73,855.593 C1152.98,867.784 1157.49,878.947 1166.26,887.954 C1168.36,890.11 1168.19,891.686 1166.89,893.973 C1164.75,897.731 1162.77,901.588 1160.88,905.477 C1157.99,911.41 1159.78,915.835 1165.99,918.098 C1175.52,921.573 1185.04,925.076 1194.66,928.305 C1197.66,929.312 1199.3,930.995 1200.4,933.876 C1207.71,952.986 1215.18,972.032 1222.51,991.138 C1223.94,994.886 1226.08,997.6 1230.31,997.748 C1234.79,997.904 1237.21,995.243 1238.74,991.287 C1245.98,972.512 1253.38,953.792 1260.56,934.991 C1261.79,931.774 1263.56,929.889 1266.9,928.782 C1276.85,925.489 1286.68,921.861 1296.54,918.318 C1303.56,915.795 1305.28,911.047 1301.45,904.678 C1298.97,900.542 1294.75,896.668 1294.26,892.338 C1293.76,888.064 1299.64,885.416 1302.11,881.534 C1307.84,872.526 1311.54,862.894 1312.57,852.221 C1313,847.742 1311.41,844.423 1307.74,842.011 C1304.13,839.638 1300.57,837.164 1296.82,835.029 C1294.8,833.881 1293.71,833.283 1295.35,830.727 C1301.06,821.842 1303.41,811.815 1304.32,801.44 C1304.53,798.979 1305.25,797.994 1307.74,797.649 C1314.2,796.758 1320.3,793.59 1327.23,795.695 C1330.97,796.832 1333.68,793.565 1336.3,791.328 C1347.56,781.699 1358.61,771.838 1369.39,761.66 C1431.64,702.898 1486.44,637.854 1534.06,566.75 C1546.94,547.521 1559.1,527.838 1570.54,507.71 C1571,506.905 1571.16,505.799 1572.83,505.37 C1581.25,524.487 1592.59,541.693 1608.55,555.593 C1624.67,569.626 1643.01,578.518 1665.41,580.302 C1660.06,586.678 1655.19,592.696 1650.1,598.514 C1629.37,622.186 1608.36,645.602 1586.7,668.442 C1563.89,692.502 1540.59,716.077 1516.56,738.907 C1465.69,787.248 1412.42,832.697 1353.62,871.292 C1345.69,876.497 1337.64,881.536 1329.46,886.33 C1325.56,888.612 1323.99,891.711 1323.53,896.005 C1318.54,942.771 1312.79,989.44 1305.27,1035.88 C1305.17,1036.52 1304.85,1037.13 1304.64,1037.76 C1254.23,1037.77 1203.81,1037.77 1153.4,1037.77 C1151.26,1036.7 1151.19,1034.57 1150.87,1032.64 C1146.15,1003.73 1142.47,974.673 1139.09,945.578 C1138.13,937.314 1137.31,929.034 1136.09,920.8 C1135.79,918.799 1135.38,916.845 1133.96,915.303 C1132.41,913.616 1130.51,912.635 1128.17,913.133 C1125.68,913.664 1124.05,915.231 1123.42,917.721 C1122.92,919.685 1123.02,921.687 1123.25,923.679 C1127.34,959.391 1131.44,995.102 1137.15,1030.6 C1137.53,1032.99 1138.58,1035.51 1136.59,1037.75 C1122.59,1037.77 1108.59,1037.78 1094.59,1037.8" fill="#4576AD"/>
    <g clip-path="url(#Clip_2)">
      <path d="M929.527,607.848 C939.169,621.553 952.456,628.169 969.12,627.874 C972.421,627.815 972.889,629.776 973.532,632.063 C977.725,646.99 983.063,661.492 989.85,675.44 C1017.27,731.777 1061.47,768.763 1120.47,788.685 C1123.93,789.854 1127.41,790.952 1131.4,792.253 C1124.77,802.144 1119.87,812.655 1114.41,822.867 C1096.03,820.174 1078.34,815.067 1061.33,807.599 C1060.12,807.069 1058.91,806.54 1057.7,806.01 C1057.81,800.558 1054.98,797.593 1049.87,796.075 C1036.69,792.155 1024.25,786.494 1012.39,779.542 C1011.47,777.836 1009.86,776.907 1008.3,775.928 C996.426,766.555 986.816,755.087 978.081,742.886 C955.427,711.243 941.924,675.661 933.322,637.997 C931.579,630.368 930.183,622.676 928.781,614.983 C928.34,612.565 927.621,610.051 929.527,607.848" fill="#C6986A"/>
      <path d="M1136.59,1037.75 C1134.76,1025.09 1132.79,1012.45 1131.14,999.764 C1128.49,979.325 1126.05,958.861 1123.55,938.403 C1122.82,932.463 1122.01,926.523 1121.59,920.558 C1121.2,914.982 1124.25,911.357 1128.95,911.143 C1133.51,910.935 1136.94,914.383 1137.54,919.702 C1141.93,958.347 1146.48,996.971 1152.7,1035.38 C1152.84,1036.19 1153.16,1036.97 1153.4,1037.77 C1152.2,1041.44 1151.19,1044.67 1146.03,1044.97 C1140.26,1045.3 1137.89,1042.57 1136.59,1037.75" fill="#6E4100"/>
    </g>
    <path d="M357.708,476.832 C351.859,470.468 352.482,462.183 351.961,454.631 C347.939,396.427 354.659,339.628 376.984,285.385 C398.048,234.206 432.005,194.296 482.218,169.364 C500.022,160.524 518.795,154.457 538.111,149.899 C541.618,149.071 542.711,149.896 543.856,153.32 C561.198,205.153 587.63,251.65 626.177,290.735 C645.062,309.884 666.707,325.16 692.433,334.019 C694.972,334.893 697.483,335.83 700.178,334.869 C703.928,333.532 705.569,330.772 705.652,326.836 C705.908,314.688 705.775,302.551 704.707,289.985 C708.445,292.044 710.499,295.332 713.014,298.02 C739.413,326.241 771.388,346.122 806.755,360.94 C812.574,363.378 816.69,361.239 818.616,355.017 C822.154,343.586 822.618,331.792 822.542,319.945 C822.526,317.455 822.54,314.965 822.54,312.416 C824.318,312.143 824.659,313.768 825.39,314.653 C834.861,326.111 845.205,336.686 856.943,345.832 C859.337,347.696 860.475,349.821 860.999,352.83 C868.243,394.434 870.394,436.116 863.362,477.979 C863.198,478.956 862.831,479.899 862.559,480.857 C860.059,480.876 859.964,478.559 859.16,477.124 C851.688,463.784 840.825,455.53 825.346,453.603 C817.947,452.682 811.017,454.269 804.436,457.04 C792.436,462.093 783.799,470.882 778.637,482.852 C772.276,497.601 775.307,511.416 788.956,521.397 C803.63,532.127 820.301,535.522 838.028,529.013 C842.432,527.396 846.286,524.774 849.676,521.464 C851.026,520.145 852.205,518.204 854.653,518.867 C851.117,536.179 845.271,552.764 838.56,569.044 C821.831,609.626 797.722,644.791 762.424,671.591 C731.952,694.727 697.514,708.661 659.769,713.719 C621.984,718.782 584.096,718.919 546.438,711.842 C532.194,709.166 518.408,704.85 504.909,699.58 C502.141,698.5 500.218,696.708 498.481,694.36 C462.734,646.028 430.427,595.406 398.638,544.44 C396.888,541.634 395.305,538.724 393.645,535.862 C395.389,534.15 397.41,535.05 399.319,535.33 C424.751,539.054 447.641,515.977 449.74,498.422 C450.128,495.176 449.934,492.126 449.196,489.054 C443.884,466.957 425.638,448.939 401.488,450.197 C384.434,451.085 371.735,459.64 361.786,472.983 C360.673,474.476 360.29,476.855 357.708,476.832" fill="#FEF8EA"/>
    <path d="M981.786,593.825 C970.47,517.303 986.721,446.693 1029.96,383.031 C1063.59,333.526 1111.94,304.307 1169.53,289.713 C1173,288.834 1173.16,290.25 1173.78,292.867 C1182.09,327.39 1197.55,358.08 1223.19,383.065 C1239.36,398.826 1258.38,409.125 1281.24,411.345 C1287.71,411.973 1289.79,410.8 1292.52,404.848 C1294.31,403.336 1296.29,403.907 1298.23,404.381 C1302.77,405.492 1307.34,406.443 1312,406.819 C1321.92,407.62 1331.09,410.794 1340.19,414.721 C1356.61,421.811 1373.83,426.364 1391.42,429.535 C1400.66,432.826 1409.76,436.463 1419.62,437.813 C1424.51,438.481 1428.51,438.195 1431.69,434.124 C1432.2,433.472 1433.01,433.112 1433.81,432.834 C1440.73,431.237 1447.83,431.043 1454.82,429.933 C1456.66,429.641 1458.5,429.771 1459.33,431.944 C1471.49,461.636 1479.49,492.448 1482.83,524.325 C1485.23,547.228 1483.87,570.147 1480.32,592.91 C1479.8,594.539 1479.18,596.046 1477.55,593.757 C1476.38,592.121 1475.82,590.165 1475.05,588.323 C1470.83,578.219 1465.42,568.922 1456.84,561.824 C1439.74,547.67 1416.95,545.857 1398.23,557.762 C1378.02,570.609 1366.82,589.264 1365.98,613.244 C1365.33,631.78 1378.73,650.917 1396.01,657.975 C1408.35,663.016 1421.08,665.883 1434.54,664.235 C1435.95,664.062 1437.99,663.018 1438.48,665.692 C1417.01,691.165 1394.08,715.268 1370.28,738.551 C1358.26,750.308 1345.91,761.702 1333.25,772.77 C1331.32,774.454 1329.31,775.625 1326.83,776.335 C1287.53,787.606 1247.4,790.654 1206.76,788.322 C1176.4,786.579 1146.67,781.422 1118.06,770.792 C1060.93,749.57 1021.03,710.579 998.012,654.227 C997.702,653.467 997.562,652.636 997.342,651.838 C999.853,650.985 1001.35,652.958 1003.13,654 C1016.58,661.89 1031.08,665.463 1046.63,664.4 C1062.04,663.348 1072.47,653.855 1081.8,642.864 C1089.2,634.159 1093.9,624.112 1094.85,612.627 C1095.47,605.184 1093.29,598.114 1090.75,591.231 C1085.56,577.146 1077.71,564.848 1064.57,557.006 C1044.45,545.009 1020.22,548.647 1002.07,565.671 C994.889,572.409 989.763,580.456 985.754,589.348 C984.931,591.174 984.72,593.775 981.786,593.825" fill="#FEF8EA"/>
    <path d="M408.623,76.701 C423.485,71.828 438.756,68.84 454.245,66.903 C464.481,65.623 474.745,64.844 485.082,64.71 C492.79,64.609 496.143,59.302 492.968,52.226 C491.515,48.986 494.073,49.237 495.241,48.621 C519.084,36.051 544.263,27.25 570.687,21.917 C594.158,17.181 617.898,15.592 641.705,17.094 C703.388,20.987 758.726,41.952 807.402,80.2 C823.431,92.795 837.885,107.001 850.82,122.75 C851.861,124.016 852.663,125.478 853.576,126.849 C855.012,129.154 853.5,131.038 852.548,132.871 C840.74,155.579 822.109,166.774 795.664,162.43 C795.059,162.33 794.429,162.104 793.557,162.614 C802.937,170.7 813.728,174.794 825.877,175.538 C842.894,176.581 859.353,174.051 875.231,167.803 C876.941,167.13 878.689,166.592 880.572,166.902 C891.292,185.094 898.213,204.872 904.333,224.922 C912.555,251.863 918.148,279.392 920.305,307.492 C921.4,321.757 921.47,336.117 919.5,350.374 C918.894,354.756 916.283,358.374 914.536,362.304 C906.339,380.741 899.884,399.773 894.643,419.237 C894.207,420.856 894.403,423.577 891.529,422.304 C888.818,421.104 883.829,422.834 883.699,418.193 C883.159,398.912 881.414,379.751 878.581,360.291 C881.808,360.899 884.633,361.769 887.49,361.889 C891.671,362.064 894.553,359.776 895.376,355.685 C896.181,351.682 894.84,348.022 890.721,346.853 C878.422,343.364 868.961,335.442 859.786,327.254 C844.161,313.309 830.59,297.575 820.769,278.917 C818.587,274.772 815.84,272.182 810.963,273.08 C806.849,273.838 804.583,277.408 804.722,283.127 C805.088,298.259 806.964,313.336 806.442,328.499 C806.328,331.816 805.738,335.12 805.676,338.435 C805.613,341.799 804.557,342.445 801.46,340.995 C786.503,333.991 772.144,325.978 758.627,316.46 C737.592,301.649 719.904,283.485 704.627,262.881 C704.132,262.212 703.639,261.541 703.116,260.893 C700.686,257.883 697.668,256.55 693.862,257.892 C690.085,259.224 688.56,262.061 688.466,265.978 C688.11,280.809 689.137,295.599 689.668,310.404 C689.869,315.994 689.795,316.002 684.831,313.601 C656.419,299.86 634.316,278.69 615.267,254.062 C590.405,221.918 571.417,186.599 559.006,147.846 C556.777,140.89 554.932,133.817 554.517,126.425 C554.257,121.792 550.599,118.843 546.073,119.034 C541.84,119.213 538.194,122.398 538.795,126.863 C539.586,132.75 536.769,133.896 531.951,135.006 C485.956,145.603 445.484,166.428 412.476,200.658 C384.657,229.507 366.287,263.914 353.752,301.677 C350.035,312.875 346.933,324.249 344.201,336.745 C342.5,329.925 341.928,323.811 339.961,317.992 C337.865,311.791 335.31,305.88 331.566,300.514 C327.891,295.247 323.037,291.273 317.588,287.972 C317.875,279.5 321.064,271.743 323.883,263.971 C336.155,230.135 357.848,203.376 385.136,182.35 C379.462,184.983 372.652,188.26 365.668,191.146 C364.287,191.717 362.805,192.227 361.55,190.788 C364.209,187.457 368.07,185.759 371.522,183.524 C376.06,180.588 377.604,176.64 375.577,172.662 C373.32,168.23 368.758,166.921 363.669,169.389 C339.447,181.133 315.019,192.385 289.292,200.528 C287.12,201.216 284.993,202.438 282.548,201.79 C281.333,199.823 282.642,198.249 283.482,196.716 C295.513,174.736 309.544,154.238 326.459,135.607 C345.829,114.272 368.24,97.09 393.426,83.357 C396.475,81.694 399.676,80.243 403.024,79.208 C404.924,78.451 406.906,77.871 408.623,76.701" fill="#BB9D8C"/>
    <path d="M1391.53,430.772 C1369.97,427.276 1349.32,420.787 1329.51,411.679 C1326.53,410.313 1323.55,409.92 1320.44,409.438 C1311.12,407.994 1301.82,406.39 1292.52,404.849 C1292.01,398.506 1290.37,396.064 1284.38,395.513 C1254,392.718 1233.75,374.54 1217.12,351.191 C1199.82,326.897 1189.37,299.847 1186.4,270.038 C1185.86,264.566 1183.01,261.825 1178.23,261.795 C1173.48,261.766 1170.85,264.318 1170.52,270.123 C1170.35,273.193 1168.49,273.425 1166.34,273.966 C1146.44,278.965 1127.16,285.696 1108.79,294.869 C1049.93,324.259 1009.85,370.652 985.587,431.292 C973.597,461.26 966.682,492.487 962.696,524.427 C962.497,526.023 962.95,527.466 960.115,527.406 C941.944,527.022 931.767,533.971 925.414,550.645 C925.243,551.093 924.88,551.468 924.607,551.877 C922.453,550.063 922.366,547.51 922.279,545.024 C922.129,540.697 922.126,536.362 922.242,532.035 C923.854,471.719 933.974,413.153 958.82,357.743 C973.764,324.414 992.964,293.776 1017.39,266.444 C1029.42,252.984 1042.5,240.747 1056.51,229.432 C1058.35,227.952 1060.35,226.803 1062.35,225.636 C1063.97,224.969 1065.13,223.582 1066.69,222.822 C1075.6,216.541 1085.89,213.133 1095.81,209.016 C1105.79,204.877 1116.1,201.597 1126.53,198.757 C1129.88,197.844 1132.8,196.408 1134.01,192.863 C1134.65,190.995 1136.2,190.509 1137.79,189.991 C1161.85,182.127 1186.43,176.707 1211.59,173.733 C1229.5,171.616 1247.43,171.269 1265.38,171.883 C1305.17,173.243 1343.24,182.142 1379.81,197.988 C1419.6,215.233 1454.61,239.145 1484.08,271.007 C1489.49,276.857 1494.34,283.223 1499.44,289.36 C1500.08,290.124 1500.75,290.908 1500.4,292.037 C1497.52,292.352 1496.42,289.414 1494.14,288.4 C1494.41,336.311 1468.55,359.667 1427.27,364.702 C1434.82,368.425 1442.38,370.025 1450.16,370.493 C1470.78,371.733 1490.08,366.819 1508.59,357.94 C1516.85,353.977 1524.33,348.647 1532.66,344.849 C1547.41,376.545 1556.75,409.886 1562.19,444.306 C1563.81,454.598 1562.43,465.303 1564.63,475.56 C1565.86,481.27 1564.5,485.732 1561.75,490.541 C1552,507.576 1542.16,524.544 1531.12,541.621 C1523.77,531.141 1513.61,526.927 1501.48,527.217 C1498.46,527.289 1499.39,525.115 1499.22,523.817 C1497.01,506.336 1493.85,489.037 1489.52,471.95 C1485.92,457.747 1481.18,443.924 1476.06,430.215 C1474.92,427.179 1473.5,425.647 1470.31,427.5 C1466.85,429.507 1461.94,427.893 1459.33,431.945 C1458,430.585 1456.44,430.793 1454.78,431.141 C1447.73,432.62 1440.56,433.062 1433.41,433.721 C1431.46,426.099 1425.96,424.753 1418.85,423.815 C1402.88,421.707 1389.14,414.082 1377.49,403.106 C1347.52,374.849 1331.24,339.718 1326.15,299.122 C1326.01,297.961 1325.86,296.804 1325.44,295.705 C1324.22,292.44 1321.77,290.997 1318.4,291.393 C1315.17,291.774 1313.38,293.886 1312.97,297.033 C1312.3,302.242 1313.36,307.363 1314.32,312.409 C1320.59,345.3 1333.92,374.97 1355.77,400.482 C1364.91,411.145 1375.31,420.518 1387.9,427.164 C1389.42,427.965 1391.5,428.39 1391.53,430.772" fill="#C6986A"/>
    <path d="M170.712,195.382 C201.533,195.458 226.053,208.931 246.234,231.288 C260.273,246.84 269.846,264.961 276.047,284.93 C276.714,287.078 276.994,288.392 274.591,289.761 C249.421,304.104 237.239,327.218 231.708,354.513 C228.999,367.881 229.25,381.298 233.513,394.466 C236.501,403.697 241.377,411.675 248.707,418.068 C250.205,419.375 251.404,420.174 249.498,422.326 C220.976,454.525 186.72,476.554 142.864,479.487 C106.512,481.918 75.714,468.862 52.653,440.398 C30.267,412.768 17.455,381.089 17.249,345.047 C17.151,328.061 22.07,312.196 29.879,297.307 C51.905,255.312 83.29,222.952 127.496,204.231 C141.232,198.414 155.656,195.222 170.712,195.382" fill="#FEF8EA"/>
    <path d="M1578.98,452.411 C1579.24,440.928 1579.6,429.442 1583.27,418.405 C1584.67,414.17 1585.81,408.449 1590.19,407.498 C1594.75,406.508 1597.56,411.759 1600.42,415.104 C1607.05,422.861 1611.8,431.87 1617.09,440.52 C1622.99,450.17 1627.59,450.586 1635,442.236 C1643.12,433.077 1652.62,425.522 1662.8,418.806 C1673.48,411.752 1684.43,405.113 1695.92,399.436 C1700.71,397.071 1705.69,395.086 1711.12,395.091 C1716.95,395.097 1718.36,397.238 1715.85,402.425 C1709.13,416.339 1698.66,427.209 1687.04,437.085 C1684.76,439.024 1682.26,440.712 1680.02,442.694 C1676.16,446.112 1675.63,450.618 1678.48,454.194 C1681.07,457.434 1685.92,458.268 1689.7,455.442 C1697.44,449.651 1705.16,443.897 1714.15,440.136 C1723.54,436.206 1733.12,432.995 1743.43,432.634 C1751,432.37 1752.85,435.173 1749.26,441.993 C1744.18,451.635 1736.19,458.73 1727.88,465.437 C1722.58,469.718 1716.98,473.641 1711.49,477.687 C1706.87,481.089 1705.59,485.696 1708.23,489.683 C1710.73,493.46 1715.27,494.09 1720.15,491.313 C1730.6,485.363 1741.73,481.866 1753.86,482.047 C1755.11,482.065 1756.8,481.599 1757.33,483.189 C1757.73,484.364 1756.52,485.28 1755.81,486.169 C1748.5,495.29 1738.8,501.474 1729.25,507.859 C1726.63,509.616 1723.92,511.293 1721.51,513.312 C1717.56,516.619 1716.94,521.179 1719.66,524.788 C1722.34,528.348 1727.05,529.067 1731.19,526.112 C1737.89,521.344 1744.81,517.184 1753.01,515.612 C1753.67,515.487 1754.31,515.172 1754.96,515.165 C1757.06,515.14 1759.7,514.096 1761.03,516.067 C1762.2,517.791 1760.47,519.813 1759.66,521.566 C1757.68,525.847 1755.08,529.853 1751.3,532.62 C1729.53,548.58 1705.45,559.627 1678.71,563.69 C1657.59,566.901 1639.14,559.369 1622.65,546.42 C1600.51,529.029 1577.81,494.074 1578.98,452.411" fill="#FEF8EA"/>
    <path d="M1063.43,225.73 C996.283,277.406 956.766,346.477 936.672,427.639 C928.93,458.911 925.018,490.74 924.352,522.979 C924.153,532.625 923.387,542.252 924.607,551.877 C921.351,566.366 920.648,580.887 924.667,595.326 C925.861,599.619 927.884,603.681 929.527,607.848 C930.973,624.65 935.04,640.936 939.602,657.081 C949.329,691.504 963.838,723.608 986.447,751.685 C993.463,760.398 1001.2,768.406 1009.53,775.853 C1009.73,776.772 1009.56,777.308 1008.46,776.884 C983.834,761.815 964.735,741.216 949.195,717.165 C926.382,681.861 913.413,642.792 905.627,601.796 C900.677,575.732 898.096,549.396 898.162,522.894 C898.369,438.635 920.47,361.575 974.842,295.634 C999.131,266.177 1028.27,242.385 1062.22,224.663 C1063.24,224.326 1063.62,224.708 1063.43,225.73" fill="#FEFEFE"/>
    <path d="M981.786,593.825 C984.732,590.162 985.812,585.53 988.177,581.556 C1000.74,560.426 1018.27,547.499 1043.86,548.956 C1059.82,549.866 1072.08,558.192 1081.41,570.748 C1089.67,581.882 1095.04,594.524 1096.21,608.334 C1097.11,618.855 1093.45,628.753 1087.4,637.374 C1078.7,649.788 1068.79,661.286 1053.08,664.608 C1034.85,668.465 1017.84,664.097 1001.97,654.748 C1000.4,653.823 998.883,652.81 997.342,651.839 C990.102,634.954 985.921,617.211 982.6,599.229 C982.269,597.439 982.055,595.627 981.786,593.825" fill="#FFD5BA"/>
    <path d="M1438.48,665.692 C1432.93,665.74 1427.35,666.245 1421.85,665.748 C1406.68,664.376 1392.18,660.488 1380.96,649.569 C1366.37,635.373 1360.85,618.092 1366.69,598.135 C1372.66,577.696 1384.71,562.055 1404.36,552.94 C1428.37,541.804 1458.17,552.641 1471.16,577.265 C1473.79,582.259 1476.14,587.432 1478.2,592.686 C1479.12,595.03 1479.57,593.408 1480.32,592.909 C1479.24,601.998 1477.14,610.889 1475.05,619.776 C1474.72,621.175 1473.93,622.572 1473.03,623.715 C1461.82,637.958 1450.57,652.177 1438.48,665.692" fill="#FFD5BA"/>
    <path d="M327.154,349.326 C326.63,366.146 322.959,383.685 311.863,398.96 C303.542,410.416 292.479,416.155 278.166,413.557 C262.79,410.766 252.891,401.63 248.849,386.448 C241.935,360.477 255.362,323.542 277.306,308.023 C278.796,306.969 280.352,305.988 281.955,305.116 C300.255,295.153 315.711,301.113 322.854,320.754 C326.027,329.478 327.082,338.49 327.154,349.326" fill="#FEF8EA"/>
    <path d="M357.708,476.832 C365.762,464.089 376.137,454.428 391.214,450.484 C420.75,442.758 444.546,462.882 450.61,489.241 C453.007,499.658 449.354,508.655 443.093,516.507 C432.538,529.745 419.275,538.067 401.513,536.807 C398.881,536.62 396.267,536.183 393.645,535.862 C381.101,516.528 369.2,496.804 357.708,476.832" fill="#FFD5BA"/>
    <path d="M854.653,518.867 C848.395,524.651 841.897,529.895 833.327,532.123 C817.15,536.33 791.601,530.251 780.213,514.899 C772.226,504.131 772.398,488.175 781.417,474.685 C790.324,461.36 802.879,452.976 818.936,452.168 C834.388,451.39 847.487,457.391 856.451,470.672 C858.663,473.948 860.532,477.456 862.559,480.857 C860.854,493.721 858.444,506.437 854.653,518.867" fill="#FFD5BA"/>
    <path d="M607.077,958.758 C601.565,939.712 596.84,920.656 590.424,902.187 C586.234,890.126 589.138,878.92 590.901,867.413 C594.244,845.585 597.894,823.803 601.519,802.019 C602.54,795.887 598.982,791.166 596.982,785.986 C594.332,779.125 594.185,779.182 600.584,775.812 C606.798,772.539 613.453,773.363 618.616,777.941 C619.502,778.727 619.816,779.445 619.344,780.504 C619.276,780.656 619.234,780.827 619.137,780.956 C607.504,796.404 614.21,812.678 617.078,828.725 C620.468,847.684 624.017,866.615 627.679,885.523 C628.381,889.148 627.599,892.361 626.617,895.706 C620.673,915.947 614.777,936.202 608.847,956.448 C608.632,957.181 608.726,958.124 607.077,958.758" fill="#FF7164"/>
    <path d="M1532.66,344.849 C1531.29,347.618 1528.4,348.475 1526.05,349.906 C1506.37,361.868 1485.58,370.746 1462.2,371.962 C1449.77,372.608 1437.62,371.304 1426.17,365.963 C1425.27,365.543 1424.28,365.287 1423.46,363.593 C1443.62,361.546 1462.52,356.619 1476.32,340.671 C1490.14,324.71 1493.3,305.587 1491.98,285.039 C1495.6,286.613 1497.14,290.39 1500.4,292.036 C1513.87,306.997 1522.78,324.775 1531.61,342.6 C1531.98,343.341 1532.31,344.099 1532.66,344.849" fill="#FEFEFE"/>
    <path d="M403.471,79.76 C371.27,95.03 343.913,116.595 320.892,143.688 C305.768,161.487 292.793,180.75 282.548,201.79 C274.925,205.543 266.666,206.053 258.147,206.895 C258.381,205.864 258.393,205.167 258.686,204.619 C283.748,157.715 318.011,119.684 365.407,94.443 C377.277,88.121 389.505,82.522 402.501,78.812 C403.598,78.336 403.711,78.867 403.471,79.76" fill="#FEFEFE"/>
    <path d="M361.55,190.788 C369.887,188.951 377.079,184.339 384.861,181.157 C386.621,180.437 388.33,179.589 390.291,179.232 C382.028,186.319 373.704,193.141 366.088,200.805 C342.817,224.225 326.657,251.608 319.125,283.908 C318.802,285.291 319.059,286.987 317.588,287.972 C311.717,284.97 305.45,283.216 298.895,283.508 C295.337,283.667 295.616,282.711 296.395,280.006 C302.221,259.76 311.988,241.574 325.094,225.19 C335.617,212.036 347.222,199.949 361.55,190.788" fill="#FEFEFE"/>
    <path d="M880.572,166.902 C859.035,176.227 836.837,180.502 813.595,174.816 C804.447,172.578 796.323,168.126 789.256,159.984 C803.353,162.844 816.425,163.379 828.638,156.82 C840.915,150.226 848.741,139.735 853.576,126.849 C864.371,138.989 872.867,152.679 880.572,166.902" fill="#FEFEFE"/>
    <path d="M760.928,1029.67 C744.128,1029.24 733.419,1019.3 724.558,1006.47 C723.692,1005.21 724.094,1003.95 724.261,1002.63 C725.763,990.738 727.258,978.846 728.672,966.944 C729.044,963.817 730.313,962.243 733.015,964.74 C748.082,978.667 763.229,992.583 767.874,1013.91 C768.333,1016.02 768.967,1018.11 769.268,1020.24 C770.256,1027.23 767.85,1029.9 760.928,1029.67" fill="#FEF8EA"/>
    <path d="M596.518,759.691 C581.785,767.569 567.612,775.147 552.887,783.02 C548.339,764.274 543.874,745.869 539.353,727.234 C549.886,728.125 559.038,730.38 567.059,737.377 C576.064,745.233 586.109,751.897 596.518,759.691" fill="#FEFEFE"/>
    <path d="M620.142,760.779 C633.768,750.6 646.516,741.005 659.353,731.529 C663.992,728.106 669.802,728.652 675.098,727.709 C677.913,727.208 676.337,729.924 676.032,731.138 C672.757,744.18 669.39,757.198 666.044,770.222 C665.259,773.276 664.329,776.301 663.715,779.389 C663.33,781.321 662.871,781.97 660.844,780.956 C647.528,774.288 634.163,767.715 620.142,760.779" fill="#FEFEFE"/>
    <path d="M937.918,574.23 C938.122,566.541 938.639,558.979 942.263,551.946 C944.204,548.18 947.111,545.607 951.013,544.255 C959.272,541.393 961.775,543.135 962.042,551.662 C962.643,570.774 964.153,589.802 968.111,608.543 C968.817,611.885 967.722,612.064 965.012,611.87 C950.544,610.838 940.537,600.432 938.627,584.159 C938.24,580.867 938.146,577.541 937.918,574.23" fill="#FEF8EA"/>
    <path d="M1210.53,846.744 C1211.04,850.896 1210.25,854.698 1208.82,858.526 C1205.47,867.55 1202.32,876.654 1199.24,885.777 C1198.35,888.396 1197.3,888.952 1194.6,887.906 C1180.14,882.312 1171.33,871.916 1167.46,857.032 C1166.74,854.296 1167.49,852.852 1169.86,851.418 C1181.45,844.393 1194.27,841.177 1207.42,838.857 C1209.92,838.414 1210.71,839.519 1210.55,841.857 C1210.43,843.511 1210.53,845.181 1210.53,846.744" fill="#FF7164"/>
    <path d="M1255.73,838.862 C1268.76,841.211 1281.74,844.479 1293.47,851.588 C1295.78,852.986 1296.17,854.528 1295.55,856.921 C1291.68,872.008 1282.65,882.425 1268.02,888.042 C1265.3,889.085 1264.5,888.115 1263.74,885.908 C1260.17,875.552 1256.43,865.253 1252.98,854.856 C1251.43,850.192 1252.64,845.291 1252.59,840.499 C1252.57,838.451 1254.15,838.785 1255.73,838.862" fill="#FF7164"/>
    <path d="M637.908,853.256 C634.973,837.256 632.519,821.502 629.045,805.975 C627.363,798.456 631.736,793.389 633.978,787.376 C634.411,786.213 635.418,786.255 636.404,786.843 C636.83,787.096 637.268,787.332 637.71,787.555 C643.467,790.467 651.76,792.009 654.272,796.668 C656.807,801.37 651.786,808.691 650.078,814.86 C647.071,825.719 643.78,836.499 640.659,847.327 C640.067,849.379 639.583,851.44 637.908,853.256" fill="#FEFEFE"/>
    <path d="M1230.71,967.552 C1226.43,956.631 1222.52,946.647 1218.62,936.662 C1218.29,935.831 1218.22,934.971 1219.12,934.485 C1223.87,931.903 1223.61,927.012 1224.42,922.717 C1226.61,911.116 1228.59,899.477 1230.69,887.859 C1230.83,887.087 1231.19,886.356 1231.95,884.194 C1234.31,897.865 1236.35,910.143 1238.58,922.388 C1239.3,926.375 1238.95,930.836 1242.73,933.762 C1244.06,934.798 1243.01,935.903 1242.62,936.898 C1238.81,946.762 1234.97,956.612 1230.71,967.552" fill="#FEFEFE"/>
    <path d="M577.253,851.283 C575.731,851.15 575.803,850.2 575.586,849.445 C570.909,833.166 566.317,816.862 561.465,800.635 C560.613,797.787 561.176,796.602 563.767,795.398 C568.125,793.374 572.358,791.048 576.499,788.604 C578.976,787.141 580.022,787.22 581.524,790.119 C584.9,796.639 585.3,803.048 583.915,810.208 C581.281,823.824 579.429,837.59 577.253,851.283" fill="#FEFEFE"/>
    <path d="M1496.89,589.692 C1499.26,575.668 1499.57,561.619 1499.91,547.592 C1499.99,543.876 1501.33,543.108 1504.61,543.359 C1512.15,543.935 1517.54,548.141 1519.99,555.417 C1520.53,557.008 1520.48,558.202 1519.53,559.567 C1512.78,569.212 1506.09,578.895 1499.37,588.555 C1498.9,589.222 1498.38,589.917 1496.89,589.692" fill="#FEF8EA"/>
    <path d="M1202.69,823.407 C1195.94,824.549 1189.91,825.74 1184.16,827.857 C1181.02,829.015 1179.38,828.446 1177.93,825.464 C1174.62,818.645 1174.21,811.47 1174.68,804.11 C1174.83,801.778 1176.13,801.536 1178.06,801.785 C1182.66,802.376 1187.27,802.883 1191.89,803.329 C1193.55,803.489 1194.56,804.07 1195.09,805.784 C1196.95,811.771 1199.6,817.445 1202.69,823.407" fill="#FEFEFE"/>
    <path d="M1211.61,804.92 C1225.33,804.92 1238.14,804.92 1251.2,804.92 C1250.3,809.409 1248.13,813.26 1246.04,817.172 C1244.99,819.141 1243.43,819.394 1241.48,819.37 C1235.65,819.299 1229.8,819.09 1223.99,819.437 C1220.23,819.66 1218.05,818.248 1216.57,815.024 C1215.13,811.879 1213.52,808.807 1211.61,804.92" fill="#FEF7E9"/>
    <path d="M1261.28,823.343 C1263.98,817.331 1266.59,811.442 1268.21,805.212 C1268.72,803.25 1270.15,803.198 1271.61,803.031 C1276.22,802.504 1280.85,802.131 1285.44,801.467 C1287.35,801.191 1288.25,801.22 1287.93,803.537 C1286.85,811.366 1284.67,818.717 1279.68,825.064 C1278.36,826.747 1277.03,827.253 1275,826.715 C1270.55,825.538 1266.06,824.507 1261.28,823.343" fill="#FEFDFD"/>
    <path d="M883.623,437.295 C890.294,438.42 890.191,438.401 889.01,444.716 C885.704,462.397 883.56,480.227 882.808,498.197 C882.661,501.711 881.249,502.709 878.077,502.883 C875.669,503.015 875.212,502.184 875.635,500.068 C879.783,479.342 882.86,458.473 883.623,437.295" fill="#FEF6E8"/>
    <path d="M587.775,732.995 C602.339,732.995 615.671,732.995 630.189,732.995 C625.501,736.558 621.454,739.658 617.383,742.724 C609.09,748.97 609.083,748.965 600.825,742.786 C596.785,739.763 592.752,736.729 587.775,732.995" fill="#FEF5E2"/>
    <path d="M1211.68,901.908 C1211.37,903.873 1211.11,905.846 1210.75,907.8 C1209.12,916.624 1209.12,916.59 1200.57,913.458 C1194.33,911.176 1188.05,909.026 1181.82,906.742 C1180.58,906.29 1178.38,906.128 1179.73,903.881 C1180.69,902.274 1180.91,899.33 1184.19,900.876 C1189.46,903.368 1194.98,905.038 1200.75,906.092 C1205.57,906.974 1208.84,905.496 1210.79,901.035 C1211.66,900.744 1212.08,900.905 1211.68,901.908" fill="#FF7063"/>
    <path d="M1252.5,901.831 C1254.64,905.626 1257.72,906.86 1262.07,906.114 C1267.19,905.238 1272.15,903.898 1276.78,901.682 C1280.01,900.134 1280.99,902.089 1282.03,904.141 C1283.57,907.211 1280.48,906.906 1279.17,907.401 C1272.04,910.099 1264.78,912.448 1257.68,915.2 C1254.68,916.364 1253.45,915.636 1253.06,912.587 C1252.59,908.977 1251.97,905.386 1251.41,901.787 C1251.79,901.459 1252.15,901.473 1252.5,901.831" fill="#FF7063"/>
    <path d="M1226.55,841.633 C1226.48,838.301 1225.22,834.699 1231.19,834.922 C1235.54,835.084 1237.3,836.127 1236.55,840.492 C1236.39,841.458 1236.5,842.469 1236.47,843.459 C1236.31,848.303 1232.6,850.677 1228.1,848.812 C1226.55,848.174 1226.55,848.174 1226.55,841.633" fill="#FE7062"/>
    <path d="M334.695,419.902 C334.689,416.079 334.666,412.257 334.682,408.435 C334.696,405.21 334.175,402.192 331.645,399.878 C332.71,397.743 333.774,395.607 334.839,393.472 C335.059,402.429 336.547,411.2 334.695,419.902" fill="#B99C8A"/>
    <path d="M403.471,79.76 C403.148,79.444 402.824,79.128 402.501,78.812 C404.324,77.476 406.428,76.958 408.623,76.701 C407.486,78.698 405.348,79.009 403.471,79.76" fill="#E0D6CE"/>
    <path d="M1008.46,776.884 C1008.82,776.541 1009.18,776.197 1009.53,775.853 C1010.97,776.709 1012.69,777.341 1012.39,779.542 C1011.08,778.656 1009.77,777.77 1008.46,776.884" fill="#E7DED4"/>
    <path d="M1063.43,225.73 C1063.03,225.375 1062.62,225.019 1062.22,224.664 C1063.55,223.662 1064.72,222.268 1066.69,222.822 C1066.14,224.398 1064.85,225.138 1063.43,225.73" fill="#E9DFD5"/>
    <path d="M1252.5,901.831 C1252.14,901.816 1251.78,901.802 1251.41,901.787 C1250.18,900.624 1250.35,899.251 1251.03,896.949 C1251.67,899.059 1252.09,900.445 1252.5,901.831" fill="#B1562E"/>
    <path d="M1211.68,901.908 C1211.38,901.617 1211.08,901.325 1210.79,901.034 C1211.1,899.953 1211.41,898.871 1212.09,896.458 C1212.62,899.238 1212.94,900.614 1211.68,901.908" fill="#CC5E41"/>
    <path d="M604.081,619.4 C577.399,618.912 548.564,612.028 523.652,592.807 C519.977,589.971 516.624,586.676 513.365,583.354 C510.248,580.174 510.342,575.904 513.214,573.122 C516.144,570.284 520.201,570.396 523.446,573.618 C549.048,599.042 580.968,606.265 615.545,605.108 C638.719,604.333 660.508,598.332 679.99,585.228 C684.986,581.867 689.496,577.955 693.635,573.578 C696.928,570.094 701.242,569.722 704.239,572.453 C707.332,575.272 707.357,579.388 703.975,583.041 C689.39,598.793 671.038,608.1 650.659,613.819 C636.794,617.711 622.614,619.36 604.081,619.4" fill="#6E4100"/>
    <path d="M729.616,424.061 C729.472,429.243 728.766,434.31 726.637,439.096 C723.731,445.628 718.833,449.224 711.565,449.391 C704.232,449.56 699.242,446.031 696.239,439.56 C691.48,429.302 691.807,418.989 696.339,408.758 C697.922,405.183 700.583,402.455 703.84,400.303 C712.574,394.531 720.611,396.512 725.424,405.785 C728.384,411.486 729.452,417.683 729.616,424.061" fill="#6E4100"/>
    <path d="M525.002,424.503 C524.76,429.23 524.326,434.477 521.971,439.413 C518.971,445.702 514.23,449.156 507.194,449.391 C500.328,449.62 495.247,446.639 492.257,440.589 C486.642,429.232 486.991,417.845 492.997,406.714 C494.946,403.102 498.181,400.709 501.821,398.904 C508.968,395.36 515.107,396.917 519.556,403.562 C523.667,409.703 524.816,416.709 525.002,424.503" fill="#6E4100"/>
    <path d="M528.979,280.249 C528.73,280.2 528.012,280.211 527.441,279.926 C515.123,273.78 502.144,268.808 491.405,259.833 C488.983,257.809 488.015,255.318 489.383,252.299 C490.66,249.481 493.032,248.526 495.953,248.972 C496.893,249.116 497.893,249.583 498.637,250.185 C507.798,257.593 518.399,262.39 529.05,267.116 C530.86,267.919 532.663,268.84 533.918,270.507 C535.455,272.549 535.813,274.71 534.638,277.04 C533.553,279.19 531.715,280.139 528.979,280.249" fill="#6E4100"/>
    <path d="M607.105,437.305 C607.831,437.553 609.166,437.801 610.284,438.433 C612.663,439.776 618.294,453.959 617.675,456.705 C616.581,461.556 610.441,463.769 606.625,460.305 C601.706,455.839 599.798,449.718 599.762,443.28 C599.74,439.399 602.755,437.636 607.105,437.305" fill="#6E4100"/>
    <path d="M1287.91,652.787 C1287.35,666.028 1284.86,678.857 1279.41,690.985 C1265.26,722.471 1234.54,726.889 1214.49,718.729 C1199.14,712.478 1190.76,699.536 1184.54,684.96 C1180.61,675.763 1178.05,666.159 1176.49,656.283 C1176.28,654.908 1176.65,653.264 1174.59,652.688 C1170.35,651.504 1168.52,648.525 1169.66,644.331 C1170.9,639.841 1174.62,639.45 1178.51,639.974 C1196.03,642.329 1213.64,642.907 1231.28,642.661 C1245.58,642.461 1259.93,641.877 1274.01,639.464 C1289,636.894 1288.43,642.359 1287.91,652.787" fill="#6E4100"/>
    <path d="M1391.53,430.772 C1347.92,406.25 1326.37,366.404 1314.56,319.842 C1312.8,312.922 1311.56,305.869 1311.43,298.688 C1311.34,293.251 1314.01,290.024 1318.64,289.797 C1323.67,289.549 1326.87,292.341 1327.36,297.956 C1328.29,308.596 1330.36,319.014 1333.59,329.152 C1343.35,359.706 1358.63,386.81 1384.22,407.014 C1395.75,416.118 1408.74,422.159 1423.77,423.202 C1431.18,423.716 1433.39,426.519 1433.41,433.721 C1431.11,438.678 1427.17,439.873 1421.97,439.355 C1411.28,438.29 1401.26,435.105 1391.53,430.772" fill="#6E4100"/>
    <path d="M1082.56,547.34 C1082.98,539.09 1086.39,530.28 1093.78,523.332 C1095.96,521.28 1096.45,519.857 1094.43,517.373 C1090.86,512.98 1089.49,507.65 1089.08,502.093 C1088.75,497.558 1091.13,494.423 1095,494.447 C1099.16,494.472 1101.32,496.763 1101.59,500.975 C1101.7,502.779 1102.07,504.618 1102.64,506.335 C1104.64,512.362 1107.22,513.87 1113.44,512.869 C1131.32,509.988 1146.24,519.678 1150.89,537.173 C1152.28,542.427 1150.16,546.824 1145.47,548.427 C1140.86,549.997 1135.95,547.813 1134.43,542.709 C1131.93,534.3 1126.42,528.802 1117.42,529.948 C1108.49,531.085 1101.24,538.782 1100.18,548.106 C1100.11,548.765 1100.11,549.432 1100.06,550.095 C1099.58,556.416 1096.3,559.977 1091.06,559.842 C1085.75,559.705 1082.5,555.619 1082.56,547.34" fill="#6E4100"/>
    <path d="M1380.03,549.63 C1380.03,555.762 1376.77,559.677 1371.52,559.843 C1366.34,560.007 1362.69,556.146 1362.53,550.09 C1362.31,542.04 1358.61,536.097 1351.7,532.227 C1342.15,526.883 1333.05,530.259 1329.06,540.448 C1328.28,542.447 1327.94,544.689 1326.26,546.215 C1323.45,548.765 1320.25,549.688 1316.6,548.194 C1312.93,546.694 1311.05,543.896 1311.39,539.982 C1312.05,532.322 1315.89,526.141 1321.2,520.887 C1323.06,519.045 1323.43,517.89 1321.87,515.608 C1319.22,511.704 1318.06,507.153 1317.69,502.443 C1317.36,498.25 1318.79,495.166 1323.31,494.491 C1327.15,493.917 1329.7,496.433 1330.35,501.124 C1330.53,502.44 1330.54,503.797 1330.87,505.074 C1332.42,511.114 1334.64,512.704 1340.84,512.35 C1361.67,511.16 1380.02,528.614 1380.03,549.63" fill="#6E4100"/>
    <path d="M1117.44,363.876 C1123.74,364.042 1130.27,367.149 1135.37,373.232 C1137.87,376.208 1138.23,379.398 1135.32,382.105 C1132.41,384.814 1129.36,384.24 1126.51,381.488 C1117.34,372.642 1105.78,374.769 1100.25,386.36 C1098.48,390.075 1095.89,392.016 1091.96,390.337 C1087.96,388.632 1087.69,385.241 1089.15,381.521 C1093.2,371.166 1104.18,363.887 1117.44,363.876" fill="#6E4100"/>
    <path d="M1228,545.719 C1230.11,545.739 1232.02,546.401 1233.26,548.11 C1235.21,550.794 1237.15,553.523 1238.75,556.42 C1240.61,559.786 1239.85,563.015 1236.8,565.262 C1233.54,567.658 1230.08,567.352 1227.43,564.25 C1225.29,561.735 1223.34,558.953 1221.84,556.018 C1219.33,551.136 1222.75,545.669 1228,545.719" fill="#6E4300"/>
    <path d="M146.713,276.795 C149.289,276.613 151.479,277.968 153.38,280 C165.468,292.92 176.038,307.021 185.712,321.799 C188.728,326.407 187.701,331.42 183.634,334.066 C179.603,336.689 174.514,335.639 171.478,331.136 C161.979,317.043 151.926,303.4 140.255,290.997 C137.712,288.294 137.488,284.897 138.873,281.645 C140.21,278.504 142.856,276.827 146.713,276.795" fill="#6E4100"/>
    <path d="M142.685,371.143 C142.596,376.975 136.857,381.506 131.678,378.956 C117.393,371.925 102.854,365.285 89.649,356.266 C85.83,353.657 85.232,348.396 87.718,344.694 C90.114,341.127 94.932,339.568 98.736,342.034 C111.318,350.191 125.109,356.075 138.096,363.453 C141.098,365.158 142.667,367.684 142.685,371.143" fill="#6E4100"/>
    <path d="M1221.75,655.689 C1239.26,655.769 1254.86,655.02 1270.38,652.969 C1273.83,652.513 1275.1,653.162 1274.63,656.971 C1272.72,672.7 1269.39,687.732 1257.66,699.603 C1246.94,710.456 1221.91,714.518 1207.87,698.351 C1197.47,686.381 1192.95,671.912 1189.74,656.834 C1189.12,653.911 1191.07,654.593 1192.71,654.652 C1203.01,655.026 1213.28,656.099 1221.75,655.689" fill="#FEFEFE"/>
  </g>
</svg>
