<?xml version="1.0" encoding="UTF-8" standalone="no"?>
<!-- Created with Inkscape (http://www.inkscape.org/) -->
<svg xmlns:dc="http://purl.org/dc/elements/1.1/" xmlns:cc="http://creativecommons.org/ns#" xmlns:rdf="http://www.w3.org/1999/02/22-rdf-syntax-ns#" xmlns:svg="http://www.w3.org/2000/svg" xmlns="http://www.w3.org/2000/svg" xmlns:xlink="http://www.w3.org/1999/xlink" xmlns:sodipodi="http://sodipodi.sourceforge.net/DTD/sodipodi-0.dtd" xmlns:inkscape="http://www.inkscape.org/namespaces/inkscape" width="264.50189mm" height="183.29759mm" viewBox="0 0 937.21142 649.47965" id="svg2" version="1.1" inkscape:version="0.91 r13725" sodipodi:docname="button-needle.svg">
  <defs id="defs4">
    <linearGradient inkscape:collect="always" id="linearGradient5200">
      <stop style="stop-color:#666666;stop-opacity:1;" offset="0" id="stop5202"/>
      <stop style="stop-color:#ffffff;stop-opacity:1" offset="1" id="stop5204"/>
    </linearGradient>
    <linearGradient inkscape:collect="always" id="linearGradient5163">
      <stop style="stop-color:#1a1a1a;stop-opacity:1;" offset="0" id="stop5165"/>
      <stop id="stop5171" offset="0.27311397" style="stop-color:#ffffff;stop-opacity:1"/>
      <stop style="stop-color:#b3b3b3;stop-opacity:1" offset="0.76858884" id="stop5173"/>
      <stop style="stop-color:#ffffff;stop-opacity:1" offset="1" id="stop5167"/>
    </linearGradient>
    <linearGradient inkscape:collect="always" id="linearGradient4243">
      <stop style="stop-color:#005500;stop-opacity:1" offset="0" id="stop4245"/>
      <stop style="stop-color:#008000;stop-opacity:1" offset="1" id="stop4247"/>
    </linearGradient>
    <linearGradient inkscape:collect="always" id="linearGradient4233">
      <stop id="stop4237" offset="0" style="stop-color:#008000;stop-opacity:1"/>
      <stop id="stop4235" offset="1" style="stop-color:#00aa00;stop-opacity:1;"/>
    </linearGradient>
    <linearGradient inkscape:collect="always" id="linearGradient4223">
      <stop id="stop4227" offset="0" style="stop-color:#002b00;stop-opacity:1"/>
      <stop id="stop4225" offset="1" style="stop-color:#008000;stop-opacity:1;"/>
    </linearGradient>
    <linearGradient inkscape:collect="always" id="linearGradient4181">
      <stop style="stop-color:#00aa00;stop-opacity:1;" offset="0" id="stop4183"/>
      <stop style="stop-color:#00aa00;stop-opacity:0;" offset="1" id="stop4185"/>
    </linearGradient>
    <linearGradient inkscape:collect="always" id="linearGradient4164">
      <stop style="stop-color:#165016;stop-opacity:1;" offset="0" id="stop4166"/>
      <stop id="stop4172" offset="0.50268793" style="stop-color:#112b00;stop-opacity:1"/>
      <stop style="stop-color:#165016;stop-opacity:1" offset="1" id="stop4168"/>
    </linearGradient>
    <linearGradient inkscape:collect="always" id="linearGradient4154">
      <stop style="stop-color:#00aa00;stop-opacity:1;" offset="0" id="stop4156"/>
      <stop id="stop4162" offset="0.5" style="stop-color:#2aff2a;stop-opacity:1"/>
      <stop style="stop-color:#00aa00;stop-opacity:1" offset="1" id="stop4158"/>
    </linearGradient>
    <linearGradient inkscape:collect="always" xlink:href="#linearGradient4154" id="linearGradient4160" x1="225.71484" y1="254.97363" x2="757.14258" y2="254.97363" gradientUnits="userSpaceOnUse" gradientTransform="translate(0,308.26772)"/>
    <linearGradient inkscape:collect="always" xlink:href="#linearGradient4164" id="linearGradient4170" x1="225.71484" y1="518.93066" x2="757.14258" y2="518.93066" gradientUnits="userSpaceOnUse" gradientTransform="translate(0,310.26772)"/>
    <linearGradient inkscape:collect="always" xlink:href="#linearGradient4181" id="linearGradient4187" x1="312.79855" y1="69.809296" x2="712.91602" y2="629.80927" gradientUnits="userSpaceOnUse"/>
    <filter inkscape:collect="always" style="color-interpolation-filters:sRGB" id="filter4193" x="-0.024" width="1.048" y="-0.024" height="1.048">
      <feGaussianBlur inkscape:collect="always" stdDeviation="5.0297461" id="feGaussianBlur4195"/>
    </filter>
    <linearGradient inkscape:collect="always" xlink:href="#linearGradient4154" id="linearGradient4213" x1="291.19141" y1="485.82031" x2="691.66602" y2="485.82031" gradientUnits="userSpaceOnUse" gradientTransform="translate(0,308.26772)"/>
    <linearGradient inkscape:collect="always" xlink:href="#linearGradient4164" id="linearGradient4221" x1="291.19141" y1="288.08301" x2="691.66602" y2="288.08301" gradientUnits="userSpaceOnUse" gradientTransform="translate(0,308.26772)"/>
    <radialGradient inkscape:collect="always" xlink:href="#linearGradient4223" id="radialGradient4229" cx="480" cy="745.21936" fx="480" fy="745.21936" r="265.71429" gradientUnits="userSpaceOnUse" gradientTransform="translate(0,-308.26772)"/>
    <radialGradient inkscape:collect="always" xlink:href="#linearGradient4233" id="radialGradient4239" cx="447.14301" cy="802.36261" fx="447.14301" fy="802.36261" r="211.5127" gradientUnits="userSpaceOnUse" gradientTransform="translate(0,-308.26772)"/>
    <radialGradient inkscape:collect="always" xlink:href="#linearGradient4243" id="radialGradient4249" cx="598.14191" cy="712.58936" fx="598.14191" fy="712.58936" r="200.2373" gradientUnits="userSpaceOnUse" gradientTransform="matrix(0.77801618,1.0816779,-1.0837691,0.77952033,811.20396,-695.52319)"/>
    <linearGradient inkscape:collect="always" xlink:href="#linearGradient4154" id="linearGradient4305" x1="377.85742" y1="411.36816" x2="605" y2="411.36816" gradientUnits="userSpaceOnUse"/>
    <linearGradient inkscape:collect="always" xlink:href="#linearGradient4164" id="linearGradient4313" x1="377.85742" y1="363.53613" x2="605" y2="363.53613" gradientUnits="userSpaceOnUse"/>
    <filter inkscape:collect="always" style="color-interpolation-filters:sRGB" id="filter4339" x="-0.036067743" width="1.0721354" y="-0.035932511" height="1.071865">
      <feGaussianBlur inkscape:collect="always" stdDeviation="7.9864161" id="feGaussianBlur4341"/>
    </filter>
    <pattern patternUnits="userSpaceOnUse" width="84" height="84" patternTransform="translate(-359.1879,388.10827)" id="pattern4423"/>
    <linearGradient inkscape:collect="always" xlink:href="#linearGradient5163" id="linearGradient5169" x1="-288.92383" y1="473.74512" x2="-282.98047" y2="473.74512" gradientUnits="userSpaceOnUse"/>
    <linearGradient inkscape:collect="always" xlink:href="#linearGradient5163" id="linearGradient5186" x1="-293.42383" y1="274.3125" x2="-278.42383" y2="274.3125" gradientUnits="userSpaceOnUse"/>
    <linearGradient inkscape:collect="always" xlink:href="#linearGradient5200" id="linearGradient5206" x1="-293.67383" y1="582.5802" x2="-278.17377" y2="582.5802" gradientUnits="userSpaceOnUse"/>
    <filter inkscape:collect="always" style="color-interpolation-filters:sRGB" id="filter5227" x="-0.66425806" width="2.328516" y="-0.018501349" height="1.0370027">
      <feGaussianBlur inkscape:collect="always" stdDeviation="4.29" id="feGaussianBlur5229"/>
    </filter>
  </defs>
  <sodipodi:namedview id="base" pagecolor="#ffffff" bordercolor="#666666" borderopacity="1.0" inkscape:pageopacity="0.0" inkscape:pageshadow="2" inkscape:zoom="0.36018252" inkscape:cx="-284.41743" inkscape:cy="275.16875" inkscape:document-units="px" inkscape:current-layer="layer1" showgrid="false" borderlayer="true" inkscape:showpageshadow="false" fit-margin-left="5" fit-margin-top="5" fit-margin-right="5" fit-margin-bottom="5" inkscape:window-width="1366" inkscape:window-height="702" inkscape:window-x="0" inkscape:window-y="27" inkscape:window-maximized="1"/>
  <metadata id="metadata7">
    <rdf:RDF>
      <cc:Work rdf:about="">
        <dc:format>image/svg+xml</dc:format>
        <dc:type rdf:resource="http://purl.org/dc/dcmitype/StillImage"/>
        <dc:title/>
      </cc:Work>
    </rdf:RDF>
  </metadata>
  <g inkscape:label="Layer 1" inkscape:groupmode="layer" id="layer1" transform="translate(-43.361481,-303.67893)">
    <g id="g4343" transform="matrix(0.85376768,-0.12521727,0.12521727,0.85376768,-128.8163,58.900348)">
      <path inkscape:connector-curvature="0" id="path4316" d="m 498.42773,441.506 a 265.71429,265.71429 0 0 0 -265.71289,265.71289 265.71429,265.71429 0 0 0 0.041,1.17188 265.71429,265.71429 0 0 0 -0.041,0.82812 265.71429,265.71429 0 0 0 0.48438,9.67774 265.71429,265.71429 0 0 1 -0.33984,-8.80469 265.71429,265.71429 0 0 0 0.86328,17.26172 265.71429,265.71429 0 0 1 -0.17188,-1.42188 265.71429,265.71429 0 0 0 264.87695,249.00196 265.71429,265.71429 0 0 0 265.71485,-265.71485 265.71429,265.71429 0 0 0 -0.0352,-0.99805 265.71429,265.71429 0 0 0 0.0352,-1.00195 265.71429,265.71429 0 0 0 -0.48438,-9.67969 265.71429,265.71429 0 0 0 -0.35156,-7.03125 265.71429,265.71429 0 0 0 -0.49219,-9.8164 A 265.71429,265.71429 0 0 0 498.42773,441.506 Z M 233.55078,725.93178 a 265.71429,265.71429 0 0 1 -0.35156,-7.03515 265.71429,265.71429 0 0 0 0.35156,7.03515 z M 429.85742,595.57631 a 45,45 0 0 1 44.95899,44.16797 45,45 0 0 0 0.006,-0.16211 45,45 0 0 1 0.0351,0.99414 45,45 0 0 1 -0.0918,1.83008 45,45 0 0 1 -0.27343,3.59375 45,45 0 0 1 -0.13086,0.86914 45,45 0 0 1 -0.63281,3.55274 45,45 0 0 1 -0.22852,0.90234 45,45 0 0 1 -0.96484,3.40625 45,45 0 0 1 -0.35352,0.9668 45,45 0 0 1 -1.26953,3.21679 45,45 0 0 1 -0.45508,0.94141 45,45 0 0 1 -1.57812,3.0625 45,45 0 0 1 -0.56836,0.92578 45,45 0 0 1 -1.84571,2.8418 45,45 0 0 1 -0.70898,0.93164 45,45 0 0 1 -2.0625,2.57422 45,45 0 0 1 -0.87305,0.93555 45,45 0 0 1 -2.23047,2.27539 45,45 0 0 1 -1.03125,0.90625 45,45 0 0 1 -2.40039,1.99804 45,45 0 0 1 -1.14648,0.82032 45,45 0 0 1 -2.51367,1.70117 45,45 0 0 1 -1.39258,0.79883 45,45 0 0 1 -2.51172,1.35546 45,45 0 0 1 -1.58398,0.70899 45,45 0 0 1 -2.51954,1.05078 45,45 0 0 1 -1.77734,0.58984 45,45 0 0 1 -2.47266,0.75 45,45 0 0 1 -1.9375,0.43555 45,45 0 0 1 -2.44335,0.48242 45,45 0 0 1 -2.09376,0.25391 45,45 0 0 1 -2.48046,0.23633 45,45 0 0 1 -2.42774,0.0859 45,45 0 0 1 -44.95898,-44.16797 45,45 0 0 0 -0.006,0.16211 45,45 0 0 1 -0.0352,-0.99414 45,45 0 0 1 0.0918,-1.83007 45,45 0 0 1 0.27344,-3.59375 45,45 0 0 1 0.13086,-0.86915 45,45 0 0 1 0.63281,-3.55273 45,45 0 0 1 0.22851,-0.90234 45,45 0 0 1 0.96485,-3.40625 45,45 0 0 1 0.35351,-0.9668 45,45 0 0 1 1.26953,-3.2168 45,45 0 0 1 0.45508,-0.9414 45,45 0 0 1 1.57813,-3.0625 45,45 0 0 1 0.56836,-0.92578 45,45 0 0 1 1.8457,-2.8418 45,45 0 0 1 0.70898,-0.93164 45,45 0 0 1 2.0625,-2.57422 45,45 0 0 1 0.86524,-0.92774 45,45 0 0 1 2.25195,-2.29492 45,45 0 0 1 0.99024,-0.86914 45,45 0 0 1 2.42968,-2.02344 45,45 0 0 1 1.14453,-0.82031 45,45 0 0 1 2.51368,-1.70117 45,45 0 0 1 1.39258,-0.79883 45,45 0 0 1 2.51171,-1.35547 45,45 0 0 1 1.58399,-0.70898 45,45 0 0 1 2.51953,-1.05078 45,45 0 0 1 1.77734,-0.58985 45,45 0 0 1 2.47266,-0.75 45,45 0 0 1 1.9375,-0.43554 45,45 0 0 1 2.44336,-0.48242 45,45 0 0 1 2.08984,-0.25391 45,45 0 0 1 2.48633,-0.23633 45,45 0 0 1 2.42578,-0.0859 z m 137.14258,0 a 45,45 0 0 1 44.95898,44.16797 45,45 0 0 0 0.006,-0.16211 45,45 0 0 1 0.0352,0.99414 45,45 0 0 1 -0.0918,1.83008 45,45 0 0 1 -0.27343,3.59375 45,45 0 0 1 -0.13086,0.86914 45,45 0 0 1 -0.63282,3.55274 45,45 0 0 1 -0.22851,0.90234 45,45 0 0 1 -0.96485,3.40625 45,45 0 0 1 -0.35351,0.9668 45,45 0 0 1 -1.26953,3.21679 45,45 0 0 1 -0.45508,0.94141 45,45 0 0 1 -1.57813,3.0625 45,45 0 0 1 -0.56836,0.92578 45,45 0 0 1 -1.8457,2.8418 45,45 0 0 1 -0.70898,0.93164 45,45 0 0 1 -2.0625,2.57422 45,45 0 0 1 -0.86524,0.92773 45,45 0 0 1 -2.25195,2.29492 45,45 0 0 1 -0.99023,0.86914 45,45 0 0 1 -2.42969,2.02344 45,45 0 0 1 -1.14453,0.82032 45,45 0 0 1 -2.51368,1.70117 45,45 0 0 1 -1.39257,0.79883 45,45 0 0 1 -2.51172,1.35546 45,45 0 0 1 -1.58399,0.70899 45,45 0 0 1 -2.51953,1.05078 45,45 0 0 1 -1.77734,0.58984 45,45 0 0 1 -2.47266,0.75 45,45 0 0 1 -1.9375,0.43555 45,45 0 0 1 -2.44336,0.48242 45,45 0 0 1 -2.08984,0.25391 45,45 0 0 1 -2.48633,0.23633 45,45 0 0 1 -2.42578,0.0859 45,45 0 0 1 -44.95898,-44.16797 45,45 0 0 0 -0.006,0.16211 45,45 0 0 1 -0.0352,-0.99414 45,45 0 0 1 0.0918,-1.83007 45,45 0 0 1 0.27343,-3.59375 45,45 0 0 1 0.13086,-0.86915 45,45 0 0 1 0.63282,-3.55273 45,45 0 0 1 0.22851,-0.90234 45,45 0 0 1 0.96485,-3.40625 45,45 0 0 1 0.35351,-0.9668 45,45 0 0 1 1.26953,-3.2168 45,45 0 0 1 0.45508,-0.9414 45,45 0 0 1 1.57813,-3.0625 45,45 0 0 1 0.56836,-0.92578 45,45 0 0 1 1.8457,-2.8418 45,45 0 0 1 0.70898,-0.93164 45,45 0 0 1 2.0625,-2.57422 45,45 0 0 1 0.86524,-0.92774 45,45 0 0 1 2.25195,-2.29492 45,45 0 0 1 0.99023,-0.86914 45,45 0 0 1 2.42969,-2.02344 45,45 0 0 1 1.14453,-0.82031 45,45 0 0 1 2.51368,-1.70117 45,45 0 0 1 1.39257,-0.79883 45,45 0 0 1 2.51172,-1.35547 45,45 0 0 1 1.58399,-0.70898 45,45 0 0 1 2.51953,-1.05078 45,45 0 0 1 1.77734,-0.58985 45,45 0 0 1 2.47266,-0.75 45,45 0 0 1 1.9375,-0.43554 45,45 0 0 1 2.44336,-0.48242 45,45 0 0 1 2.08984,-0.25391 45,45 0 0 1 2.48633,-0.23633 A 45,45 0 0 1 567,595.57631 Z M 429.85742,729.86342 a 45,45 0 0 1 44.95899,44.16797 45,45 0 0 0 0.006,-0.16211 45,45 0 0 1 0.0351,0.99414 45,45 0 0 1 -0.0918,1.83008 45,45 0 0 1 -0.27343,3.59375 45,45 0 0 1 -0.13086,0.86914 45,45 0 0 1 -0.63281,3.55274 45,45 0 0 1 -0.22852,0.90234 45,45 0 0 1 -0.96484,3.40625 45,45 0 0 1 -0.35352,0.9668 45,45 0 0 1 -1.26953,3.21679 45,45 0 0 1 -0.45508,0.94141 45,45 0 0 1 -1.57812,3.0625 45,45 0 0 1 -0.56836,0.92578 45,45 0 0 1 -1.84571,2.8418 45,45 0 0 1 -0.70898,0.93164 45,45 0 0 1 -2.0625,2.57422 45,45 0 0 1 -0.87305,0.93554 45,45 0 0 1 -2.23047,2.2754 45,45 0 0 1 -1.03125,0.90624 45,45 0 0 1 -2.40039,1.99805 45,45 0 0 1 -1.14648,0.82031 45,45 0 0 1 -2.51367,1.70118 45,45 0 0 1 -1.39258,0.79882 45,45 0 0 1 -2.51172,1.35547 45,45 0 0 1 -1.58398,0.70899 45,45 0 0 1 -2.51954,1.05078 45,45 0 0 1 -1.77734,0.58984 45,45 0 0 1 -2.47266,0.75 45,45 0 0 1 -1.9375,0.43555 45,45 0 0 1 -2.44335,0.48242 45,45 0 0 1 -2.09376,0.25391 45,45 0 0 1 -2.48046,0.23633 45,45 0 0 1 -2.42774,0.0859 45,45 0 0 1 -44.95898,-44.16797 45,45 0 0 0 -0.006,0.16211 45,45 0 0 1 -0.0352,-0.99414 45,45 0 0 1 0.0918,-1.83008 45,45 0 0 1 0.27344,-3.59374 45,45 0 0 1 0.13086,-0.86915 45,45 0 0 1 0.63281,-3.55273 45,45 0 0 1 0.22851,-0.90234 45,45 0 0 1 0.96485,-3.40625 45,45 0 0 1 0.35351,-0.9668 45,45 0 0 1 1.26953,-3.2168 45,45 0 0 1 0.45508,-0.9414 45,45 0 0 1 1.57813,-3.0625 45,45 0 0 1 0.56836,-0.92579 45,45 0 0 1 1.8457,-2.84179 45,45 0 0 1 0.70898,-0.93164 45,45 0 0 1 2.0625,-2.57422 45,45 0 0 1 0.86524,-0.92774 45,45 0 0 1 2.25195,-2.29492 45,45 0 0 1 0.99024,-0.86914 45,45 0 0 1 2.42968,-2.02344 45,45 0 0 1 1.14453,-0.82031 45,45 0 0 1 2.51368,-1.70117 45,45 0 0 1 1.39258,-0.79883 45,45 0 0 1 2.51171,-1.35547 45,45 0 0 1 1.58399,-0.70898 45,45 0 0 1 2.51953,-1.05078 45,45 0 0 1 1.77734,-0.58985 45,45 0 0 1 2.47266,-0.75 45,45 0 0 1 1.9375,-0.43554 45,45 0 0 1 2.44336,-0.48242 45,45 0 0 1 2.08984,-0.25391 45,45 0 0 1 2.48633,-0.23633 45,45 0 0 1 2.42578,-0.0859 z m 137.14258,0 a 45,45 0 0 1 44.95898,44.16797 45,45 0 0 0 0.006,-0.16211 45,45 0 0 1 0.0352,0.99414 45,45 0 0 1 -0.0918,1.83008 45,45 0 0 1 -0.27343,3.59375 45,45 0 0 1 -0.13086,0.86914 45,45 0 0 1 -0.63282,3.55274 45,45 0 0 1 -0.22851,0.90234 45,45 0 0 1 -0.96485,3.40625 45,45 0 0 1 -0.35351,0.9668 45,45 0 0 1 -1.26953,3.21679 45,45 0 0 1 -0.45508,0.94141 45,45 0 0 1 -1.57813,3.0625 45,45 0 0 1 -0.56836,0.92578 45,45 0 0 1 -1.8457,2.8418 45,45 0 0 1 -0.70898,0.93164 45,45 0 0 1 -2.0625,2.57422 45,45 0 0 1 -0.86524,0.92773 45,45 0 0 1 -2.25195,2.29492 45,45 0 0 1 -0.99023,0.86914 45,45 0 0 1 -2.42969,2.02344 45,45 0 0 1 -1.14453,0.82031 45,45 0 0 1 -2.51368,1.70118 45,45 0 0 1 -1.39257,0.79882 45,45 0 0 1 -2.51172,1.35547 45,45 0 0 1 -1.58399,0.70899 45,45 0 0 1 -2.51953,1.05078 45,45 0 0 1 -1.77734,0.58984 45,45 0 0 1 -2.47266,0.75 45,45 0 0 1 -1.9375,0.43555 45,45 0 0 1 -2.44336,0.48242 45,45 0 0 1 -2.08984,0.25391 45,45 0 0 1 -2.48633,0.23633 45,45 0 0 1 -2.42578,0.0859 45,45 0 0 1 -44.95898,-44.16797 45,45 0 0 0 -0.006,0.16211 45,45 0 0 1 -0.0352,-0.99414 45,45 0 0 1 0.0918,-1.83008 45,45 0 0 1 0.27343,-3.59374 45,45 0 0 1 0.13086,-0.86915 45,45 0 0 1 0.63282,-3.55273 45,45 0 0 1 0.22851,-0.90234 45,45 0 0 1 0.96485,-3.40625 45,45 0 0 1 0.35351,-0.9668 45,45 0 0 1 1.26953,-3.2168 45,45 0 0 1 0.45508,-0.9414 45,45 0 0 1 1.57813,-3.0625 45,45 0 0 1 0.56836,-0.92579 45,45 0 0 1 1.8457,-2.84179 45,45 0 0 1 0.70898,-0.93164 45,45 0 0 1 2.0625,-2.57422 45,45 0 0 1 0.86524,-0.92774 45,45 0 0 1 2.25195,-2.29492 45,45 0 0 1 0.99023,-0.86914 45,45 0 0 1 2.42969,-2.02344 45,45 0 0 1 1.14453,-0.82031 45,45 0 0 1 2.51368,-1.70117 45,45 0 0 1 1.39257,-0.79883 45,45 0 0 1 2.51172,-1.35547 45,45 0 0 1 1.58399,-0.70898 45,45 0 0 1 2.51953,-1.05078 45,45 0 0 1 1.77734,-0.58985 45,45 0 0 1 2.47266,-0.75 45,45 0 0 1 1.9375,-0.43554 45,45 0 0 1 2.44336,-0.48242 45,45 0 0 1 2.08984,-0.25391 45,45 0 0 1 2.48633,-0.23633 45,45 0 0 1 2.42578,-0.0859 z m 195.72656,2.32422 a 265.71429,265.71429 0 0 1 -0.63867,5.26758 265.71429,265.71429 0 0 0 0.63867,-5.26758 z m -526.39258,16.71875 a 265.71429,265.71429 0 0 0 0.51563,3.40821 265.71429,265.71429 0 0 1 -0.51563,-3.40821 z m 522.25391,10.99805 a 265.71429,265.71429 0 0 1 -0.21094,0.9375 265.71429,265.71429 0 0 0 0.21094,-0.9375 z" style="opacity:0.5;fill:#000000;fill-opacity:1;fill-rule:nonzero;stroke:none;stroke-width:0.75;stroke-linecap:round;stroke-linejoin:round;stroke-miterlimit:4;stroke-dasharray:none;stroke-opacity:1;filter:url(#filter4339)"/>
      <path id="path3336" transform="translate(0,308.26772)" d="M 491.42773,121.23828 A 265.71429,265.71429 0 0 0 225.71484,386.95117 265.71429,265.71429 0 0 0 491.42773,652.66602 265.71429,265.71429 0 0 0 757.14258,386.95117 265.71429,265.71429 0 0 0 491.42773,121.23828 Z m -68.57031,154.07031 a 45,45 0 0 1 45,45 45,45 0 0 1 -45,45 45,45 0 0 1 -45,-45 45,45 0 0 1 45,-45 z m 137.14258,0 a 45,45 0 0 1 45,45 45,45 0 0 1 -45,45 45,45 0 0 1 -45,-45 45,45 0 0 1 45,-45 z M 422.85742,409.5957 a 45,45 0 0 1 45,45 45,45 0 0 1 -45,45 45,45 0 0 1 -45,-45 45,45 0 0 1 45,-45 z m 137.14258,0 a 45,45 0 0 1 45,45 45,45 0 0 1 -45,45 45,45 0 0 1 -45,-45 45,45 0 0 1 45,-45 z" style="opacity:1;fill:url(#radialGradient4229);fill-opacity:1;fill-rule:nonzero;stroke:none;stroke-width:0.75;stroke-linecap:round;stroke-linejoin:round;stroke-miterlimit:4;stroke-dasharray:none;stroke-opacity:1" inkscape:connector-curvature="0"/>
      <path id="path3340" transform="translate(0,308.26772)" d="m 491.42773,175.43945 c -55.37365,2.9e-4 -110.40545,22.79609 -149.56054,61.95117 -39.15509,39.1551 -61.95088,94.18689 -61.95117,149.56055 -1.2e-4,55.37392 22.79409,110.40708 61.94921,149.5625 39.15513,39.15542 94.18859,61.95088 149.5625,61.95117 55.37418,1.2e-4 110.40705,-22.79571 149.5625,-61.95117 39.15546,-39.15546 61.95129,-94.18832 61.95118,-149.5625 -3e-4,-55.37392 -22.79576,-110.40737 -61.95118,-149.5625 -39.15541,-39.15513 -94.18858,-61.94934 -149.5625,-61.94922 z m -68.57031,99.86914 a 45,45 0 0 1 45,45 45,45 0 0 1 -45,45 45,45 0 0 1 -45,-45 45,45 0 0 1 45,-45 z m 137.14258,0 a 45,45 0 0 1 45,45 45,45 0 0 1 -45,45 45,45 0 0 1 -45,-45 45,45 0 0 1 45,-45 z M 422.85742,409.5957 a 45,45 0 0 1 45,45 45,45 0 0 1 -45,45 45,45 0 0 1 -45,-45 45,45 0 0 1 45,-45 z m 137.14258,0 a 45,45 0 0 1 45,45 45,45 0 0 1 -45,45 45,45 0 0 1 -45,-45 45,45 0 0 1 45,-45 z" style="opacity:1;fill:url(#radialGradient4239);fill-opacity:1;fill-rule:nonzero;stroke:none;stroke-width:0.75;stroke-linecap:round;stroke-linejoin:round;stroke-miterlimit:4;stroke-dasharray:none;stroke-opacity:1" inkscape:connector-curvature="0"/>
      <path id="path3342" transform="translate(0,308.26772)" d="m 491.42773,186.71484 c -104.84371,5.5e-4 -200.23577,95.39262 -200.23632,200.23633 -2.2e-4,104.8442 95.39212,200.23773 200.23632,200.23828 104.8447,2.2e-4 200.2385,-95.39358 200.23829,-200.23828 -5.6e-4,-104.84421 -95.39408,-200.23655 -200.23829,-200.23633 z m -68.57031,88.59375 a 45,45 0 0 1 45,45 45,45 0 0 1 -45,45 45,45 0 0 1 -45,-45 45,45 0 0 1 45,-45 z m 137.14258,0 a 45,45 0 0 1 45,45 45,45 0 0 1 -45,45 45,45 0 0 1 -45,-45 45,45 0 0 1 45,-45 z M 422.85742,409.5957 a 45,45 0 0 1 45,45 45,45 0 0 1 -45,45 45,45 0 0 1 -45,-45 45,45 0 0 1 45,-45 z m 137.14258,0 a 45,45 0 0 1 45,45 45,45 0 0 1 -45,45 45,45 0 0 1 -45,-45 45,45 0 0 1 45,-45 z" style="opacity:1;fill:url(#radialGradient4249);fill-opacity:1;fill-rule:nonzero;stroke:none;stroke-width:0.75;stroke-linecap:round;stroke-linejoin:round;stroke-miterlimit:4;stroke-dasharray:none;stroke-opacity:1" inkscape:connector-curvature="0"/>
      <path id="circle3344" d="m 491.42773,429.506 a 265.71429,265.71429 0 0 0 -265.71289,265.71289 265.71429,265.71429 0 0 0 0.0625,1.75781 265.71429,265.71429 0 0 1 265.65039,-264.4707 265.71429,265.71429 0 0 1 265.65235,263.95703 265.71429,265.71429 0 0 0 0.0625,-1.24414 A 265.71429,265.71429 0 0 0 491.42773,429.506 Z" style="opacity:1;fill:url(#linearGradient4160);fill-opacity:1;fill-rule:nonzero;stroke:none;stroke-width:0.75;stroke-linecap:round;stroke-linejoin:round;stroke-miterlimit:4;stroke-dasharray:none;stroke-opacity:1" inkscape:connector-curvature="0"/>
      <path inkscape:connector-curvature="0" id="circle3349" d="M 757.08008,695.46303 A 265.71429,265.71429 0 0 1 491.42773,959.93374 265.71429,265.71429 0 0 1 225.77734,695.9767 a 265.71429,265.71429 0 0 0 -0.0625,1.24219 265.71429,265.71429 0 0 0 265.71289,265.71485 265.71429,265.71429 0 0 0 265.71485,-265.71485 265.71429,265.71429 0 0 0 -0.0625,-1.75586 z" style="opacity:1;fill:url(#linearGradient4170);fill-opacity:1;fill-rule:nonzero;stroke:none;stroke-width:0.75;stroke-linecap:round;stroke-linejoin:round;stroke-miterlimit:4;stroke-dasharray:none;stroke-opacity:1"/>
      <path id="path4179" d="m 491.42773,135.46484 c -65.83899,3.5e-4 -131.27292,27.10301 -177.82812,73.65821 -46.5552,46.5552 -73.65786,111.98913 -73.6582,177.82812 -1.4e-4,65.83931 27.10295,131.27254 73.6582,177.82813 46.55525,46.55559 111.98882,73.65981 177.82812,73.66015 65.83962,1.4e-4 131.27444,-27.10256 177.83008,-73.6582 46.55564,-46.55564 73.65834,-111.99046 73.65821,-177.83008 -3.5e-4,-65.8393 -27.10457,-131.27288 -73.66016,-177.82812 C 622.70027,162.5678 557.26704,135.4647 491.42773,135.46484 Z m 0,25.74805 c 59.278,-1.3e-4 117.70486,24.20125 159.6211,66.11719 41.91622,41.91591 66.11882,100.34296 66.11914,159.62109 1.2e-4,59.27851 -24.20301,117.70497 -66.11914,159.6211 -41.91612,41.91613 -100.34258,66.11926 -159.6211,66.11914 -59.27812,-3.1e-4 -117.70518,-24.20293 -159.62109,-66.11914 -41.91593,-41.91626 -66.11732,-100.3431 -66.11719,-159.6211 3.1e-4,-59.27795 24.20345,-117.70343 66.11914,-159.61914 41.9157,-41.91567 100.3412,-66.11883 159.61914,-66.11914 z" style="opacity:0.5;fill:url(#linearGradient4187);fill-opacity:1;fill-rule:nonzero;stroke:none;stroke-width:0.75;stroke-linecap:round;stroke-linejoin:round;stroke-miterlimit:4;stroke-dasharray:none;stroke-opacity:1;filter:url(#filter4193)" transform="translate(0,308.26772)" inkscape:connector-curvature="0"/>
      <path id="path4197" d="m 491.42773,494.98256 c -104.84371,5.5e-4 -200.23577,95.39262 -200.23632,200.23633 -1e-5,0.83475 0.0231,1.6665 0.0351,2.5 1.50143,-103.85465 96.19187,-197.73578 200.20117,-197.73633 104.0098,-2.1e-4 198.70167,93.88118 200.20313,197.73633 0.0121,-0.8335 0.0352,-1.66525 0.0352,-2.5 -5.6e-4,-104.84421 -95.39408,-200.23655 -200.23829,-200.23633 z" style="opacity:1;fill:url(#linearGradient4221);fill-opacity:1;fill-rule:nonzero;stroke:none;stroke-width:0.75;stroke-linecap:round;stroke-linejoin:round;stroke-miterlimit:4;stroke-dasharray:none;stroke-opacity:1" inkscape:connector-curvature="0"/>
      <path id="path4202" d="m 291.22656,692.71889 c -0.012,0.83317 -0.0351,1.66559 -0.0351,2.5 -2.2e-4,104.8442 95.39212,200.23773 200.23632,200.23828 104.8447,2.2e-4 200.2385,-95.39358 200.23829,-200.23828 -10e-6,-0.83441 -0.0231,-1.66683 -0.0352,-2.5 -1.5013,103.85526 -96.19317,197.7385 -200.20313,197.73828 -104.00945,-5.4e-4 -198.6999,-93.88352 -200.20117,-197.73828 z" style="opacity:1;fill:url(#linearGradient4213);fill-opacity:1;fill-rule:nonzero;stroke:none;stroke-width:0.75;stroke-linecap:round;stroke-linejoin:round;stroke-miterlimit:4;stroke-dasharray:none;stroke-opacity:1" inkscape:connector-curvature="0"/>
      <path id="path4255" transform="translate(0,308.26772)" d="m 377.89844,321.14062 a 45,45 0 0 0 -0.041,1.16797 45,45 0 0 0 45,45 45,45 0 0 0 45,-45 45,45 0 0 0 -0.041,-0.83203 45,45 0 0 1 -44.95899,43.83203 45,45 0 0 1 -44.95898,-44.16797 z m 137.14258,0 a 45,45 0 0 0 -0.041,1.16797 45,45 0 0 0 45,45 45,45 0 0 0 45,-45 45,45 0 0 0 -0.041,-0.83203 A 45,45 0 0 1 560,365.30859 45,45 0 0 1 515.04102,321.14062 Z M 377.89844,455.42773 a 45,45 0 0 0 -0.041,1.16797 45,45 0 0 0 45,45 45,45 0 0 0 45,-45 45,45 0 0 0 -0.041,-0.83203 45,45 0 0 1 -44.95899,43.83203 45,45 0 0 1 -44.95898,-44.16797 z m 137.14258,0 a 45,45 0 0 0 -0.041,1.16797 45,45 0 0 0 45,45 45,45 0 0 0 45,-45 45,45 0 0 0 -0.041,-0.83203 A 45,45 0 0 1 560,499.5957 45,45 0 0 1 515.04102,455.42773 Z" style="opacity:1;fill:url(#linearGradient4305);fill-opacity:1;fill-rule:nonzero;stroke:none;stroke-width:0.75;stroke-linecap:round;stroke-linejoin:round;stroke-miterlimit:4;stroke-dasharray:none;stroke-opacity:1" inkscape:connector-curvature="0"/>
      <path id="path4291" transform="translate(0,308.26772)" d="m 422.85742,273.30859 a 45,45 0 0 0 -45,45 45,45 0 0 0 0.041,0.83203 45,45 0 0 1 44.95898,-43.83203 45,45 0 0 1 44.95899,44.16797 45,45 0 0 0 0.041,-1.16797 45,45 0 0 0 -45,-45 z m 137.14258,0 a 45,45 0 0 0 -45,45 45,45 0 0 0 0.041,0.83203 45,45 0 0 1 44.959,-43.83203 45,45 0 0 1 44.95898,44.16797 45,45 0 0 0 0.041,-1.16797 45,45 0 0 0 -45,-45 z M 422.85742,407.5957 a 45,45 0 0 0 -45,45 45,45 0 0 0 0.041,0.83203 45,45 0 0 1 44.95898,-43.83203 45,45 0 0 1 44.95899,44.16797 45,45 0 0 0 0.041,-1.16797 45,45 0 0 0 -45,-45 z m 137.14258,0 a 45,45 0 0 0 -45,45 45,45 0 0 0 0.041,0.83203 45,45 0 0 1 44.959,-43.83203 45,45 0 0 1 44.95898,44.16797 45,45 0 0 0 0.041,-1.16797 45,45 0 0 0 -45,-45 z" style="opacity:1;fill:url(#linearGradient4313);fill-opacity:1;fill-rule:nonzero;stroke:none;stroke-width:0.75;stroke-linecap:round;stroke-linejoin:round;stroke-miterlimit:4;stroke-dasharray:none;stroke-opacity:1" inkscape:connector-curvature="0"/>
    </g>
    <g id="g5231" transform="matrix(-0.79437257,-1.5129437,1.5129437,-0.79437257,-606.52176,708.55852)">
      <path inkscape:connector-curvature="0" id="path5208" d="m -288.92383,309.33022 a 0.250025,0.250025 0 0 0 -0.25,0.23242 l -5,73 a 0.250025,0.250025 0 0 0 0,0.0176 l 0,400 c -0.004,0.0416 -2.5,26.61993 -2.5,40 0,13.39054 2.50195,40.02344 2.50195,40.02344 a 0.250025,0.250025 0 0 0 0.0723,0.15429 c 0,0 0.77438,0.76194 1.79688,1.52344 1.02249,0.76151 2.27845,1.54883 3.3789,1.54883 1.10045,0 2.35642,-0.78732 3.37891,-1.54883 1.02249,-0.7615 1.79687,-1.52344 1.79687,-1.52344 a 0.250025,0.250025 0 0 0 0.0723,-0.15429 c 0,0 2.50195,-26.6329 2.50195,-40.02344 0,-13.38007 -2.49609,-39.95842 -2.5,-40 l 0,-400 a 0.250025,0.250025 0 0 0 0,-0.0176 l -5,-73 a 0.250025,0.250025 0 0 0 -0.25,-0.23242 z m 0.0137,486.20312 c 1.52783,0 2.75,1.22218 2.75,2.75 l 0,54 c 0,1.52784 -1.22217,2.75001 -2.75,2.75 -1.52782,0 -2.75,-1.22216 -2.75,-2.75 l 0,-54 c 0,-1.52782 1.22218,-2.75 2.75,-2.75 z" style="opacity:0.8;fill:#000000;fill-opacity:1;fill-rule:nonzero;stroke:none;stroke-width:0.75;stroke-linecap:round;stroke-linejoin:round;stroke-miterlimit:4;stroke-dasharray:none;stroke-opacity:1;filter:url(#filter5227)"/>
      <path id="rect5148" transform="translate(0,308.26772)" d="m -285.92383,-3.6875 -5,73 0,400 c 0,0 -2.5,26.64065 -2.5,40 0,13.35935 2.5,40 2.5,40 0,0 3.05635,3 5,3 1.94365,0 5,-3 5,-3 0,0 2.5,-26.64065 2.5,-40 0,-13.35935 -2.5,-40 -2.5,-40 l 0,-400 -5,-73 z m 0.0137,485.70312 c 1.662,0 3,1.338 3,3 l 0,54 c 0,1.66201 -1.338,3 -3,3 -1.662,0 -3,-1.33799 -3,-3 l 0,-54 c 0,-1.662 1.338,-3 3,-3 z" style="opacity:1;fill:url(#linearGradient5186);fill-opacity:1;fill-rule:nonzero;stroke:none;stroke-width:0.75;stroke-linecap:round;stroke-linejoin:round;stroke-miterlimit:4;stroke-dasharray:none;stroke-opacity:1" inkscape:connector-curvature="0"/>
      <path id="path5157" transform="translate(0,308.26772)" d="m -285.92383,452 a 3,40 0 0 0 -2.94531,32.60938 c 0.1991,-1.46627 1.43639,-2.59376 2.95898,-2.59376 1.44208,0 2.63785,1.00906 2.92969,2.36133 A 3,40 0 0 0 -285.92383,452 Z m -2.98633,36.50586 a 3,40 0 0 0 -0.0137,3.49414 3,40 0 0 0 0.0137,3.49023 l 0,-6.98437 z" style="opacity:1;fill:url(#linearGradient5169);fill-opacity:1;fill-rule:nonzero;stroke:none;stroke-width:0.75;stroke-linecap:round;stroke-linejoin:round;stroke-miterlimit:4;stroke-dasharray:none;stroke-opacity:1" inkscape:connector-curvature="0"/>
      <path id="path5175" transform="translate(0,308.26772)" d="m -285.92383,452 a 3,40 0 0 0 -0.50976,0.62891 3,44.388927 0 0 1 2.35742,30.01757 c 0.54643,0.42385 0.94425,1.0287 1.0957,1.73047 A 3,40 0 0 0 -285.92383,452 Z m -2.98633,36.50586 a 3,40 0 0 0 -0.0137,3.49414 3,40 0 0 0 0.0137,3.49023 l 0,-6.98437 z" style="opacity:1;fill:#ffffff;fill-opacity:1;fill-rule:nonzero;stroke:none;stroke-width:0.75;stroke-linecap:round;stroke-linejoin:round;stroke-miterlimit:4;stroke-dasharray:none;stroke-opacity:1" inkscape:connector-curvature="0"/>
      <path inkscape:connector-curvature="0" id="path5188" d="m -285.92383,304.33022 a 0.250025,0.250025 0 0 0 -0.25,0.23242 l -5,73 a 0.250025,0.250025 0 0 0 0,0.0176 l 0,400 c -0.004,0.0416 -2.5,26.61993 -2.5,40 0,13.39054 2.50195,40.02344 2.50195,40.02344 a 0.250025,0.250025 0 0 0 0.0723,0.15429 c 0,0 0.77438,0.76194 1.79688,1.52344 1.02249,0.76151 2.27845,1.54883 3.3789,1.54883 1.10045,0 2.35642,-0.78732 3.37891,-1.54883 1.02249,-0.7615 1.79687,-1.52344 1.79687,-1.52344 a 0.250025,0.250025 0 0 0 0.0723,-0.15429 c 0,0 2.50195,-26.6329 2.50195,-40.02344 0,-13.38007 -2.49609,-39.95842 -2.5,-40 l 0,-400 a 0.250025,0.250025 0 0 0 0,-0.0176 l -5,-73 a 0.250025,0.250025 0 0 0 -0.25,-0.23242 z m 0,3.91797 4.75,69.33984 0,399.99219 a 0.250025,0.250025 0 0 0 0.002,0.0234 c 0,0 2.49805,26.6484 2.49805,39.97656 0,13.2839 -2.47374,39.70097 -2.49023,39.87695 -0.053,0.0517 -0.72477,0.7107 -1.67969,1.42188 -0.9916,0.73849 -2.23688,1.45117 -3.08008,1.45117 -0.8432,0 -2.08848,-0.71268 -3.08008,-1.45117 -0.95491,-0.71118 -1.62667,-1.37018 -1.67968,-1.42188 -0.0165,-0.17598 -2.49024,-26.59305 -2.49024,-39.87695 0,-13.32816 2.49805,-39.97656 2.49805,-39.97656 a 0.250025,0.250025 0 0 0 0.002,-0.0234 l 0,-399.99219 4.75,-69.33984 z m 0.0137,481.78515 c -1.79617,0 -3.25,1.45383 -3.25,3.25 l 0,54 c 0,1.79619 1.45383,3.25001 3.25,3.25 1.79618,0 3.25,-1.45381 3.25,-3.25 l 0,-54 c 0,-1.79617 -1.45382,-3.25 -3.25,-3.25 z m 0,0.5 c 1.52783,0 2.75,1.22218 2.75,2.75 l 0,54 c 0,1.52784 -1.22217,2.75001 -2.75,2.75 -1.52782,0 -2.75,-1.22216 -2.75,-2.75 l 0,-54 c 0,-1.52782 1.22218,-2.75 2.75,-2.75 z" style="color:#000000;font-style:normal;font-variant:normal;font-weight:normal;font-stretch:normal;font-size:medium;line-height:normal;font-family:sans-serif;text-indent:0;text-align:start;text-decoration:none;text-decoration-line:none;text-decoration-style:solid;text-decoration-color:#000000;letter-spacing:normal;word-spacing:normal;text-transform:none;direction:ltr;block-progression:tb;writing-mode:lr-tb;baseline-shift:baseline;text-anchor:start;white-space:normal;clip-rule:nonzero;display:inline;overflow:visible;visibility:visible;opacity:1;isolation:auto;mix-blend-mode:normal;color-interpolation:sRGB;color-interpolation-filters:linearRGB;solid-color:#000000;solid-opacity:1;fill:url(#linearGradient5206);fill-opacity:1;fill-rule:nonzero;stroke:none;stroke-width:0.5;stroke-linecap:round;stroke-linejoin:round;stroke-miterlimit:4;stroke-dasharray:none;stroke-dashoffset:0;stroke-opacity:1;color-rendering:auto;image-rendering:auto;shape-rendering:auto;text-rendering:auto;enable-background:accumulate"/>
    </g>
  </g>
</svg>
