<svg id="lohnjournalSVG" xmlns="http://www.w3.org/2000/svg" xmlns:xlink="http://www.w3.org/1999/xlink" viewBox="0 0 760 380" style="background-color:#fff;padding:0px;width:100%;max-width:760px" font-family="Helvetica" onload="SVGonLoadLohnjournal()">
 <defs id="customDefsKontoauszug">
  </defs>

  <!-- Kontoauszug-Rahmen -->
<rect x="0" y="0" width="760" height="380" fill="#fff" stroke="#000" stroke-width="1" />
 <!-- Überschrift -->
<rect x="1" y="1" width="758" height="120" fill="#f5f5f5"/>
<text x="10" y="35" font-family="Verdana" font-size="28" text-anchor="start" fill="darkblue">LOHN-/GEHALTSJOURNAL</text>
<text id="lohnjournalName" x="10" y="70" font-family="Verdana" font-size="18" text-anchor="start" fill="#000"></text>
<text id="lohnjournalStrasse" x="10" y="90" font-family="Verdana" font-size="18" text-anchor="start" fill="#000"></text>
<text id="lohnjournalOrt" x="10" y="110" font-family="Verdana" font-size="18" text-anchor="start" fill="#000"></text>
<text x="740" y="70" font-family="Verdana" font-size="22" text-anchor="end" fill="darkblue">Monat <tspan id="lohnjournalMonat"></tspan></text>
<rect x="0" y="120" width="760" height="1" fill="#000"/>
<g font-size="18">
<text x="10" y="160" font-weight="bold" text-anchor="start">Name</text>
<text x="250" y="160" font-weight="bold" text-anchor="start">Brutto</text>
<text x="350" y="160" font-weight="bold" text-anchor="start">Steuern</text>
<text x="450" y="160" font-weight="bold" text-anchor="start">Soz.Vers.</text>
<text x="560" y="160" font-weight="bold" text-anchor="start">Soz.Vers.</text>
<text x="685" y="160" font-weight="bold" text-anchor="start">Netto</text>
<text x="10" y="300" font-weight="bold" text-anchor="start">Summe</text>

<text x="475" y="180" font-weight="bold" text-anchor="start">AN</text>
<text x="590" y="180" font-weight="bold" text-anchor="start">AG</text>

<text id="lohnjournalArbeitnehmer1" x="10" y="210" text-anchor="start"></text>
<text id="lohnjournalArbeitnehmer2" x="10" y="230" text-anchor="start"></text>
<text id="lohnjournalArbeitnehmer3" x="10" y="250" text-anchor="start"></text>
<text x="10" y="270" text-anchor="start">...</text>

<text id="lohnjournalBrutto1" x="315" y="210" text-anchor="end"></text>
<text id="lohnjournalBrutto2" x="315" y="230" text-anchor="end"></text>
<text id="lohnjournalBrutto3" x="315" y="250" text-anchor="end"></text>
<text x="315" y="270" text-anchor="end">...</text>
<text id="lohnjournalBrutto4" font-weight="bold" x="315" y="300" text-anchor="end"></text>

<text id="lohnjournalSteuern1" x="420" y="210" text-anchor="end"></text>
<text id="lohnjournalSteuern2" x="420" y="230" text-anchor="end"></text>
<text id="lohnjournalSteuern3" x="420" y="250" text-anchor="end"></text>
<text x="420" y="270" text-anchor="end">...</text>
<text id="lohnjournalSteuern4" font-weight="bold" x="420" y="300" text-anchor="end"></text>

<text id="lohnjournalAN1" x="530" y="210" text-anchor="end"></text>
<text id="lohnjournalAN2" x="530" y="230" text-anchor="end"></text>
<text id="lohnjournalAN3" x="530" y="250" text-anchor="end"></text>
<text x="530" y="270" text-anchor="end">...</text>
<text id="lohnjournalAN4" font-weight="bold" x="530" y="300" text-anchor="end"></text>

<text id="lohnjournalAG1" x="640" y="210" text-anchor="end"></text>
<text id="lohnjournalAG2" x="640" y="230" text-anchor="end"></text>
<text id="lohnjournalAG3" x="640" y="250" text-anchor="end"></text>
<text x="640" y="270" text-anchor="start">...</text>
<text id="lohnjournalAG4" font-weight="bold" x="640" y="300" text-anchor="end"></text>

<text id="lohnjournalNetto1" x="750" y="210" text-anchor="end"></text>
<text id="lohnjournalNetto2" x="750" y="230" text-anchor="end"></text>
<text id="lohnjournalNetto3" x="750" y="250" text-anchor="end"></text>
<text x="750" y="270" text-anchor="end">...</text>
<text id="lohnjournalNetto4" font-weight="bold" x="750" y="300" text-anchor="end"></text>
<rect x="5" y="280" width="740" height="1" fill="darkblue"/>
</g>

</svg>